<svg xmlns="http://www.w3.org/2000/svg" width="15.244" height="13.433" viewBox="0 0 15.244 13.433">
    <path id="Trazado_39" data-name="Trazado 39" d="M250.46,260.208c.03-.046.069-.107.1-.163l.019-.031a.95.95,0,0,1-.364-.14,1.413,1.413,0,0,1-.429-.472c-.018-.026-.039-.06-.06-.091a.8.8,0,0,1-.814.03.782.782,0,0,1-.4-.73l-.022-.016-.11-.088a.1.1,0,0,1-.019-.007.828.828,0,0,1-.361-.186,1.526,1.526,0,0,1-.19-.213l-.024-.029-.005,0a.635.635,0,0,1-.373.157.492.492,0,0,1-.2-.033,1.363,1.363,0,0,1-.794-1.151c-.022-.127-.037-.252-.05-.363s-.029-.235-.05-.339c0-.014-.005-.032-.008-.045a5.788,5.788,0,0,0-.924,1.1c-.146.2-.27.37-.376.495-.026.03-.058.073-.08.1-.055.056-.11.09-.165.139A3.889,3.889,0,0,1,242.9,259c-.212.051-.437.112-.667.185-.042.013-.079.019-.121.034h0c-.6.211-.637.483-.721,1.141a7.014,7.014,0,0,1-.123.733,4.648,4.648,0,0,1-.447,1.112A9.45,9.45,0,0,1,239.8,263.7c-.1.128-.206.257-.313.385l-.195.23a4.507,4.507,0,0,0-1.12,1.792,1.462,1.462,0,0,0,.01.651,2.46,2.46,0,0,0,1.348,1.542l.006,0c.014,0,.039-.012.057-.015a1.96,1.96,0,0,1,1.278-.527h.014a1.886,1.886,0,0,1,.66.141,3.956,3.956,0,0,1,1.162.683l.159.121a2.657,2.657,0,0,0,.457.268c.165.068.354.137.553.2a7.8,7.8,0,0,1,1.591.289,6.058,6.058,0,0,0,1.569.267h.056a2.016,2.016,0,0,0,.438-.065l.038-.007a5.042,5.042,0,0,0,1.87-1.308,7.7,7.7,0,0,0,.737-1.053c.014-.055.028-.107.042-.165a1.951,1.951,0,0,1,.382-.894,1.908,1.908,0,0,1,.92-.525c.072-.024.134-.048.2-.072.024-.019.045-.034.069-.054a4.85,4.85,0,0,0,.722-.861,6.245,6.245,0,0,1,.826-.982l.011-.012a.7.7,0,0,0,.038-.107,6.065,6.065,0,0,0-1.183-1.284,1.88,1.88,0,0,0-.589-.128c-.5-.064-1.348-.171-1.474-1a.869.869,0,0,1,0-.2A1.674,1.674,0,0,1,250.46,260.208Z" transform="translate(-238.137 -256.302)" fill="#ff8000" />
</svg>
