<svg xmlns="http://www.w3.org/2000/svg" width="70.332" height="82.885" viewBox="0 0 70.332 82.885">
  <path id="Trazado_66" data-name="Trazado 66" d="M41.655,93.514a2.418,2.418,0,0,1-.1-.751,2.009,2.009,0,0,0-.03-.375c-.059-.277-.1-.293-.382-.4a2.125,2.125,0,0,1-.852-.529,3.158,3.158,0,0,1-.423-.574,1.193,1.193,0,0,0-.42-.476,2.231,2.231,0,0,0-.34-.141c-.444-.163-1.114-.411-1.24-1.063a.738.738,0,0,1,.507-.937c.005-.023.011-.047.017-.07.02-.076.037-.14.058-.2a.665.665,0,0,1,.09-.176c.081-.109.142-.192.192-.267.185-.274.171-.4.023-.819-.014-.04-.026-.076-.042-.121a1.658,1.658,0,0,1,0-1.144c0-.013.007-.028.011-.041a1.761,1.761,0,0,0,.084-.523l0-.013c0-.142-.006-.27-.011-.388a3.042,3.042,0,0,1,.1-1.036,2.445,2.445,0,0,1,.308-.664,15.119,15.119,0,0,0,.812-1.467c.1-.2.206-.4.313-.6s.221-.4.338-.6c.065-.11.124-.221.194-.329a5.232,5.232,0,0,0,.671-1.334,4.873,4.873,0,0,0,.172-.739A4.86,4.86,0,0,1,42.426,76l.119-.2c-.282.031-.575.06-.858.09-5.7.606-11.732,1.209-17.8,1.64-2.99.213-6.024.556-8.958.887-2.409.272-4.877.551-7.349.762-.123.01-.247.017-.37.027-.7.058-1.4.113-2.107.157a2.949,2.949,0,0,1-.038.293c0,.014,0,.032-.006.046a1.29,1.29,0,0,0-.031.329,2.266,2.266,0,0,0,.377.829c.071.115.142.231.211.355.11.2.207.389.3.572a2.712,2.712,0,0,0,1.316,1.523A2.907,2.907,0,0,1,9,85.852a6.322,6.322,0,0,1,.054.818,2.223,2.223,0,0,0,.309,1.4c.076.082.115.087.283.1a1.259,1.259,0,0,1,.539.131,1.3,1.3,0,0,1,.66.745,1.265,1.265,0,0,0,.164.307,2.163,2.163,0,0,0,.935.561,3.4,3.4,0,0,1,1.069.594,2.1,2.1,0,0,1,.615,1.547,1.614,1.614,0,0,1-.529,1.227,1.226,1.226,0,0,1-.461.224,1.374,1.374,0,0,1,.249.459,5.373,5.373,0,0,1,.014,1.811,1.018,1.018,0,0,1-.427.471c.074.039.184.091.254.124a1.644,1.644,0,0,1,.528.34,1.76,1.76,0,0,1,.325.523.545.545,0,0,0,.185.266,1,1,0,0,0,.286.112,2.111,2.111,0,0,1,.484.193,3.669,3.669,0,0,1,1.3,1.45l.154.253c.231.373.514.743.814,1.134a6.83,6.83,0,0,1,1.655,3.215,3.69,3.69,0,0,1-.143,1.35,3.3,3.3,0,0,0-.127.805.874.874,0,0,0,.023.221c0-.019.065,0,.113.012a2.522,2.522,0,0,1,.543.2,2.47,2.47,0,0,1,.9.86,2.4,2.4,0,0,0,.416.487,3.894,3.894,0,0,0,.711.423,4.288,4.288,0,0,1,1.009.64c1.112,1.012,1.1,2.567,1.1,3.817v.139c0,.207-.028.5-.059.832-.03.318-.068.726-.082,1.141a.5.5,0,0,1,.587-.229,1.54,1.54,0,0,1,1.13,1.237,1.228,1.228,0,0,1-.08.6,1.993,1.993,0,0,1,1.692.952,5.777,5.777,0,0,1,.745,3.322,3.587,3.587,0,0,0,.108.9,3.823,3.823,0,0,1,.1,1.307,2.77,2.77,0,0,1-.238.737c-.184.429-.2.545-.11.652.016,0,.163.034.252.054a1.678,1.678,0,0,1,.611.224,2.091,2.091,0,0,1,.79,1.16,3.674,3.674,0,0,1,.121,1.1,1.678,1.678,0,0,0,.214,1.062,1.607,1.607,0,0,0,.736.437,2.579,2.579,0,0,1,1.067.65,1.853,1.853,0,0,1,.327.6c.062.163.1.258.165.3a.484.484,0,0,0,.214.016,1.532,1.532,0,0,1,.594.072,3.57,3.57,0,0,1,1.176.833,3.353,3.353,0,0,0,.781.61c.2.1.393.179.577.258a4.692,4.692,0,0,1,1.88,1.231c.57.647.718.662,1.684.757a5.536,5.536,0,0,1,2.694.811A4.834,4.834,0,0,1,41.7,135.59a5.293,5.293,0,0,0,.635.776,6.078,6.078,0,0,0,.7.543,3.935,3.935,0,0,1,1.278,1.25c.248.409.283.468.562.647a.845.845,0,0,0,.209.085,1.406,1.406,0,0,1,.686.4,2.918,2.918,0,0,1,.608,1.286,2.38,2.38,0,0,0,.322.8c.009.009.065.046.1.07a1.34,1.34,0,0,1,.371.323.7.7,0,0,1,.117.28,1.08,1.08,0,0,1,.475-.036,1.59,1.59,0,0,1,1.272.865c.039.061.079.124.124.187a1.422,1.422,0,0,1,.58.531,1.258,1.258,0,0,1,.133.5l0,.049a.754.754,0,0,1,.38.211,3.848,3.848,0,0,1,.469.656,4.42,4.42,0,0,0,.256.391c.012.005.1.076.212.162.509.4.858.679.922.991.15.009.3.01.4.01a.49.49,0,0,1,.25-.009h0a1.3,1.3,0,0,1,1.064,1.291,1.1,1.1,0,0,0,.142.495,1.561,1.561,0,0,0,.461.39,1.663,1.663,0,0,1,.9,1.4,5.136,5.136,0,0,1-.848,2.743,5.9,5.9,0,0,1-.445.682,3.2,3.2,0,0,0-.461.768.667.667,0,0,0-.051.249l.005-.006a.487.487,0,0,1,.118.065,2.1,2.1,0,0,1,.627.569,2.121,2.121,0,0,1,.17,1.9,3.392,3.392,0,0,0-.115.61.934.934,0,0,0,.029.13,1.154,1.154,0,0,1,.026.61,1.066,1.066,0,0,1-.046.12c-.013.032-.024.067-.039.1,4.21-.061,8.421-.094,12.631-.127l.32,0,2.632-.023.271,0q1.879-.016,3.759-.03c.073,0,.177,0,.294-.006.309-.009.736-.027,1.135-.051a5.66,5.66,0,0,1-.369-1.687,3.606,3.606,0,0,0-.3-1.342c-.106-.14-.2-.258-.293-.365a2.477,2.477,0,0,1-.722-1.826c0-.111.02-.36.051-.655.022-.219.061-.593.074-.875a2.567,2.567,0,0,1-.33-.135,3.142,3.142,0,0,0-.684.055,3.136,3.136,0,0,1-1.45-.028,2.471,2.471,0,0,1-1.829-2.259,15.7,15.7,0,0,0-.448-1.684c-.115-.374-.229-.748-.328-1.132a3.917,3.917,0,0,1-.086-.741,2.069,2.069,0,0,0-.177-.93c-.127-.117-.143-.135-.535.161a1.65,1.65,0,0,1-1.093.455c-1.1-.054-1.065-1.028-1.049-1.444,0-.107.009-.216,0-.324s0-.184,0-.266a1.836,1.836,0,0,0-.027-.4c-.026-.041-.056-.094-.087-.155a1.163,1.163,0,0,1-.159-.087,3.033,3.033,0,0,1-.369-.27.111.111,0,1,0-.121.185.817.817,0,0,1-.558,1.121,1.018,1.018,0,0,1-.867-.092,2.249,2.249,0,0,1-.765-1.57,2.825,2.825,0,0,0-.079-.325,2.754,2.754,0,0,1-.124-.585,1.84,1.84,0,0,1,.115-.71,1.009,1.009,0,0,0,.064-.277c.013-.6-.5-1.107-1.065-1.617a1.9,1.9,0,0,0-.213-.156,1.569,1.569,0,0,1-.635-.674,1.83,1.83,0,0,1-.122-.8,1.257,1.257,0,0,0-.028-.368,5.562,5.562,0,0,0-1.542-1.823l-.239-.215c-.685-.626-1.446-1.206-2.182-1.767-.772-.588-1.57-1.2-2.3-1.871-.409-.377-.8-.782-1.194-1.186-.273-.282-.545-.563-.823-.834-.089-.086-.177-.179-.264-.274-.279-.3-.52-.558-.816-.582a.429.429,0,0,0-.18.045,1.78,1.78,0,0,1-.655.113,2.162,2.162,0,0,1-1.785-1.539,2.09,2.09,0,0,1-.034-.606,1.019,1.019,0,0,0-.018-.361.449.449,0,0,0-.071-.125,1.318,1.318,0,0,1-1.055-.776.591.591,0,0,0-.1-.163,2.282,2.282,0,0,0-.4-.288,2.96,2.96,0,0,1-.658-.5,4.4,4.4,0,0,1-.724-1.23,5.092,5.092,0,0,0-.4-.768c-.057-.084-.121-.171-.186-.261a3.43,3.43,0,0,1-.7-1.337,4.7,4.7,0,0,1,.1-1.629c.043-.234.085-.461.1-.666l.047-.5a10.605,10.605,0,0,0,.052-2.418,5.746,5.746,0,0,0-.47-1.44,8.728,8.728,0,0,1-.442-1.2,6.3,6.3,0,0,1-.119-1.935,9.025,9.025,0,0,0,.006-1.066l-.022-.357a4.439,4.439,0,0,0-.34-1.836,1.129,1.129,0,0,0-.578-.268,1.476,1.476,0,0,1-1.34-1.736,1.32,1.32,0,0,0-.022-.444,4.5,4.5,0,0,0-.344-.7,3.013,3.013,0,0,1-.5-1.721c.016-.95.1-1.912.18-2.842l.029-.332c.026-.295.033-.62.041-.954a7.831,7.831,0,0,1,.3-2.406,2.755,2.755,0,0,1,.566-.868c.266-.307.4-.479.375-.717a.9.9,0,0,0-.144-.274A2.051,2.051,0,0,1,41.655,93.514Z" transform="translate(-5.021 -75.796)" fill="#b8b8b8"/>
</svg>
