<svg xmlns="http://www.w3.org/2000/svg" width="91.313" height="89.901" viewBox="0 0 91.313 89.901">
  <path id="Trazado_52" data-name="Trazado 52" d="M73.93,159.495q-1.653.011-3.307.027c-1.031.008-2.063.019-3.1.027l-.535,0c-4.381.035-8.764.072-13.145.137a.248.248,0,0,0-.034.024.485.485,0,0,1-.341.578.492.492,0,0,1-.6-.317,1.275,1.275,0,0,1-.046-.157,2.381,2.381,0,0,0-.946.705c-.048.08-.2.5-.265.672-.026.071-.051.14-.078.206.026.122.093.149.327.241a1.557,1.557,0,0,1,1.036.975,1.312,1.312,0,0,1,.068.55c-.006.093-.006.093.033.154a1.319,1.319,0,0,0,.419.359c.135.033.193.008.431-.137a3.316,3.316,0,0,1,.372-.2c.1-.046.75-.392.9-.478a.508.508,0,0,1,.334-.093,2.166,2.166,0,0,1,1.187.82.937.937,0,0,1,.25.736.9.9,0,0,1-.448.682,1.614,1.614,0,0,1-1.383-.153,2.427,2.427,0,0,0-.353-.13,3.587,3.587,0,0,0-.843.131,2.712,2.712,0,0,1-1.894-.074,2.537,2.537,0,0,1-1.716-1.58,2.64,2.64,0,0,1-.086-.65,4.156,4.156,0,0,0-.062-.589c-.106.132-.3.421-.4.576a3.266,3.266,0,0,1-.383.506,3.324,3.324,0,0,1-2.7.77l-.386-.008a4.332,4.332,0,0,1-1.4-.175,2.411,2.411,0,0,1-.637-.371,1.372,1.372,0,0,0-.374-.227,1.047,1.047,0,0,0-.368.04,2.113,2.113,0,0,1-.667.06,2.137,2.137,0,0,1-.771-.277,1.452,1.452,0,0,0-.4-.167,1.369,1.369,0,0,0-.546.08,2.272,2.272,0,0,1-.888.1,1.553,1.553,0,0,1-.633-.283c-.033-.021-.073-.046-.112-.069.038.109.091.238.129.331.055.134.111.27.155.4.02.061.041.133.062.211a1.467,1.467,0,0,0,.12.347c.044.035.074.042.261.036a1.449,1.449,0,0,1,.781.157,1.4,1.4,0,0,1,.388.359.568.568,0,0,1,.354-.14,1.1,1.1,0,0,1,1.052.835.824.824,0,0,1,0,.343,1.467,1.467,0,0,1,.648.263,1.7,1.7,0,0,1,.475.675,1.44,1.44,0,0,0,.129.245,2.715,2.715,0,0,0,1.347.921,8.6,8.6,0,0,1,.8.373,5.364,5.364,0,0,1,2.164,1.834,2.752,2.752,0,0,1,.257,1.562,1.957,1.957,0,0,0,.09.914,1.7,1.7,0,0,1,.549.3,2.3,2.3,0,0,1,.323.46,1.482,1.482,0,0,0,.129.205l.01.009a.833.833,0,0,1,.514.078,3.261,3.261,0,0,1,.517.31,1.517,1.517,0,0,0,.49.266A2.211,2.211,0,0,0,52,173.8a2.687,2.687,0,0,1,1.576.129,3.742,3.742,0,0,1,1.993,1.876l.081.149c.342.632.453.8.942.764a5.21,5.21,0,0,0,.555-.074,2.266,2.266,0,0,1,1.921.347,7.214,7.214,0,0,1,1.751,1.963,8.655,8.655,0,0,0,1.144,1.432l.192.184c.49.476.742.656,1.034.528a.458.458,0,0,0,.112-.061c0-.007.019-.058.031-.094a2.119,2.119,0,0,1,.332-.654,2.306,2.306,0,0,1,1.63-1.1,1.074,1.074,0,0,1,.9.177.708.708,0,0,1,.22.5,6.438,6.438,0,0,1,.758.366,3.4,3.4,0,0,1,.387.287c.1.079.263.214.4.306.05-.088.107-.186.174-.3a.5.5,0,0,1-.106-.535,2.851,2.851,0,0,1,.536-.8,1.547,1.547,0,0,0,.4-.624,1.165,1.165,0,0,0-.016-.3,1.527,1.527,0,0,1,.069-.84.949.949,0,0,1,.6-.6,1.029,1.029,0,0,1,.851.3c.339.272.8.924.1,2.219a4.494,4.494,0,0,1-.686.856c-.654.7-.89,1.045-.66,1.387a1.389,1.389,0,0,0,.782.353l.126.033c.155.04.31.073.466.1a.6.6,0,0,1,.317-.211.735.735,0,0,1,.494.082c.427.273.182.751.09.931-.028.055-.073.143-.1.21.177.162.716.532.989.719.212.146.391.27.481.344a3.893,3.893,0,0,0,.825.466,5.04,5.04,0,0,1,.945.53,3.41,3.41,0,0,1,.5.493c.077.086.153.173.237.253q.213.2.444.389a.882.882,0,0,1,.611.1.5.5,0,0,1,.258.377.874.874,0,0,1,0,.263,3.653,3.653,0,0,0,1.145,1.139,2.816,2.816,0,0,0,.968.059,3.789,3.789,0,0,1,1.428.127.5.5,0,0,1,.326.566.418.418,0,0,0-.01.161,4.067,4.067,0,0,0,.659-.011l.275-.02a1.413,1.413,0,0,1,1.621.83,3.915,3.915,0,0,1,.385,1.667l.022.276c.007.067.008.167.007.283,0,.075,0,.2,0,.3l.033-.014a.5.5,0,0,1,.69.441.258.258,0,0,0,.162.157,2.028,2.028,0,0,1,.4.236,3.845,3.845,0,0,1,1.11,1.446l.182.373a18.368,18.368,0,0,1,1.424,3.505,2.65,2.65,0,0,1,.051.462.5.5,0,0,1,.433.3,5.109,5.109,0,0,1,.233,2.374c-.02.325-.04.643-.028.941.02.49.015.973.008,1.452,0,.342-.009.682,0,1.023a6.479,6.479,0,0,0,.09.852,5,5,0,0,1,.055,1.585,2.764,2.764,0,0,1-.6,1.274,1.789,1.789,0,0,0-.443.981c-.028.323-.035.619-.042.9,0,.22-.01.434-.024.653a.63.63,0,0,1,.337.035.5.5,0,0,1,.317.415l.017.166a4.189,4.189,0,0,1-.084,1.847c-.01.028-.039.106-.08.208-.022.055-.06.153-.1.26a.5.5,0,0,1,.147.364.836.836,0,0,1,.414-.21.607.607,0,0,1,.084-.012.5.5,0,0,1,.049-.407.5.5,0,0,1,.347-.235c.717-.12.931.751,1.035,1.168.019.075.034.141.049.183a2.125,2.125,0,0,0,.394.483,2.8,2.8,0,0,1,.592.783.5.5,0,0,1,.026.338c.06.053.122.111.183.172a3.118,3.118,0,0,0,.295.253,3.2,3.2,0,0,1,.531.5,3.757,3.757,0,0,1,.707,1.889,1.7,1.7,0,0,1,.675.2,2.224,2.224,0,0,0,.211.088.741.741,0,0,1,.283-.513.833.833,0,0,1,.768-.164c.512.157.722.769.925,1.362a3.471,3.471,0,0,0,.247.611,5.007,5.007,0,0,0,1.182,1.072,9,9,0,0,1,.925.747,3.581,3.581,0,0,0,.659.382c.59.3,1.147.578,1.317,1.06a.478.478,0,0,1,.027.2c.376.193.73.407,1.075.616.228.138.456.276.691.408s.475.236.719.344a6.382,6.382,0,0,1,.976.5c.59.4,1.2.8,1.8,1.2a7.165,7.165,0,0,1,1.616,1.6,6.177,6.177,0,0,0,1.365,1.369A11.858,11.858,0,0,1,110.5,233c.286.329.579.665.9,1a5.425,5.425,0,0,0,2.392,1.341,14.107,14.107,0,0,1,1.355.531,4.858,4.858,0,0,1,2.37,2.78,11.915,11.915,0,0,0,.59,1.165l.127.211a12.02,12.02,0,0,1,1.9,4.466l.056.327c.252,1.481.538,3.158,1.6,4.205.745.735,1.7.193,2.975-.65l.187-.123a5.571,5.571,0,0,0,1.28-1.211,7.307,7.307,0,0,1,2.164-1.7,3.936,3.936,0,0,0,2.025-2.963l.113-.733c.075-.474.15-.95.2-1.424a1.933,1.933,0,0,0-.5-1.613l-.238-.356a2.282,2.282,0,0,0-1.586-1.113,9.517,9.517,0,0,1-1.1-.4,2.092,2.092,0,0,1-1.295-2.265,2.271,2.271,0,0,0-.23-1.21,2.364,2.364,0,0,0-.653-.592,3.477,3.477,0,0,1-.825-.739,1.565,1.565,0,0,1-.184-1.694,3.933,3.933,0,0,0,.121-.378,2.325,2.325,0,0,0,.074-.417c-.121.021-.291.066-.416.1a2.166,2.166,0,0,1-1.678-.006,2.227,2.227,0,0,1-.883-1.5,2.8,2.8,0,0,0-.215-.631,2.2,2.2,0,0,0-.87-.753c-.191-.117-.385-.236-.576-.379a4.907,4.907,0,0,1-.782-.9c-.406-.536-1.086-1.433-1.507-1.451-.036,0-.12-.006-.26.15-.125.14-.118.253.171.784a2.581,2.581,0,0,1,.343.86,2.164,2.164,0,0,1-.8,1.808c-.349.331-.761.723-1.279.618a1.133,1.133,0,0,1-.782-.736,1.184,1.184,0,0,1-.11-.859,3.9,3.9,0,0,1-1.557-.311,6.014,6.014,0,0,1-3.26-3.057,12.793,12.793,0,0,1-.8-4.622,6.39,6.39,0,0,1,.511-1.81,3.36,3.36,0,0,0,.344-2.186,2.554,2.554,0,0,0-.478-.956c-.114-.163-.233-.335-.352-.541a2.465,2.465,0,0,1-.257-.783,1.137,1.137,0,0,0-.184-.529,1.912,1.912,0,0,0-.63-.39,2.648,2.648,0,0,1-1.162-.868,4.168,4.168,0,0,1-.581-1.268c-.054-.17-.109-.343-.181-.525l-.184-.448a10.838,10.838,0,0,1-.524-1.467,2.254,2.254,0,0,0-.394-.707,3.555,3.555,0,0,1-.485-.838,2.658,2.658,0,0,1-.075-1.176,1.507,1.507,0,0,0-.044-.779c-.033-.034-.173-.156-.291-.263-.048-.044-.1-.086-.139-.129a2.838,2.838,0,0,1-2.645-2.045c-.054-.15-.1-.295-.144-.437a2.6,2.6,0,0,0-.428-.929c-.115-.142-.222-.251-.321-.352a2.448,2.448,0,0,1-.718-1.176,2.813,2.813,0,0,1-.065-.342.634.634,0,0,1-.342-.319,1.786,1.786,0,0,1-.149-.671,1.124,1.124,0,0,0-.04-.274,1.614,1.614,0,0,0-.151-.284,1.908,1.908,0,0,1-.308-.76,3.308,3.308,0,0,1,.313-1.573,2.223,2.223,0,0,0,.241-1.169,3.7,3.7,0,0,0-.608-1.185,3.614,3.614,0,0,1-.82-2.216.9.9,0,0,1,.251-.571l-.018-.032a.676.676,0,0,1-.422-.282c-.068-.1-.135-.219-.2-.34a2.7,2.7,0,0,0-.164-.275.748.748,0,0,0-.152-.139,1.088,1.088,0,0,1-.483-.82,1.529,1.529,0,0,1,.352-.965,1.7,1.7,0,0,0,.205-.37c-.025,0-.252-.064-.435-.113a1.729,1.729,0,0,1-1.391-1.11,2.9,2.9,0,0,1-.011-1.364c.092-.6.108-.883-.127-1.073a2.648,2.648,0,0,0-.485-.29,3.367,3.367,0,0,1-.783-.507c-.327-.3-.67-.565-1.014-.835-.184-.144-.369-.289-.551-.438-.067-.054-.141-.12-.221-.19-.152-.135-.625-.546-.767-.514-.089.107-.276.45.41,1.919a2.273,2.273,0,0,0,.99,1.039c.155.1.322.217.5.353a2.019,2.019,0,0,1,.562,2.374,1.04,1.04,0,0,1-1.486.231,2.324,2.324,0,0,1-.787-.913,3.079,3.079,0,0,0-.26-.393l-.29-.328a12.925,12.925,0,0,1-.838-1.009l-.117-.151a1.9,1.9,0,0,1-.471-.936,1.951,1.951,0,0,1,.118-.869.763.763,0,0,0,.039-.575,2.71,2.71,0,0,0-.851-1.018,3.477,3.477,0,0,1-1.141-1.466,1.363,1.363,0,0,1,.749-1.8c.21-.125.309-.193.348-.267a7.054,7.054,0,0,0-1.63-.486c-1.2-.268-2.436-.546-2.862-1.284a1.146,1.146,0,0,1-.092-.94.621.621,0,0,1,.22-.289c-.129-.151-.277-.308-.366-.4a3.969,3.969,0,0,1-.437-.515,4.381,4.381,0,0,1-.61-2.022c-.019-.153-.039-.312-.063-.478-.138-.923-.373-1.12-1.242-1.5a5.683,5.683,0,0,1-.96-.57,4.236,4.236,0,0,0-.89-.516,2.561,2.561,0,0,0-.319-.09,1.983,1.983,0,0,1-.936-.426,1.58,1.58,0,0,1-.411-.705.853.853,0,0,0-.114-.254.7.7,0,0,0-.376-.2,1.313,1.313,0,0,1-1.007-.979,3.842,3.842,0,0,1-.121-.4,1.145,1.145,0,0,0-.175-.431,1.013,1.013,0,0,0-.229-.241,1.107,1.107,0,0,1-.444-.872,6.845,6.845,0,0,1,.187-2.064l-1.478.013C74.308,159.491,74.127,159.494,73.93,159.495Z" transform="translate(-39.444 -159.475)" fill="#b8b8b8"/>
</svg>
