<svg xmlns="http://www.w3.org/2000/svg" width="48.14" height="51.84" viewBox="0 0 48.14 51.84">
  <path id="Trazado_54" data-name="Trazado 54" d="M407.97,323.021a2.081,2.081,0,0,1,.1.441c.017.107.049.31.078.422a1.13,1.13,0,0,0,.426.1c.256-.029.542-.063.715-.084.246-.03.455-.053.574-.058s.247-.023.4-.043a2.515,2.515,0,0,1,1.8.186c.566.453.468,1.337.4,1.921l-.042.474c-.009.479-.033.961-.064,1.434-.032.489-.064.974-.07,1.443-.014,1.064.031,1.161.806,1.728.135.1.283.2.432.3a6.452,6.452,0,0,1,.89.664,2.55,2.55,0,0,1,.427.536,4.187,4.187,0,0,0,.77.639,3.367,3.367,0,0,0,2.151.764c.166-.006.407.007.674.02.219.012.565.029.871.026a2.333,2.333,0,0,0,.5-.11.387.387,0,0,0,.156-.086,1.364,1.364,0,0,0,0-.334,4.146,4.146,0,0,1-.011-.577c0-.058.015-.107.022-.162a1.65,1.65,0,0,1,.083-.548,1.292,1.292,0,0,1,1.293-.98c.073-.007.147-.012.221-.017l.133-.01c.161-.011.3-.005.441,0,.128,0,.245.014.365.024a4.457,4.457,0,0,1,.753.117,12.637,12.637,0,0,1,2.4.763l.037.015.014.007a3.5,3.5,0,0,1,.961.526,4.724,4.724,0,0,0,.523.357l.015.008a3.2,3.2,0,0,0,1.249.4,5.408,5.408,0,0,0,.562-.062,6.572,6.572,0,0,1,.957-.1,1.549,1.549,0,0,1,1.111.364,1.217,1.217,0,0,1,.37.918,7.31,7.31,0,0,1-.039,1.484v.008l-.013.138a2.519,2.519,0,0,0,.788-.016c.192-.023.377-.043.542-.046s.318,0,.477,0q1.22-.017,2.436-.027l6.757-.077,5.568-.063c.228-.011.567.006,1.022.019a42.356,42.356,0,0,0,5.984-.094,2.539,2.539,0,0,0,.585-.137q-.033-5.271-.052-10.542c-.011-2.443-.03-4.885-.043-7.328-.006-.453-.019-.908-.023-1.36-.014-1.432-.015-2.863-.016-4.294,0-1.606,0-3.212-.021-4.819,0-.255-.028-.556-.056-.88a7.772,7.772,0,0,1,.07-2.51c-.018-.068-.048-.133-.07-.2a8.7,8.7,0,0,0-1.569-2.529c-.3-.381-.6-.758-.864-1.14-.224-.325-.443-.654-.666-.98q-2.053-3-4.087-6.023-1.173-1.74-2.35-3.478c-.668.645-1.4.4-2.106.154l-.361-.12a1.649,1.649,0,0,1-1.085-.679,1.062,1.062,0,0,1-.026-.8c-.686.018-1.371.052-2.057.085a.475.475,0,0,1-.37-.137.507.507,0,0,1-.154-.364l.013-3.427c-.022.03-.036.061-.056.092a1.591,1.591,0,0,0-.28.649c-.049.329-.091.652-.132.975-.075.591-.15,1.175-.266,1.783a4.557,4.557,0,0,0,.1,1.686,7.506,7.506,0,0,1,.164,1.417,15.42,15.42,0,0,1-.163,1.892,14.744,14.744,0,0,0-.155,1.781,8.115,8.115,0,0,0,.355,2.291l.077.307a2.358,2.358,0,0,1-.673,2.473,10.194,10.194,0,0,1-1.3,1.112,3.867,3.867,0,0,0-1.84,2.358,12.042,12.042,0,0,0-.111,2.607,13.413,13.413,0,0,1-.119,2.818,3.205,3.205,0,0,1-1.476,2.248,5.635,5.635,0,0,0-1.09,1.137c-.169.213-.343.432-.544.658a6.762,6.762,0,0,1-1.731,1.285c-.25.147-.5.293-.741.455a9.027,9.027,0,0,0-.888.715,7.714,7.714,0,0,1-1.347,1.012c-.136.074-.274.146-.412.216a.5.5,0,0,1-.017.227,2.794,2.794,0,0,1-1.666,1.554,2.6,2.6,0,0,0-.985.673,1.611,1.611,0,0,1,.277.371,1.223,1.223,0,0,0,.087.141c-.013-.033.053-.059.1-.077a1.219,1.219,0,0,1,.832-.083,1.385,1.385,0,0,1,.955.748,2.078,2.078,0,0,1-.07,1.559c1.086-.35,1.138-.278,1.323-.028a.677.677,0,0,1,.081.541c-.191.548-1.39.92-1.4.923a1.884,1.884,0,0,1-.454.04c-.073,0-.148,0-.212,0-.018.037-.04.088-.053.123a1.417,1.417,0,0,1-.306.5,3.8,3.8,0,0,1-1.47.66c-.346.106-.664.209-.931.316a.434.434,0,0,1,.02.05c.087.25.292,1.319-.37,1.6l0,0a.5.5,0,0,1-.635-.223.553.553,0,0,0-.135-.079,3.026,3.026,0,0,0-.3.1,2.22,2.22,0,0,1-.615.163,7.9,7.9,0,0,1-2.783-.483l-.059-.019a.592.592,0,0,1-.11.612.694.694,0,0,1-.028.674.672.672,0,0,1-.689.3,1.882,1.882,0,0,1-1.192-1.054,1.3,1.3,0,0,1,.2-.982c.014-.025.03-.055.044-.084l-.022-.008-.057-.017a.5.5,0,0,1-.2.075,1.616,1.616,0,0,1-1.224-.459,1.648,1.648,0,0,0-.428-.263,3.323,3.323,0,0,0-.808-.112.5.5,0,0,1-.762-.539,3.054,3.054,0,0,1,.132-.376.978.978,0,0,0,.1-.364.5.5,0,0,1,.25-.468,1.18,1.18,0,0,0,.583-.345.486.486,0,0,1,.269.047,1.749,1.749,0,0,0,.257-.055.547.547,0,0,1,.217-.193.457.457,0,0,1,.374-.024l-.114-.139c-.558-.684-.559-.683-1.484-.443a19.374,19.374,0,0,1-3.41.473,21.51,21.51,0,0,0-2.724.326c.047.077.1.157.154.237A3.661,3.661,0,0,1,407.97,323.021Z" transform="translate(-407.431 -284.258)" fill="#b8b8b8"/>
</svg>
