<svg xmlns="http://www.w3.org/2000/svg" width="59.435" height="59.638" viewBox="0 0 59.435 59.638">
  <path id="Trazado_57" data-name="Trazado 57" d="M412.776,386.266c.073-.035.143-.066.2-.091.2-.081.25-.11.3-.2.092-.175-.033-.468-.214-.759a7.192,7.192,0,0,0-.481-.664l-.025-.031c-.085-.107-.163-.205-.225-.29-.117-.158-.231-.3-.34-.432a2.514,2.514,0,0,1-.759-1.646c0-.026,0-.054.005-.081s0-.061.01-.091a2.629,2.629,0,0,1,.145-.65,10.43,10.43,0,0,1,.952-1.845c.19-.315.381-.63.547-.952.068-.131.133-.263.2-.395q.312-.609.621-1.219c.084-.168.172-.334.257-.5.291-.578.582-1.156.885-1.728.377-.712.74-1.453,1.105-2.2.615-1.255,1.253-2.541,1.974-3.734.107-.176.21-.357.321-.529.715-1.11,1.924-1.075,2.9-1.043.191,0,.384.008.571.008l.572-.006q2.01-.024,4.02-.043,3.533-.036,7.065-.058l2.249-.019c1,0,1.989.031,2.825.067.064,0,.152.011.255.022a5.14,5.14,0,0,0,.544.035c0-.01,0-.022,0-.033a.761.761,0,0,1,.019-.35.99.99,0,0,1,.163-.316,1.866,1.866,0,0,1,.183-.206c.038-.039.064-.065.081-.085a1.506,1.506,0,0,1-.223-.208.759.759,0,0,1-.188-.364.917.917,0,0,1,.174-.788l.018-.026-.01-.022-.013-.027-.008-.018a.965.965,0,0,1-.094-.743v0c0-.005.007-.008.008-.013a.5.5,0,0,1,.142-.216.612.612,0,0,1,.076-.04.494.494,0,0,1,.142-.074.555.555,0,0,1-.025-.56,1.178,1.178,0,0,1,.412-.442h0l0-.013a.625.625,0,0,1-.062-.233.475.475,0,0,1,0-.084.566.566,0,0,1,.065-.243.53.53,0,0,1,.085-.113,5.935,5.935,0,0,0-.526-.284c-.15-.072-.306-.143-.459-.2l-.3-.178c-.078-.049-.163-.1-.246-.153-.058-.036-.109-.065-.162-.1-.031-.018-.066-.04-.094-.055a3.521,3.521,0,0,1-.417-.2l-.086.013-.069.01-.033,0a1.8,1.8,0,0,1-.98-.045,1.214,1.214,0,0,1-.352-.22.5.5,0,0,1-.166-.427.5.5,0,0,1,.077-.218.541.541,0,0,1,.054-.053.5.5,0,0,1,.106-.1c-.028-.035-.059-.073-.085-.1a2.106,2.106,0,0,1-.363-.545,1.969,1.969,0,0,1-.134-.63c-.009-.131-.014-.262-.014-.382a2.113,2.113,0,0,0-.05-.58,2.721,2.721,0,0,0-.506-.869,4.652,4.652,0,0,0-.4-.451,1.959,1.959,0,0,0-.3-.224c-.08-.052-.158-.11-.235-.167-.033-.024-.068-.044-.1-.071h0a.479.479,0,0,1-.092-.1c-.03-.034-.077-.083-.13-.139-.128-.136-.236-.251-.321-.354-.015,0-.042,0-.059-.005l-.052,0c-.04,0-.068-.008-.122-.01a2.529,2.529,0,0,1-.549-.067c-.041-.011-.091-.037-.135-.053a3.565,3.565,0,0,1-1.373-.918.936.936,0,0,1-.127-.238v0l-.025.02-.02.016a.466.466,0,0,1-.1.044.455.455,0,0,1-.085.037.517.517,0,0,1-.225,0l-.016-.006a6.409,6.409,0,0,1-1.281-.767,1.842,1.842,0,0,1-.222-.2,4.716,4.716,0,0,1-.623-.884l-.007-.013c-.085-.145-.166-.285-.25-.406-.038-.053-.055-.086-.081-.128a2.6,2.6,0,0,1-.145-.261,1.116,1.116,0,0,0-.165-.13.92.92,0,0,0-.119-.041,1.345,1.345,0,0,1-.566-.3,4.847,4.847,0,0,1-.718-.944,5.493,5.493,0,0,0-.374-.54l-.058-.066-.05-.058a3.933,3.933,0,0,1-.3-.375.712.712,0,0,1-.113-.263h0a.94.94,0,0,1-.017-.221H425.8a1.667,1.667,0,0,0-.208.031,1.463,1.463,0,0,1-.874-.034s-.106-.05-.255-.135c-.451-.256-1.33-.845-1.228-1.486l0-.012,0-.012a1.289,1.289,0,0,1-.224-.321,1.134,1.134,0,0,1-.155-.546.983.983,0,0,1,.279-.661.876.876,0,0,1,.091-.092.7.7,0,0,0-.078-.047c0,.006-.034.006-.072,0a2.329,2.329,0,0,1-.249-.031,1.052,1.052,0,0,1-.6-.315,1.737,1.737,0,0,1-.451-1.045,1.687,1.687,0,0,0-.048-.245.229.229,0,0,0-.083-.128,1.542,1.542,0,0,0-.559-.086l-.039,0a1.5,1.5,0,0,1-1.535-.839.917.917,0,0,1,.019-.678c.023-.058.047-.11.068-.154a.689.689,0,0,0,.059-.149,3.488,3.488,0,0,0-.121-1.2,1.639,1.639,0,0,0-.467-.981,1.321,1.321,0,0,0-.576-.213c-.983-.18-1.2-.394-1.311-1.27-.013-.105-.028-.226-.049-.366l-.032-.22c-.053-.4-.1-.587-.232-.691-.013-.009-.021-.023-.035-.031a1.524,1.524,0,0,0-.3-.04,1.488,1.488,0,0,0-.27,0,.771.771,0,0,1-.069.1.986.986,0,0,1-.431.348,1.6,1.6,0,0,1-.2.056.792.792,0,0,1-.216.035.613.613,0,0,1-.086,0,.788.788,0,0,1-.39-.091.681.681,0,0,1-.138-.114c-.018-.014-.036-.028-.052-.043a.249.249,0,0,1-.025-.032,1.293,1.293,0,0,1-.221-.569c-.008-.045-.02-.108-.033-.157-.01.008-.027.025-.038.035a2.848,2.848,0,0,0-.281.282c-.034.038-.062.067-.1.11a1.948,1.948,0,0,1-.277.269l-.012.01a.892.892,0,0,1,.08.3.561.561,0,0,1-.031.258c-.018.045-.04.076-.059.116a1.109,1.109,0,0,1-1.362.6,1.468,1.468,0,0,0-.5-.03,5.02,5.02,0,0,0-1.007.341c-.219.092-.438.19-.639.281-.239.107-.463.209-.656.287a.967.967,0,0,0-.531.4c-.07.09-.149.192-.258.311-.029.032-.054.056-.082.085a5,5,0,0,1-.84.7,11.794,11.794,0,0,0-1.76,1.669l-.185.2q-.25.277-.5.542c-.145.154-.321.378-.52.628-.776.978-1.742,2.194-2.776,2.211-1.029.057-1.706-1.193-2.094-1.917a3.9,3.9,0,0,1-.228-.512,1.865,1.865,0,0,0-.215-.455.725.725,0,0,0-.262-.053c-.065-.006-.141-.018-.216-.031a1.286,1.286,0,0,1-.416-.133,1.578,1.578,0,0,1-.7-.9,6.573,6.573,0,0,1-.286-1.632c-.017-.2-.033-.382-.056-.535a7.961,7.961,0,0,1,.091-2.259c.033-.235.065-.465.09-.693v-.011a1.575,1.575,0,0,1-.632.063,3.536,3.536,0,0,1-1.758-.912c-.025-.021-.045-.035-.07-.055-.61-.486-1.025-.774-1.442-.59a1.03,1.03,0,0,0-.334.206,1.05,1.05,0,0,0-.244.6,5.317,5.317,0,0,1-.222.806,1.154,1.154,0,0,1-.106.174,2.947,2.947,0,0,1-.471.581c-.079.078-.19.188-.251.263.019.035.032.071.049.107a.84.84,0,0,1,.1.372.453.453,0,0,1,.009.075c-.008.073-.025.176-.045.284a2.154,2.154,0,0,0-.041.263.905.905,0,0,1-.106.407c-.007,0,.012.037.032.071l.022.035a1.207,1.207,0,0,1,.234.656,1.254,1.254,0,0,1-.024.168,1.875,1.875,0,0,1-.637,1.142,2.643,2.643,0,0,0-.264.286c-.212.283-.412.557-.6.83-.061.085-.12.171-.179.257a10.613,10.613,0,0,0-.85,1.442l-.116.247c-.042.09-.086.176-.128.265a6.869,6.869,0,0,1-1.876,2.648c-.17.134-.356.291-.556.456a13.285,13.285,0,0,1-2.41,1.725,4.159,4.159,0,0,1,0,1.549,5.244,5.244,0,0,0-.057.644.5.5,0,0,1-.25.434.484.484,0,0,1-.178.061c-.007,0-.014,0-.021,0a.52.52,0,0,1-.167-.007c-.007.112-.007.237-.007.309v.28a2.342,2.342,0,0,1-.663,1.939,3.42,3.42,0,0,1-.538.413c-.052.034-.106.072-.156.1a1.935,1.935,0,0,0-.612.51l-.008.013a.794.794,0,0,0-.091.2c0,.011-.008.022-.011.034a2.221,2.221,0,0,0-.05.453c0,.115,0,.242.006.392.005.084.006.165.012.251a3.37,3.37,0,0,1-.315,2.04,5.429,5.429,0,0,1-.453.654c-.066.085-.119.159-.175.236-.285.391-.441.687-.35,1a.76.76,0,0,0,.242.3c.029.026.061.061.091.09a1.688,1.688,0,0,1,.336.42,2.676,2.676,0,0,1,.265,1c0,.043.01.088.014.13.015.141.03.281.056.415l.046.237a9.419,9.419,0,0,1,.211,1.452c0,.057,0,.117,0,.175s0,.112-.009.168a4.518,4.518,0,0,1-.233,1.319c-.08.239-.071.356-.054.385.066.115.572.22.907.288.179.037.3.055.409.072a2.024,2.024,0,0,1,1.5.755c.279.366.622.911.4,1.4a.781.781,0,0,1-.318.352c.217.123.455.242.688.359a10.258,10.258,0,0,1,1.044.577,53.059,53.059,0,0,1,5.1,4.014l.721.616c.384.327.766.641,1.143.951a23.94,23.94,0,0,1,3.807,3.637,10.259,10.259,0,0,0,2.211,1.889,9.7,9.7,0,0,1,2.6,2.349,42.509,42.509,0,0,0,4,4.825l1.074,1.18c.682.755,1.388,1.536,2.112,2.265.109.11.265.288.448.5.364.418,1.332,1.528,1.679,1.584a2.033,2.033,0,0,0,.519-.994c.046-.144.093-.289.134-.467a1.946,1.946,0,0,0-.04-.881c-.04-.177-.089-.356-.144-.541a3.351,3.351,0,0,1-.183-1.835c0-.016.01-.026.015-.042a2.472,2.472,0,0,1,.125-.349,4.116,4.116,0,0,1,.189-.377,1.252,1.252,0,0,0,.219-.789c0-.037-.008-.075-.011-.112s-.009-.1-.016-.153a2.085,2.085,0,0,1,.029-.883.826.826,0,0,1,.03-.078c.008-.017.017-.034.025-.05a1.193,1.193,0,0,1,.119-.229A1.325,1.325,0,0,1,412.776,386.266Z" transform="translate(-380.756 -334.818)" fill="#b8b8b8"/>
</svg>
