<svg xmlns="http://www.w3.org/2000/svg" width="93.422" height="109.101" viewBox="0 0 93.422 109.101">
  <path id="Trazado_64" data-name="Trazado 64" d="M143.187,171.3c0,.019-.006.037-.011.056a4.423,4.423,0,0,0,0,2.277c.02.066.037.133.059.2.012.035.027.069.04.1a3.169,3.169,0,0,0,.407.762,2.412,2.412,0,0,0,.2.237,2.857,2.857,0,0,0,.761.325c.15.049.312.106.473.169.037.013.074.029.111.044l.1.04a2.151,2.151,0,0,1,.445.26,1.419,1.419,0,0,1,.128.1c.052-.067.1-.138.156-.212a2.654,2.654,0,0,1,1.2-1.045l.013-.006a3.593,3.593,0,0,1,.451-.137q.114-.027.225-.045l.034,0a2.548,2.548,0,0,1,.379-.041,1.79,1.79,0,0,1,1.441.672,4.16,4.16,0,0,1,.432.653c.172.306.194.345.834.368l.249.006c.086,0,.175,0,.266.007a2.022,2.022,0,0,1,1.778.847,2.889,2.889,0,0,1,.4,1.089c.018.087.034.175.05.259a3.733,3.733,0,0,0,.18.737,4.452,4.452,0,0,0,.595.995c.186.246.388.489.6.738.172.2.343.405.5.61a7.481,7.481,0,0,1,1.205,4.155c.035.4.069.786.121,1.163.046.326.073.664.1,1,.021.249.043.489.07.724,0,.02,0,.042.006.063.027.225.058.444.1.655a1.907,1.907,0,0,0,.09.307.506.506,0,0,0,.323.315,3.912,3.912,0,0,0,.608.137l.192.034c.508.1,1.014.2,1.519.313.3.066.606.127.909.189.145.03.29.063.436.091.187.036.4.059.628.084a3.945,3.945,0,0,1,2.047.608,2.823,2.823,0,0,1,.894,1.833c.034.171.067.342.112.506a4.773,4.773,0,0,0,1.207,2.053,11.317,11.317,0,0,1,2.546,4.327c.018-.005.042,0,.061-.007a7.314,7.314,0,0,1,1.71-.081c.218.008.411.013.55.008.26-.012.536-.01.816-.006a5.123,5.123,0,0,0,1.891-.2,4.554,4.554,0,0,0,1.245-.879c.2-.18.392-.364.577-.544l.379-.364a2.325,2.325,0,0,0,.853-1.551,5.456,5.456,0,0,0,.04-.656c0-.17-.015-.365-.032-.572a3.04,3.04,0,0,1,.386-2.24,3.085,3.085,0,0,1,1.051-.72c.107-.052.2-.1.293-.157a1.561,1.561,0,0,0,.562-.44,1.375,1.375,0,0,0,.235-1.227,5.413,5.413,0,0,0-.535-1.184,5.553,5.553,0,0,1-.705-1.726,2.475,2.475,0,0,1-.032-.625.506.506,0,0,1,.533-.461c1.2.085,2.507.173,3.089-.78a1.558,1.558,0,0,0,.163-.791,3.859,3.859,0,0,1,.08-.727,3.151,3.151,0,0,1,.347-.819,2.442,2.442,0,0,0,.243-.537,6.393,6.393,0,0,0,.066-.673c.1-1.381.22-2.374.9-2.573a.741.741,0,0,1,.321-.022.839.839,0,0,1,.283.1c.092-.142.19-.273.284-.4s.19-.251.263-.37a1.153,1.153,0,0,0,.157-.359.5.5,0,0,1,.781-.3l2.107,1.519.527.38c.157.114.334.27.522.437a3.421,3.421,0,0,0,1,.7.472.472,0,0,0,.111.032.626.626,0,0,0,.225-.1l.016-.008a1.46,1.46,0,0,1,.873-.24,2.059,2.059,0,0,1,.723.212,1.971,1.971,0,0,1,.434.259c.026.018.056.036.08.055.041.032.066.067.1.1a5.242,5.242,0,0,1,.777.852,3.389,3.389,0,0,0,.71.76,2.209,2.209,0,0,0,.3.187c.471.247.934.5,1.4.747.236.126.474.249.71.379.546.3.659.235,1.394-.194.157-.091.291-.187.435-.288a3.144,3.144,0,0,1,1.393-.681,1.087,1.087,0,0,1,.142.011,1.228,1.228,0,0,1,.394.064,1.732,1.732,0,0,1,.733.589,2.1,2.1,0,0,0,.3.314.437.437,0,0,0,.03.032c.016.012.034.015.05.027a1.544,1.544,0,0,0,.322.171,1,1,0,0,0,.447.083,2.07,2.07,0,0,0,.234-.14c.056-.035.112-.065.167-.1a.853.853,0,0,1,.391-.136,1.132,1.132,0,0,1,.755.252c.02.014.04.026.06.038s.019.014.029.019l.01-.012a.847.847,0,0,1,.5-.344,1.322,1.322,0,0,1,.285-.031l.016,0a1.265,1.265,0,0,1,.236-.005.1.1,0,0,0,.018,0,1.063,1.063,0,0,1,.266.08,1,1,0,0,1,.437.544c.057.137.084.193.149.236a.233.233,0,0,0,.191.019c.058-.012.128-.03.236-.062a1.64,1.64,0,0,1,1.242,0,2.854,2.854,0,0,1,.913.756l.156.178c.568.665.76.808,1.2.549a2.042,2.042,0,0,0,.592-.625c.115-.17.227-.349.336-.531.132-.222.262-.438.4-.626.2-.277.4-.551.6-.826.39-.526.78-1.053,1.142-1.6.2-.3.386-.573.576-.841a4.36,4.36,0,0,1,4.022-2.275c.279,0,.567.039.851.06a17.708,17.708,0,0,1,3.283.575,22.084,22.084,0,0,1,2.289.741c.022.009.044.015.067.023-.011-.052-.024-.1-.035-.158-.692-3.382-1.615-6.761-2.513-10.039-.447-1.633-.894-3.265-1.315-4.9-.005-.017-.012-.038-.017-.056-.113-.427-.283-.915-.465-1.435a14.7,14.7,0,0,1-.849-3.15,4.1,4.1,0,0,1,.127-1.694c.011-.034.026-.067.038-.1a9.672,9.672,0,0,1,1.033-1.977c.187-.3.374-.594.538-.9.4-.73.781-1.471,1.163-2.212.226-.439.452-.879.682-1.316.811-1.545,1.6-3.1,2.4-4.652.275-.536.554-1.068.828-1.6,1.111-2.169,2.223-4.338,3.357-6.495l.027-.052a.889.889,0,0,1-.069-.138,1.7,1.7,0,0,1-.226-.1.949.949,0,0,1-.469.131,1.035,1.035,0,0,1-.52-.172,2.776,2.776,0,0,1-.442-.362,1.639,1.639,0,0,0-.2-.175,7.1,7.1,0,0,1-.893-.746c-.044-.041-.087-.078-.13-.118a4.834,4.834,0,0,0-.662-.541,3.419,3.419,0,0,0-1.236-.38c-.036-.007-.067-.015-.1-.021-.183-.032-.368-.068-.552-.108a3.891,3.891,0,0,1-1.119-.395,2.874,2.874,0,0,1-1.037-.82.835.835,0,0,1-.1-.586c0-.007,0-.017,0-.024a1.139,1.139,0,0,0-.237-.048c-.091-.011-.187-.016-.28-.022-.109-.006-.215-.012-.314-.024-.064-.008-.126-.019-.189-.028a5.053,5.053,0,0,1-1.065-.259c-.093-.034-.188-.074-.284-.116s-.215-.092-.329-.152l-.064-.033c-.185-.1-.378-.194-.581-.295-.562-.283-1.163-.593-1.719-.935a7.251,7.251,0,0,1-1.051-.757,5.4,5.4,0,0,1-.621-.7,2.519,2.519,0,0,0-.889-.824c-.025-.011-.047-.027-.073-.037l-.01-.005h-.005a2.061,2.061,0,0,0-.544-.081,2.954,2.954,0,0,1-.81-.134,4.313,4.313,0,0,1-1.482-.986,8.615,8.615,0,0,1-1.728-2.444,17.168,17.168,0,0,1-1.089-2.91c-.019-.069-.042-.143-.06-.209a20.422,20.422,0,0,1-.49-2.6,11.332,11.332,0,0,0-1.029-3.813c-.055-.105-.092-.212-.154-.317a17.165,17.165,0,0,0-1.336-1.857c-.305-.385-.609-.772-.9-1.175a4.051,4.051,0,0,1-.417-.783c-.076-.182-.148-.365-.215-.545a4.064,4.064,0,0,0-.6-1.191,1.607,1.607,0,0,0-.207-.222,1.239,1.239,0,0,0-.232-.122,1.638,1.638,0,0,1-.533-.333,1.6,1.6,0,0,1-.325-.545,1.04,1.04,0,0,0-.1-.212.692.692,0,0,0-.058-.049.772.772,0,0,0-.234-.134c-.073-.03-.152-.064-.242-.108-.043-.021-.075-.049-.116-.072a5.631,5.631,0,0,1-.917-.653c-.162-.136-.327-.275-.512-.408-.1-.073-.21-.158-.322-.246a3.86,3.86,0,0,0-.606-.421,1.471,1.471,0,0,0-.551-.1l-.21-.019a2.428,2.428,0,0,1-.469-.085c-.094-.028-.173-.074-.262-.109a6.122,6.122,0,0,1-1.988-1.4l-.042-.039c-.21-.2-.451-.384-.686-.569-.117-.092-.22-.189-.342-.283a12.238,12.238,0,0,1-1.242-1.05,5.625,5.625,0,0,1-.679-.861c-.02-.03-.045-.064-.064-.093a5.429,5.429,0,0,0-.487-.646,2.548,2.548,0,0,0-.486-.421c-.221-.145-.437-.279-.647-.41a11.334,11.334,0,0,1-1.5-1.053,6.194,6.194,0,0,1-.6-.591c-.326-.371-.628-.7-.921-1a18.073,18.073,0,0,0-1.319-1.255c-.049-.041-.107-.065-.159-.1a3.583,3.583,0,0,0-.728-.391c-.089-.037-.173-.077-.265-.113a4.467,4.467,0,0,1-1.59-.913,32.093,32.093,0,0,1-2.294-2.39,8.008,8.008,0,0,1-.771-1.173c-.1-.167-.2-.321-.293-.478l-.015-.025c-.058-.1-.12-.186-.181-.276a3.008,3.008,0,0,0-.461-.536c-.014-.013-.028-.023-.042-.035a2.44,2.44,0,0,0-.625-.342,10.633,10.633,0,0,0-1.041-.337c-.229-.064-.449-.126-.647-.192a4.754,4.754,0,0,0-1.769-.118c-.153.011-.306.022-.459.035-.324.027-.642.053-.944.06-1.138.027-2.276.035-3.415.042l-.877.006c-2.019.015-4.041.062-6.066.109-3.7.085-7.532.175-11.292.061-.051,0-.116-.009-.176-.015-.141-.013-.3-.031-.472-.055a3.546,3.546,0,0,0-1.259-.041c-.186.125-.06.9-.006,1.226.029.178.055.343.067.481l.046.465.008.079a20.129,20.129,0,0,1,.128,2.026,6.036,6.036,0,0,1-.439,2.491,2.58,2.58,0,0,1-1.362,1.352,4.082,4.082,0,0,1-1.508.242c-.467,0-.95-.027-1.406-.059-.378-.028-.735-.048-1.027-.05-.474,0-.962-.009-1.454-.024a17.977,17.977,0,0,0-2.766.056.76.76,0,0,0-.082.02c-.372.069-.459.238-.682.879l-.1.272a3.181,3.181,0,0,0-.176.615,1.164,1.164,0,0,0,.062.148,1.825,1.825,0,0,0,.4-.441h0c.009-.012.024-.014.033-.025a.492.492,0,0,1,.5-.17.478.478,0,0,1,.276.212.485.485,0,0,1,.1.219v0l.145,1.378q.218,2.07.442,4.14c.05.463.07.964.089,1.476.008.2.017.4.027.6.063.541.116,1.085.2,1.615l.009.044a2.3,2.3,0,0,0,.343.846c.054.063.1.123.173.194a4.347,4.347,0,0,1,.421.486,4.87,4.87,0,0,1,.7,1.955c.017.085.028.163.044.247.036.2.076.393.1.59.067.4.128.8.185,1.188.105.724.218,1.469.375,2.193.062.274.119.549.184.822.023.1.045.2.068.3.071.307.142.615.209.926.047.213.085.426.127.641.058.3.107.605.152.909.018.125.047.246.062.371.007.053.005.1.011.156a12.077,12.077,0,0,1,.086,1.373,27.16,27.16,0,0,1-.256,3.185c-.075.627-.151,1.254-.2,1.881-.037.491-.037,1.009-.038,1.532a16.549,16.549,0,0,1-.1,2.175,1.875,1.875,0,0,1-.154.73,1.258,1.258,0,0,1-1.538.756h-.011c.021.277.051.555.077.832s.047.546.076.819c.09.824.2,1.649.321,2.471s.244,1.622.369,2.422c.047.3.092.6.139.9l.22,1.378c.017.114.041.233.064.354a3.349,3.349,0,0,1,.029,1.712,1.586,1.586,0,0,1-.418.628l-.019.03a2.26,2.26,0,0,0-.272.461,4.328,4.328,0,0,0,.462,2.4c.119.322.23.622.3.882s.2.584.338.944a6.186,6.186,0,0,1,.668,3.145,2.02,2.02,0,0,1-.544.939,1.965,1.965,0,0,1-2.059.555l-.031-.008a2.864,2.864,0,0,1-.383-.1c-.037-.015-.072-.036-.109-.052-.01,0-.02,0-.029-.009-.135-.061-.273-.132-.41-.2-.189-.092-.381-.174-.568-.271-.171-.088-.339-.174-.506-.256a4.9,4.9,0,0,0-1.492-.468,2.251,2.251,0,0,0-.737.167,3.267,3.267,0,0,1-.772.2,1.082,1.082,0,0,1-.552-.032c-.07.085-.144.173-.219.262-.4.477-.859,1.018-.764,1.42a.907.907,0,0,0,.065.157c.137.236.373.554.5.718.135.181.253.341.321.454l.148.245.008.014.31.515c.3.508.609,1.017.928,1.516.1.159.209.317.317.476a7.885,7.885,0,0,1,.887,1.547c.05.127.091.24.128.343a2.853,2.853,0,0,0,.175.418,1.511,1.511,0,0,0,.31.282c.1.078.2.148.3.215a3.089,3.089,0,0,1,1.013.994c.008.014.011.03.019.045.025.038.054.07.077.11a3.357,3.357,0,0,1,.338,1.027,4.276,4.276,0,0,0,.11.446,1.39,1.39,0,0,0,.063.135,1.119,1.119,0,0,0,.077.135,2.679,2.679,0,0,0,.751.638,2.05,2.05,0,0,1,1.162,2.009,8.126,8.126,0,0,0,.08,1.235c.015.077.025.149.042.231.033.164.069.336.1.521a2.831,2.831,0,0,1-.168,1.481C143.2,171.245,143.2,171.278,143.187,171.3Z" transform="translate(-135.141 -90.831)" fill="#b8b8b8"/>
</svg>
