<svg xmlns="http://www.w3.org/2000/svg" width="66.005" height="93.361" viewBox="0 0 66.005 93.361">
  <path id="Trazado_62" data-name="Trazado 62" d="M260.923,127.953l-.005-.016,0-.007-.007-.021h0a1.41,1.41,0,0,1-.335-.218l-.1-.082-.088-.077c-.09-.076-.179-.152-.269-.234-.069-.063-.133-.135-.2-.2s-.12-.116-.175-.182a2.59,2.59,0,0,1-.315-.466c-.014-.027-.019-.061-.032-.089a2.145,2.145,0,0,1-.163-.448,1.478,1.478,0,0,1-.8-.138h0l-.007,0a.905.905,0,0,1-.93.137.558.558,0,0,1-.223-.183.664.664,0,0,1-.079-.114l-.031.009-.032.008a6.656,6.656,0,0,1-1.738.213,15.348,15.348,0,0,1-1.542-.26l-.08-.015c-.18-.037-.358-.073-.535-.106a.5.5,0,0,1-.247-.123.869.869,0,0,1-.4.1,2.731,2.731,0,0,0-.282.018l-.037,0a2.955,2.955,0,0,1-.649.01,2.665,2.665,0,0,1-.686-.208c-.066-.027-.131-.053-.195-.076-.012,0-.025-.011-.037-.014a.7.7,0,0,0-.194-.045l0,0c.01.006-.052.037-.1.058a1.486,1.486,0,0,1-.392.146c-.059.011-.117.01-.176.018a6.51,6.51,0,0,1-3.648-.842c-.169-.086-.331-.171-.483-.254l-.055-.03c-.29-.161-.446-.193-.552-.163a.335.335,0,0,0-.178.137c-.01.013-.02.023-.03.037a1.345,1.345,0,0,0-.138.469,3.265,3.265,0,0,1-.146.538,1.4,1.4,0,0,1-.064.142h0a1.146,1.146,0,0,1-.587.586,2.106,2.106,0,0,1-1.271.035,2.448,2.448,0,0,0-.555-.065,1.01,1.01,0,0,1-.492.388.9.9,0,0,1-.646-.059l-.258.061-.4.094a2,2,0,0,0-.873.327,4.366,4.366,0,0,0-.573,1.088,7.054,7.054,0,0,1-.385.814,9.483,9.483,0,0,0-.967,1.93,2.579,2.579,0,0,0-.083.526c-.007.094-.015.185-.022.284a2.852,2.852,0,0,1-.506,1.757,2.418,2.418,0,0,1-.56.489c-.085.064-.131.142-.194.508l-.018.1a8.605,8.605,0,0,1-.2.9,2.053,2.053,0,0,1-.748,1.21l0,0-.005,0a.549.549,0,0,1-.115.055l-.037.018a1.8,1.8,0,0,1-.51.211l-.026,0c-.015.041-.028.08-.043.122s-.032.089-.043.124a1.877,1.877,0,0,1-.483.876,2.343,2.343,0,0,1-.59.368l-.051.025a.87.87,0,0,0-.109.064.916.916,0,0,0-.234.266,2.072,2.072,0,0,0-.153.439,2.221,2.221,0,0,1-.436.946c-.515.553-1.329.378-1.923.252-.044-.01-.076-.013-.117-.022-.094-.02-.191-.042-.266-.05-.028,0-.051,0-.077,0a.834.834,0,0,0-.636.211q-1.663,3.169-3.29,6.359c-.277.54-.558,1.078-.836,1.618q-.705,1.377-1.4,2.762c-1.243,2.464-2.528,5.012-3.9,7.455-.076.133-.165.271-.257.412-.079.121-.158.244-.227.366a3.085,3.085,0,0,0-.087,1.209c.063.2.139.4.214.6.1.25.187.49.245.7.292,1.06.559,2.127.83,3.193.005.021.014.045.019.066.42,1.631.866,3.258,1.311,4.886.938,3.423,1.9,6.957,2.6,10.5a5.169,5.169,0,0,0,.394.792,6.137,6.137,0,0,0,.992,1.208c.407.393.849.763,1.293,1.135.253.213.508.43.761.652s.527.478.779.731c.016.016.032.033.049.049.1.1.2.206.3.314a5.726,5.726,0,0,1,.453.542c.008.011.018.02.026.031a4.508,4.508,0,0,1,.331.518c.025.045.05.09.073.135.675,1.331.3,2.514-.126,3.853a5.525,5.525,0,0,0-.239,1.864,16.467,16.467,0,0,0,.159,1.7c.073.565.148,1.149.173,1.758.007.165,0,.318-.009.473a5.517,5.517,0,0,1-1.124,3.073c-.231.324-.483.635-.742.944a2.462,2.462,0,0,0-.826,1.615,1.423,1.423,0,0,0,.481.807,2.477,2.477,0,0,1,.675,1.1,1.182,1.182,0,0,1-.276,1.235,1.949,1.949,0,0,1-.4.274.862.862,0,0,0-.305.223.657.657,0,0,0-.058.1.275.275,0,0,0-.012.03c.013-.035.133.06.214.121a3.412,3.412,0,0,1,.393.34c.01.011.022.017.032.027v0a4.683,4.683,0,0,1,.587.837,2.784,2.784,0,0,0,.644.827l.013.014a3.987,3.987,0,0,0,.426.265c.059.033.11.071.169.1a3.247,3.247,0,0,1,1.347,1.137,2.687,2.687,0,0,1,.258,1.563v.031a1.589,1.589,0,0,0,.187,1.088,1.536,1.536,0,0,0,.359.342,3.586,3.586,0,0,0,1.126.485l.3.083.037.011a12.992,12.992,0,0,1,3.577,1.371c0-.017,0-.034-.006-.051a2.639,2.639,0,0,1-.006-1.01,2.916,2.916,0,0,1,.74-1.283c.077-.087.155-.173.23-.255.137-.149.273-.295.388-.445a6.652,6.652,0,0,0,1.018-1.651c.025-.066.058-.132.077-.2a2.231,2.231,0,0,0,.058-.322,1.249,1.249,0,0,1,.563-1.015,5.2,5.2,0,0,1,2.651-.385,9.1,9.1,0,0,0,1.2-.035l.047-.005a10.241,10.241,0,0,1,5.434.486l.233.077.213.071c.368.128.756.237,1.145.347,1.428.4,3.045.86,3.911,2.322a3.258,3.258,0,0,0,.344.489,1.824,1.824,0,0,0,.846.526c.121.042.238.084.393.129l.275.075c.512.133,1.213.314,1.3,1.213a1.637,1.637,0,0,1,0,.173,2.786,2.786,0,0,1-.063.565,1.313,1.313,0,0,0-.038.24s.014.03.189.111a2.458,2.458,0,0,0,1.956-.472,2.9,2.9,0,0,0,.34-.274c.043-.039.1-.083.149-.128a1,1,0,0,1,1.319-.132.533.533,0,0,1,.191.26c0,.011.012.021.015.032a1.526,1.526,0,0,1,.236-.117c.046-.017.09-.024.135-.038a1.952,1.952,0,0,1,.561-.1c1.158,0,1.981,1.145,2.609,2.019l.013.018a8.3,8.3,0,0,0,.728.922c.139.142.324.329.53.505a1.587,1.587,0,0,0,1.154.516.948.948,0,0,0,.225-.141,1.857,1.857,0,0,1,.452-.263,1.082,1.082,0,0,1,.17-.046l.018,0a.972.972,0,0,1,.122-.021.937.937,0,0,1,.1.015,1.24,1.24,0,0,1,.337.05c.023.007.048.011.07.02a1.285,1.285,0,0,1,.281.163c.015.011.035.017.049.028,0-.011,0-.023.006-.034a3.764,3.764,0,0,0,.094-1.1c-.013-.327-.049-.662-.088-1.005a7.643,7.643,0,0,1-.042-2.089,3.581,3.581,0,0,1,.161-.645,1.657,1.657,0,0,1,1.089-.921h0c-.17-.125-.381-.262-.5-.338a4.154,4.154,0,0,1-.45-.317,2.02,2.02,0,0,1-.3-.359c-.005-.007-.015-.011-.019-.018a2.057,2.057,0,0,1-.147-.256,2.123,2.123,0,0,1-.134-.276l-.007-.027a2.062,2.062,0,0,1-.046-1.064,2.931,2.931,0,0,1,.368-.906,4.277,4.277,0,0,1,1.95-1.663c.061-.024.122-.055.182-.075a6.988,6.988,0,0,1,2.92-.395l.04,0c.083.011.164.028.246.042a3.793,3.793,0,0,1,1.965.889,3.225,3.225,0,0,1,1.445-.671.765.765,0,0,1-.057-.242v0a.693.693,0,0,1,.031-.18.66.66,0,0,1,.027-.146.813.813,0,0,1,.207-.282.645.645,0,0,1,.1-.075h-.006a16.291,16.291,0,0,0-1.947-.151,3.217,3.217,0,0,1-1.221-.139,2.647,2.647,0,0,1-.669-.549c-.042-.043-.082-.081-.122-.121a1.655,1.655,0,0,0-.288-.244l-.009-.005-.218-.125a2.62,2.62,0,0,1-.752-.582c-.083-.088-.152-.166-.216-.239l-.077-.087a1.171,1.171,0,0,0-.41-.317,1.488,1.488,0,0,0-.3-.077,1.563,1.563,0,0,1-.923-.421,1.14,1.14,0,0,1-.309-1.1c.01-.031.011-.065.024-.1a1,1,0,0,1,.879-.564,1.376,1.376,0,0,1-.046-.307l0-.01c0-.038-.007-.089-.011-.106-.035-.006-.141,0-.21,0a1.689,1.689,0,0,1-.689-.107l-.009,0-.037-.022a1.127,1.127,0,0,1-.216-.13,5.765,5.765,0,0,1-1.108-1.4c-.07-.113-.142-.227-.207-.334l-.034-.055-.15-.243a2.765,2.765,0,0,1-.435-1.543c0-.2.006-.393.018-.585a6.341,6.341,0,0,0,.018-.79.858.858,0,0,0-.114-.462,1.173,1.173,0,0,0-.3-.264,4.145,4.145,0,0,1-.529-.426,1.988,1.988,0,0,1-.552-1.507c-.005-.1-.014-.2-.024-.295a1.2,1.2,0,0,0-.133-.492,2.171,2.171,0,0,0-.718-.76,1.605,1.605,0,0,0-.182,0h-.057a1.094,1.094,0,0,1-.591-.1,5.241,5.241,0,0,1-1.423-1.709c-.166-.264-.319-.506-.462-.69-.012-.016-.026-.039-.038-.054-.072-.09-.165-.189-.264-.294-.46-.5-1.091-1.174-.834-1.935.2-.58.932-1.1,1.58-1.551.217-.152.414-.289.542-.4l.233-.2c.091-.079.183-.162.274-.242.649-.568,1.308-1.15,1.928-1.756.1-.1.224-.229.355-.369a9.415,9.415,0,0,1,1.233-1.158,2.281,2.281,0,0,1,.873-.423,1.1,1.1,0,0,1,1.236.745,1.659,1.659,0,0,0,.21.331c.133.142.2.16.209.161s.023-.018.056-.049a1.794,1.794,0,0,0,.353-.577l.01-.019a10,10,0,0,1,.793-1.374l.1-.154a4.734,4.734,0,0,0,.82-1.786,5.279,5.279,0,0,0,.059-.975,2.56,2.56,0,0,0-.47-1.6.817.817,0,0,0-.751-.233h-.01c-.056.007-.092.042-.217.26a1.11,1.11,0,0,1-1.019.69.949.949,0,0,1-.45-.153,3.366,3.366,0,0,1-.364-.274c-.036-.03-.081-.068-.127-.1a.483.483,0,0,1-.166.187c-.013.009-.019.025-.033.034a.487.487,0,0,1-.288.071.5.5,0,0,1-.464-.438h0c-.037-.3-.1-.619-.17-.947a8.771,8.771,0,0,1-.234-1.856,2.392,2.392,0,0,1,.8-1.891c.2-.168.4-.36.62-.561l.1-.095a6.044,6.044,0,0,1,3.1-1.876,3.577,3.577,0,0,1,.823.024h0c.443.046.724.064.92-.085a.723.723,0,0,0,.173-.25,4.417,4.417,0,0,0,.241-.669l.059-.2c.118-.378.212-.776.307-1.178a9.116,9.116,0,0,1,.945-2.687,6.706,6.706,0,0,1,1.495-1.58,1.964,1.964,0,0,1,1.252-.457c.007,0,.014,0,.02,0a4.031,4.031,0,0,1,2.192,1.555,7.249,7.249,0,0,0,.687.692c.426.345.6.271,1.3-.529a4.433,4.433,0,0,1,1.093-.988q-.309-.3-.625-.625a.5.5,0,0,1-.139-.282.926.926,0,0,1-.409-.488,1.043,1.043,0,0,1-.054-.376,1.562,1.562,0,0,1,.048-.3.708.708,0,0,0,.021-.109,1.229,1.229,0,0,0-.271-.279,2.808,2.808,0,0,1-.376-.385,1.27,1.27,0,0,1-.11-.141.551.551,0,0,1-.02-.052,1.022,1.022,0,0,1-.109-.422l-.109-.026a1.229,1.229,0,0,1-.337-.064,1.036,1.036,0,0,1-.648-.713v0a1.873,1.873,0,0,1-.1-.478.5.5,0,0,0-.076-.278,1.719,1.719,0,0,0-.183-.2c-.059-.06-.116-.14-.177-.209a1.759,1.759,0,0,1-.187-.221,2.733,2.733,0,0,1-.2-.383.607.607,0,0,0-.251-.34,1.318,1.318,0,0,0-.344-.131,2.3,2.3,0,0,1-.524-.2,2.871,2.871,0,0,1-.45-.312,3.639,3.639,0,0,1-.476-.5l-.431-.51a10.74,10.74,0,0,1-1.336-1.789,7.92,7.92,0,0,1-.433-.9c-.035-.085-.066-.163-.1-.246-.1-.258-.194-.515-.269-.747-.158-.484-.255-.781-.005-1.109a1.582,1.582,0,0,1-.649-.5l-.008-.008c-.007-.01-.006-.021-.012-.03a1.515,1.515,0,0,1-.17-.708c0-.035,0-.079-.008-.119-.029-.009-.056-.025-.085-.035a.8.8,0,0,1-.43-.3c-.009-.013-.023-.017-.032-.032l-.26-.447c-.011-.018-.022-.04-.033-.057-.072-.123-.146-.262-.221-.391a9.516,9.516,0,0,1-.828-1.747c-.023-.067-.055-.13-.079-.2a25.155,25.155,0,0,0-1.135-2.594c-.038-.077-.073-.155-.111-.233-.2-.4-.395-.809-.579-1.222a5.6,5.6,0,0,1-.252-.775,3,3,0,0,0-.311-.847,2.152,2.152,0,0,0-.579-.477c-.074-.048-.152-.105-.23-.158a2.784,2.784,0,0,1-.5-.425,2.023,2.023,0,0,1-.215-.293,2.953,2.953,0,0,1-.3-.736,1.97,1.97,0,0,0-.236-.568,2.9,2.9,0,0,0-.894-.671h0c-.177-.1-.349-.2-.5-.308a7.831,7.831,0,0,0-.792-.454,7.134,7.134,0,0,1-1.082-.655,1.757,1.757,0,0,1-.646-1.16c-.007-.033-.013-.051-.02-.08a.818.818,0,0,0-.171-.411.364.364,0,0,0-.1-.057,1.332,1.332,0,0,0-.411-.112,2.48,2.48,0,0,1-.676-.174,6.972,6.972,0,0,1-1.108-.713,3.633,3.633,0,0,1-.293-.247,1.886,1.886,0,0,0-.211-.184.735.735,0,0,1-.253-.445,1.568,1.568,0,0,0-.049-.263.829.829,0,0,1-.022-.256l-.005,0-.041.036a2.392,2.392,0,0,1-.265.232,1.09,1.09,0,0,1-.217.1.831.831,0,0,1-.153.074h-.009a.575.575,0,0,1-.117,0,.659.659,0,0,1-.089,0,.457.457,0,0,1-.1-.041.509.509,0,0,1-.084-.034l0,0a.489.489,0,0,1-.086-.09.585.585,0,0,1-.054-.058.5.5,0,0,1-.056-.155c0-.013-.012-.024-.014-.038v-.009a1.957,1.957,0,0,1,.025-.542A1.191,1.191,0,0,0,260.923,127.953Z" transform="translate(-219.338 -124.055)" fill="#b8b8b8"/>
</svg>
