<svg xmlns="http://www.w3.org/2000/svg" width="16.875" height="13.378" viewBox="0 0 16.875 13.378">
  <path id="Trazado_43" data-name="Trazado 43" d="M225.362,320.528c.054-.161.115-.34.209-.552a.672.672,0,0,1,.287-.682.567.567,0,0,1,.516-.089,1.1,1.1,0,0,1,.206.077,2.911,2.911,0,0,0,.345-.258.617.617,0,0,1,.094-.355.629.629,0,0,1,.4-.279l.067-.122a1.623,1.623,0,0,0,.119-.228c0-.006,0-.013,0-.019a.731.731,0,0,0-.051-.3c-.014-.033-.027-.067-.042-.1-.041-.1-.087-.2-.154-.324a3.532,3.532,0,0,1-.3-.686,2.1,2.1,0,0,1-.072-.676c0-.047-.009-.091-.005-.138a2.445,2.445,0,0,1,.078-.431c.031-.129.065-.254.1-.374a4.713,4.713,0,0,0,.142-.59c.006-.042.009-.09.015-.134a4.271,4.271,0,0,0-.045-.495,3.515,3.515,0,0,1-.035-1.042c.07-.467.1-.672-.014-.909a3.367,3.367,0,0,0-.312-.436c-.051-.062-.115-.123-.17-.185-.253-.282-.523-.546-.816-.821-.164-.155-.329-.309-.49-.468a4.688,4.688,0,0,1-.928.674,5.036,5.036,0,0,1-1.284.583,4.02,4.02,0,0,1-3.084-.889l-.184-.114c-.155-.095-.316-.213-.483-.335-.543-.4-.922-.645-1.217-.484l-.018.011a1.674,1.674,0,0,0-.247.251c-.023.034-.038.059-.052.083a1.25,1.25,0,0,0,.052.369,1.814,1.814,0,0,1-.057,1.3c-.337.681-1.276,1.025-2.041,1.3-.284.132-.577.259-.874.382l-.36.151a3.859,3.859,0,0,1-1.373.342.727.727,0,0,1-.438-.156c-.019.036-.042.087-.072.154a1.148,1.148,0,0,1-.687.731.81.81,0,0,1-.792-.264l-.041-.035-.031.084c-.006.031-.011.064-.017.09a1.868,1.868,0,0,1-.181.511,1.284,1.284,0,0,1-.293.35,1.88,1.88,0,0,0,.539.119,2.889,2.889,0,0,1,.683.147c.214.085.367.156.49.213a1.181,1.181,0,0,0,.795.121c.074-.005.149-.017.223-.028a3.745,3.745,0,0,1,.4-.04.507.507,0,0,1,.343.127.42.42,0,0,1,.122-.02h.011a.791.791,0,0,1,.672.34,1.154,1.154,0,0,1-.045,1.071,1.954,1.954,0,0,0-.081.233c.038.137.786.346,1.067.425.149.041.285.08.394.118l.693.237a12.041,12.041,0,0,1,4.069,1.987,9.126,9.126,0,0,1,.726.75,9.647,9.647,0,0,0,2.052,1.839.51.51,0,0,0,.1.033c.083-.027.213-.312.3-.5.031-.068.071-.139.1-.209a1.843,1.843,0,0,1,.457-.646A1.373,1.373,0,0,0,225.362,320.528Z" transform="translate(-210.73 -309.297)" fill="#b8b8b8"/>
</svg>
