<svg xmlns="http://www.w3.org/2000/svg" width="5.543" height="6.845" viewBox="0 0 5.543 6.845">
  <path id="Trazado_31" data-name="Trazado 31" d="M300.762,312.6a1.675,1.675,0,0,0-.425-1.277c-.045-.061-.093-.119-.14-.178a2.361,2.361,0,0,1-.429-.686,2.488,2.488,0,0,1-.12-.841,1.473,1.473,0,0,0-.066-.481c-.058-.045-.128-.091-.2-.136a2.022,2.022,0,0,1-.6-.525l-.017-.026a.928.928,0,0,1-.12.222,1.694,1.694,0,0,1-.445.37,3.683,3.683,0,0,0-.314.427,3.28,3.28,0,0,1-.565.713,1.31,1.31,0,0,1-.669.3,3.227,3.227,0,0,1-.537.114,1.345,1.345,0,0,0-.328.063.621.621,0,0,0-.162.18.612.612,0,0,0-.037.107.968.968,0,0,0-.029.331,4.363,4.363,0,0,0,.464,1.19l.011.021a4.372,4.372,0,0,1,.577,1.547v0a.413.413,0,0,0,.022.05c-.014-.032.091-.033.216-.033h.042a1.239,1.239,0,0,1,.84.284,1.152,1.152,0,0,1,.2.2,2.211,2.211,0,0,0,.552.085c.1.007.2.016.3.028a2.134,2.134,0,0,1,.793.229c.04.022.071.043.108.065.088.052.176.1.252.153.325.21.386.245.631.144a1.161,1.161,0,0,0,.319-.186c.008-.007.017-.012.024-.018a1.5,1.5,0,0,1,.175-.5l.013-.024a3.71,3.71,0,0,0-.094-.642,1.908,1.908,0,0,1-.222-.731C300.769,312.935,300.766,312.759,300.762,312.6Z" transform="translate(-295.555 -308.453)" fill="#b8b8b8"/>
</svg>
