<svg xmlns="http://www.w3.org/2000/svg" width="74.107" height="77.754" viewBox="0 0 74.107 77.754">
  <path id="Trazado_41" data-name="Trazado 41" d="M206.9,252.061a2.407,2.407,0,0,1,.612.156,2.627,2.627,0,0,1,1.576,2.15,3.077,3.077,0,0,0,.467,1.178,2.633,2.633,0,0,0,.808.654,4.182,4.182,0,0,0,2.838-.278l.14-.044a.485.485,0,0,1,.15-.024c.009,0,.016.006.024.007a.477.477,0,0,1,.222.058.5.5,0,0,1,.24.318l.059.241.008.037.113.465a14.348,14.348,0,0,0,.325-1.456,35.917,35.917,0,0,0,.4-4.991c.027-.848.055-1.688.11-2.508.014-.209.024-.424.035-.643.018-.392.04-.8.084-1.211.027-.181.049-.362.081-.541.019-.111.041-.226.064-.341a4.131,4.131,0,0,1,.733-1.642c.073-.093.137-.178.2-.263a3.287,3.287,0,0,0,.839-2.113c0-.11.01-.221.01-.346l-.006-.443a6.556,6.556,0,0,1,.251-2.348l.027-.07c.034-.085.071-.168.113-.252a3.214,3.214,0,0,1,.205-.357c.017-.024.029-.049.047-.073s.012-.022.02-.033a2.7,2.7,0,0,1,.982-.8,3.129,3.129,0,0,0,.484-.309,1.1,1.1,0,0,0,.3-.439,3.492,3.492,0,0,1,.209-.378c.016-.025.024-.05.042-.075a2.216,2.216,0,0,1,1.178-.719,1.725,1.725,0,0,0,.568-.264c.025-.075.01-.124-.257-.385a2.422,2.422,0,0,1-.346-.4c0-.005-.009-.009-.013-.015l-.008-.016a3.376,3.376,0,0,1-.422-1.518,9.205,9.205,0,0,1,.1-2.064,10.485,10.485,0,0,0,.113-1.532v0c-.036-1.4.421-1.743,1.553-2.231.2-.088.467-.176.754-.271a4.136,4.136,0,0,0,1.614-.768c.075-.1.048-.28-.005-.566a1.65,1.65,0,0,1,.091-1.189,1.7,1.7,0,0,1,.67-.539c.149-.081.31-.165.5-.258.133-.066.249-.121.311-.16.612-.384,1.217-.786,1.806-1.2l.419-.3.006,0c.266-.195.536-.39.819-.569a4.086,4.086,0,0,1,2.2-.72,19.76,19.76,0,0,1,3.061.284,19.154,19.154,0,0,0,3.035.271c.115,0,.228-.009.34-.017a5.267,5.267,0,0,0,1.2-.205,4.453,4.453,0,0,1,1.7-.008c.6.067,1.344.152,1.582-.061v0a.282.282,0,0,0,.062-.107,6.447,6.447,0,0,0,.072-1.712,7.894,7.894,0,0,1-.011-.866l.055-.6a6.305,6.305,0,0,0-.162-3,9.775,9.775,0,0,0-.622-1.184c-.308-.511-.651-1.019-.992-1.518-.152-.223-.3-.443-.449-.663a9.124,9.124,0,0,1-1,1.514c-.132.171-.287.339-.444.509l-.149.165a3.573,3.573,0,0,0-.316,2.571l.039.347v.01a.5.5,0,0,1-.252.48c-.01.005-.013.017-.023.022a.494.494,0,0,1-.224.035c-.024,0-.048.015-.071.011a.493.493,0,0,1-.271-.131l-.018-.015a9.245,9.245,0,0,0-4.246-1.979,4.349,4.349,0,0,1-1.314-.412,2.645,2.645,0,0,1-.513-.355,2.451,2.451,0,0,1-.548-.534,2.422,2.422,0,0,1-.377-1.621,2.185,2.185,0,0,0-.686-1.643,5.484,5.484,0,0,0-.6-.385c-.155-.091-.317-.192-.478-.3-.014-.01-.033-.018-.047-.029l-.013-.011a2.79,2.79,0,0,1-.678-.655,4.037,4.037,0,0,1-.329-.57,2.348,2.348,0,0,0-.335-.538l-.011-.015a1.624,1.624,0,0,0-.183-.114,1.344,1.344,0,0,1-.6-.548.953.953,0,0,1,.128-1.2l0-.006a1.749,1.749,0,0,1,.639-.523,1.283,1.283,0,0,0,.156-.1c.1-.175.029-.306-.372-.717-.075-.077-.151-.155-.222-.233-1.46-1.613-.08-3.181.832-4.219q.18-.2.342-.4a4.533,4.533,0,0,0,.952-2.332,11.777,11.777,0,0,0-.157-2.189c-.07-.522-.142-1.061-.167-1.6,0-.094.005-.186.006-.279a6.475,6.475,0,0,1,.284-2.208c.406-1.27.689-2.159.164-3.158l-.018-.032a3.859,3.859,0,0,0-.289-.443c-.132-.175-.276-.344-.427-.51-.09-.094-.179-.19-.274-.282l-.019-.019c-.156-.15-.316-.3-.475-.445-.089-.082-.173-.163-.26-.244-.244-.213-.49-.424-.736-.63-.461-.387-.921-.773-1.344-1.181a7.2,7.2,0,0,1-1.083-1.3,1.821,1.821,0,0,0-.2-.2,21.955,21.955,0,0,0-3.011-1.051l-.193-.034-1.088-.2c-.552-.109-1.161-.226-1.767-.305-.292-.024-.589-.063-.875-.068a3.275,3.275,0,0,0-3.123,1.755c-.068.1-.135.208-.2.31-.167.26-.327.509-.484.726-.292.4-.569.843-.849,1.288a15.109,15.109,0,0,1-1.641,2.27,2.831,2.831,0,0,1-.848.837c-1.208.708-1.965-.176-2.466-.762l-.126-.144a1.884,1.884,0,0,0-.718-.487c-.1-.03-.1-.03-.2.022a1.175,1.175,0,0,1-.725.155,1.071,1.071,0,0,1-.322-.085,1.1,1.1,0,0,1-.44-.171,1.31,1.31,0,0,1-.48-.6,1.136,1.136,0,0,1-.86.305c-.022,0-.033-.008-.054-.01s-.017,0-.027,0a.759.759,0,0,1-.151-.036,2.26,2.26,0,0,1-.455-.139.386.386,0,0,0-.2-.045,1.582,1.582,0,0,1-.653.285,2,2,0,0,1-.928-.149c-.025-.009-.052-.02-.078-.032a2.475,2.475,0,0,1-.436-.241l-.026-.018c-.018-.013-.039-.018-.057-.032s-.026-.025-.041-.037a6.609,6.609,0,0,1-.838-.687c-.4.2-1.07.561-1.186.629l-.266.16a2.142,2.142,0,0,1-1.877.412,5.245,5.245,0,0,1-1.209-.63c-.459-.246-.916-.494-1.382-.738a3.159,3.159,0,0,1-.31-.194,3.645,3.645,0,0,1-1.052-.819,4.392,4.392,0,0,1-.389-.572,2.576,2.576,0,0,0-.28-.4l-.014-.011a1.71,1.71,0,0,0-.481-.252,1.1,1.1,0,0,0-.587.1c-.027.009-.057.018-.084.028a1.269,1.269,0,0,1-.541.157c-.044,0-.085-.018-.129-.021a1.406,1.406,0,0,1-.367-.038,4.178,4.178,0,0,1-1.491-1.041c-.186-.168-.351-.319-.474-.407l-1.928-1.391c-.1.164-.214.314-.321.455a2.021,2.021,0,0,0-.422.738.5.5,0,0,1-.89.2c-.031-.042-.059-.076-.084-.106a10.045,10.045,0,0,0-.192,1.535,5.306,5.306,0,0,1-.1.855,2.481,2.481,0,0,1-.184.475c-.049.1-.1.2-.15.29a2.325,2.325,0,0,0-.25.563,3.014,3.014,0,0,0-.055.544,2.454,2.454,0,0,1-.308,1.271c-.764,1.252-2.156,1.352-3.349,1.3-.028,0-.057,0-.085,0a4.405,4.405,0,0,0,.522,1.1,5.034,5.034,0,0,1,.674,1.535c.01.053.008.1.016.148a2.348,2.348,0,0,1-.4,1.975,2.444,2.444,0,0,1-.863.73c-.218.163-.446.318-.674.47-.517.345-.514.509-.5,1.2,0,.132,0,.275,0,.43a10.079,10.079,0,0,1-.09,1.509,3.317,3.317,0,0,1-1.162,2.153l-.366.352c-.183.178-.375.36-.572.541a4.133,4.133,0,0,1-2.2,1.328,14.234,14.234,0,0,1-2.122.082,15.5,15.5,0,0,0-1.753.044,2.8,2.8,0,0,0-.624.108c0,.013-.021.131-.028.491a16.955,16.955,0,0,1-.342,2.742c-.076.418-.152.839-.214,1.269-.339,2.368.672,4.6,1.735,6.691l.163.325c.066.137.137.271.208.406.149.215.3.425.46.62a2.876,2.876,0,0,0,.35.34c.046.039.094.087.142.129a1.79,1.79,0,0,1,.466.393,1.146,1.146,0,0,1,.2.558l.018.039h.158a1.441,1.441,0,0,1,.8.158,1.462,1.462,0,0,1,.276.217l.006,0,.008.007a.928.928,0,0,1,.294.376c.081.128.156.257.223.381v0c.091.118.185.238.223.289a8.122,8.122,0,0,0,.586.7l.124.12a7.986,7.986,0,0,1,1.577,1.824,6.047,6.047,0,0,1,.543,1.524c.089.294.171.589.248.88a3.5,3.5,0,0,0,.792,1.723l.042.034a1.34,1.34,0,0,0,.44.247,1.791,1.791,0,0,0,.29.059c.043.006.092.02.133.022a1.343,1.343,0,0,0,.183-.015,2.082,2.082,0,0,0,1.077-.752c.178-.183.361-.371.561-.545a1.9,1.9,0,0,1,2.8.054c.253.2.521.407.791.612l.041.032a12.414,12.414,0,0,1,1.607,1.335c.03.03.066.056.1.086s.049.062.075.09.061.059.088.09c.041.048.072.1.11.148a11.446,11.446,0,0,1,1.382,2.4c.091.195.18.386.268.567a4.33,4.33,0,0,1,.379,2.012c.027.361.038.721.046,1.078a7.682,7.682,0,0,0,.35,2.551c.024.063.046.128.072.189.111.262.239.522.369.781.171.319.351.622.531.908a9.261,9.261,0,0,1,.584,1.133l.014.027c.071.128.144.254.213.382a4.572,4.572,0,0,0,.3.454,3.626,3.626,0,0,1,.543.93c0,.009,0,.015,0,.024.013.033.034.058.046.092a.741.741,0,0,1-.026.524.613.613,0,0,1,.174.36l.008.107c.015.21.033.4.054.593l.005.016c.028.139.047.279.066.419l.007.046a3.644,3.644,0,0,0,.213.693,3.416,3.416,0,0,0,.841,1,8.057,8.057,0,0,1,.689.706l.14.168c.084.1.155.185.224.264.037.04.077.084.109.116s.054.053.08.078a1.5,1.5,0,0,0,.167.124,1.122,1.122,0,0,0,.56.1c.167.005.363.012.605.036a1.207,1.207,0,0,1,1.232,1.129,1.318,1.318,0,0,0,.273.4,4.774,4.774,0,0,1,.518.2c.1.045.2.086.291.123a7.931,7.931,0,0,0,.927.047c.128,0,.268.015.4.019a4.315,4.315,0,0,1,.642.03c.047.006.1.015.142.023a3.5,3.5,0,0,1,.824.208,23.388,23.388,0,0,1,2.511,1.219,2.555,2.555,0,0,1,1.253.606,3.016,3.016,0,0,1,.576,2.878,1.7,1.7,0,0,1-.1.246,1.977,1.977,0,0,1-.289.475l-.362.414a2.729,2.729,0,0,0-.966,2.08c-.005.084-.007.159-.008.222.128-.1.262-.222.35-.3l.162-.143c.141-.124.292-.255.448-.386.051-.048.1-.1.15-.138A3.244,3.244,0,0,1,206.9,252.061Z" transform="translate(-168.425 -179.225)" fill="#b8b8b8"/>
</svg>
