<svg xmlns="http://www.w3.org/2000/svg" width="37.188" height="33.551" viewBox="0 0 37.188 33.551">
  <path id="Trazado_33" data-name="Trazado 33" d="M270.31,299.826c.023.277.091.411.148.444.214.12.843-.152,1.3-.37a5.341,5.341,0,0,1,.6-.309c.011-.005.021-.006.032-.01a1.937,1.937,0,0,1,1.263-.274,2.979,2.979,0,0,1,1.181.524c.106.059.213.118.324.183l.138.079a5.216,5.216,0,0,0,.65.331,1.138,1.138,0,0,0,.632-.016,1.775,1.775,0,0,0,.363-.335,7.139,7.139,0,0,0,.788-1.13c.16-.385.312-.825.47-1.306.107-.328.217-.657.337-.961a2.816,2.816,0,0,1,.407-.938l-.006-.005c-.27-.212-.528-.422-.765-.635a2.159,2.159,0,0,1-.581-.549.993.993,0,0,1-.141-.314c-.018-.034-.046-.066-.062-.1a.8.8,0,0,1-.064-.507,1.453,1.453,0,0,1-.281-.23,1.952,1.952,0,0,1-.16-.239.985.985,0,0,1-.118-.138,1.59,1.59,0,0,1-.071-.144c-.02-.037-.039-.074-.056-.112a2.573,2.573,0,0,1-.144-.42,7.321,7.321,0,0,1-.218-1.505c-.007-.107-.017-.207-.024-.311a2.6,2.6,0,0,0-1.16-2.212,4.066,4.066,0,0,1-.479-.378,1.192,1.192,0,0,1-.613-.88,3.316,3.316,0,0,1,.914-2.173c.035-.076.07-.149.105-.228a6.387,6.387,0,0,1,1.316-2.144,1.51,1.51,0,0,1,1.34-.435c.013,0,.027.006.041.007s.059.011.087.019a2.392,2.392,0,0,1,.418.091,3.424,3.424,0,0,1,.552.245.687.687,0,0,0,.5.112,2.438,2.438,0,0,0,.287-.1,1.538,1.538,0,0,1,1.268-.064c.128.042.264.1.4.159.066.028.11.043.166.065a1.028,1.028,0,0,0,.586.051.632.632,0,0,0,.208-.372,1.94,1.94,0,0,0,.029-.587,2.9,2.9,0,0,1,.044-.814,1.5,1.5,0,0,1,.449-.783q.111-.2.222-.38a5.2,5.2,0,0,0,.437-.837c.038-.1.068-.193.1-.281,0-.014.011-.03.016-.045a1.181,1.181,0,0,1,.953-1.059c.035-.011.055-.03.092-.04a3.064,3.064,0,0,1,1.568.1c.09.022.167.038.248.057a2.587,2.587,0,0,0,1.206-.107c.06-.035.126-.072.169-.1a.62.62,0,0,0,.2-.271,2.82,2.82,0,0,0-.217-.328l-.019-.026a1.883,1.883,0,0,1-.476-.841c-.009-.026-.024-.045-.033-.072a3.819,3.819,0,0,1-.112-.939c-.006-.064-.009-.127-.019-.193a1.138,1.138,0,0,0-.27-.586c-.131-.064-.281-.153-.469-.266a3.229,3.229,0,0,0-.366-.209c-.261-.1-.523-.2-.786-.293-.319-.116-.639-.232-.953-.359-.111-.045-.219-.1-.33-.153a21.078,21.078,0,0,1-3.381-1.6l-.1-.063c-.22-.135-.448-.275-.681-.4a5.8,5.8,0,0,0-1.584-.394l-.243-.024a1.153,1.153,0,0,0-.535.021.648.648,0,0,0-.111.213,2.655,2.655,0,0,1-.257.493,1.065,1.065,0,0,1-.142.239,1.519,1.519,0,0,1-.523.375c-.061.036-.124.079-.182.111a2.179,2.179,0,0,0-.362.237,1.428,1.428,0,0,0-.109.193,1.245,1.245,0,0,1-.845.775,1.808,1.808,0,0,1-.731.03c-.062-.006-.124-.009-.185-.021s-.132-.036-.2-.055a2.41,2.41,0,0,1-.238-.072,9.044,9.044,0,0,1-2.207-1.316c-.063-.046-.112-.094-.172-.141a20.458,20.458,0,0,1-2.132-1.9,4.021,4.021,0,0,0-.343-.315,2.462,2.462,0,0,0-.523-.337l-.036-.018a4.693,4.693,0,0,0-1.857-.3l-.07,0-.2,0c-.023,0-.039-.006-.062-.007l-.1,0a4.242,4.242,0,0,1-2.879-1.379l-.29-.251c-.158-.066-.251-.041-.531.042l-.3.085-.029.006a2.552,2.552,0,0,1-.413.129,3.5,3.5,0,0,1-1.879-.152l-.019-.006a3.279,3.279,0,0,0-.433.559,3.434,3.434,0,0,0,.194.826,4.015,4.015,0,0,1,.267,1.257,1.95,1.95,0,0,1-.078.524,2.183,2.183,0,0,1-.288.822,6.525,6.525,0,0,1-.471.7,1.157,1.157,0,0,0-.3,1.306,6.3,6.3,0,0,0,.293.731,3.59,3.59,0,0,1,.424,1.838,2.016,2.016,0,0,1-.049.337c-.007.028,0,.053-.011.081s-.018.042-.025.064a2.137,2.137,0,0,1-.1.252,2.674,2.674,0,0,1-.131.269l-.03.051a3.261,3.261,0,0,1-.33.438c-.011.012-.024.02-.036.032a4.052,4.052,0,0,1-.617.555l-.043.031a7.3,7.3,0,0,1-.7.44l-.059.033c-.135.073-.27.144-.4.213l-.01.005c-.112.058-.212.117-.321.174-.148.078-.3.157-.435.238a3.776,3.776,0,0,0-.62.448,1.383,1.383,0,0,0-.367.573,4.456,4.456,0,0,1-.3.607,18.753,18.753,0,0,1-1.388,1.9c-.369.462-.749.94-1.077,1.425l-.17.248a4.489,4.489,0,0,0-.809,1.562,2.157,2.157,0,0,0,.678,1.432,3.488,3.488,0,0,1,.866,1.663c.005.027.017.05.02.077s0,.041,0,.063.014.056.015.087-.008.039-.008.06a2.774,2.774,0,0,1-.993,1.881,5.312,5.312,0,0,0-.423.48,2.544,2.544,0,0,0-.349.96c-.021.094-.044.191-.068.288l.064.011a.782.782,0,0,0,.385.016.486.486,0,0,1,.152-.011.479.479,0,0,1,.119-.009.508.508,0,0,1,.241.122.5.5,0,0,1,.144.5.519.519,0,0,0-.021.142c0,.015.01.024.013.038a.148.148,0,0,0,.031.087.186.186,0,0,0,.084.04c0-.012-.008-.03-.014-.051v0h0l0-.007c0-.018,0-.037-.007-.056a.55.55,0,0,1-.015-.121.643.643,0,0,1,.017-.073.527.527,0,0,1,.023-.1.548.548,0,0,1,.046-.072.534.534,0,0,1,.05-.074.5.5,0,0,1,.09-.066.4.4,0,0,1,.052-.04h0l0,0a.461.461,0,0,1,.073-.019.446.446,0,0,1,.1-.025.435.435,0,0,1,.052,0,.312.312,0,0,1,.2.048.507.507,0,0,1,.081.04.521.521,0,0,1,.066.067.51.51,0,0,1,.057.057l0,.008,0,0c.006.01.009.023.015.033a2.859,2.859,0,0,1,.293,1.611,5.792,5.792,0,0,0,.01.581,1.456,1.456,0,0,0,.132.347.864.864,0,0,0,.277.323,2.876,2.876,0,0,0,.832-.064c.141-.024.268-.046.373-.056a6.435,6.435,0,0,1,1.2.047c.209.021.422.042.632.053.666.032.7-.06.859-.6a3.024,3.024,0,0,1,.625-1.248c.526-.593,2.31-1.04,3.067-.419a2.59,2.59,0,0,1,.818,1.83c.024.083.045.157.058.211a3.528,3.528,0,0,1,.02,1.285l-.007.068a2.413,2.413,0,0,0,.3,1.277,1.9,1.9,0,0,0,1.935-.047l.227-.116.045-.026a3.21,3.21,0,0,1,1.99-.591,13.09,13.09,0,0,1,1.913.33,2.343,2.343,0,0,1,1.6.768,1.65,1.65,0,0,1,.26,1.189Z" transform="translate(-250.742 -266.909)" fill="#b8b8b8"/>
</svg>
