<svg xmlns="http://www.w3.org/2000/svg" width="66.584" height="43.56" viewBox="0 0 66.584 43.56">
  <path id="Trazado_34" data-name="Trazado 34" d="M311.833,361.722c-.1-1.009-.084-1.416.652-2.061.056-.049.106-.1.17-.147s.125-.106.184-.156c.034-.03.069-.059.1-.088.1-.094.187-.178.258-.254a2.5,2.5,0,0,0,.181-.217,1.24,1.24,0,0,0,.11-.182l.005-.01a.384.384,0,0,0,.041-.172.241.241,0,0,0-.075-.12c-.009-.01-.01-.022-.02-.032a.935.935,0,0,0-.167-.121.5.5,0,0,1,.088-.9,4.448,4.448,0,0,1,1.017-.2c.588-.066.908-.119,1.209-.526a2.14,2.14,0,0,0,.331-1.093c.011-.113.021-.227.029-.344a7.888,7.888,0,0,1,.091-.825,3.5,3.5,0,0,1,.233-.726c.051-.121.1-.243.155-.361a3.127,3.127,0,0,0,.329-.973c.039-.495-.22-.889-.925-1.4l-.005,0c-.213-.154-.44-.288-.667-.421a6.917,6.917,0,0,1-.989-.663c-.118-.1-.227-.2-.33-.291l-.022-.019a3.684,3.684,0,0,0-.733-.557,2.229,2.229,0,0,0-.208-.1l-.018-.008a1.485,1.485,0,0,1-.838-.713,2.863,2.863,0,0,1-.157-1.692,2.412,2.412,0,0,0-.514-2.055,6.554,6.554,0,0,1-.5-.925,4,4,0,0,1-.185-.6,8.832,8.832,0,0,1,.162-3.764c.05-.206.1-.4.159-.59.041-.135.089-.27.137-.4a2.127,2.127,0,0,0,.19-1,.738.738,0,0,0-.033-.159c-.008-.021-.029-.047-.039-.068a1.512,1.512,0,0,0-.176-.265,5.224,5.224,0,0,0-.961-.872,1.379,1.379,0,0,0-.69-.237c-.041,0-.079-.015-.12-.017a6.413,6.413,0,0,0-1.178.085c-.183.024-.368.047-.554.067a4.4,4.4,0,0,1-1.374-.03,5.242,5.242,0,0,1-1.185-.407,3.006,3.006,0,0,1-1.809-2.175,1.227,1.227,0,0,1-1.448-1.076c-.007-.037-.017-.089-.024-.122a.667.667,0,0,1-.163-.055l-.125,0a.524.524,0,0,1-.439-.242l-.121-.2-.046-.078c-.045-.039-.092-.083-.144-.132a.653.653,0,0,1-.624-.139l-.006-.011a.567.567,0,0,1-.126-.208,1.527,1.527,0,0,1-.073-.318,1.1,1.1,0,0,0-.019-.129,1.607,1.607,0,0,1-.144-.6,4.164,4.164,0,0,1,0-.462,2.341,2.341,0,0,0-.009-.5,1.59,1.59,0,0,0-.149-.447,3.142,3.142,0,0,0-.233-.4c-.047-.07-.1-.14-.147-.212-.083-.117-.174-.235-.264-.352a5.939,5.939,0,0,1-.583-.847,4.239,4.239,0,0,1-.161-.407c-.043-.121-.087-.253-.128-.346a.216.216,0,0,0-.062.007.3.3,0,0,0-.058.027,1.075,1.075,0,0,0-.442.412,1.557,1.557,0,0,0-.1.278c-.152.5-.42.939-1.352.743a2,2,0,0,1-.973-.593c-.185-.184-.356-.379-.508-.562l-.189-.223a10.026,10.026,0,0,1-.77-1.051,5.646,5.646,0,0,0-1.083-1.333h0a2.53,2.53,0,0,0-.29-.168c-.1-.059-.2-.122-.309-.18a4.532,4.532,0,0,1-.794-.474c-.015-.013-.031-.031-.047-.044-.095-.08-.191-.17-.289-.269s-.167-.162-.24-.225c-.13-.111-.241-.179-.337-.166-.242.039-.449.442-.632.8-.035.068-.073.135-.109.2a2.919,2.919,0,0,1-.343.532,1.636,1.636,0,0,1-1.45.641,4.219,4.219,0,0,1-.574-.09,4.455,4.455,0,0,0-.61-.1c-.046,0-.091,0-.137,0h0a3.55,3.55,0,0,0-1.2.3c-.089.034-.179.065-.269.1-.056.021-.113.043-.169.062a4.105,4.105,0,0,1-.43.106l-.025.007a2.017,2.017,0,0,0-.575.173,1.368,1.368,0,0,0-.256.6c-.037.135-.079.279-.132.421-.014.04-.035.076-.052.115-.042.083-.083.166-.129.244a1.5,1.5,0,0,1-.073.137c-.024.032-.053.056-.078.086a4.759,4.759,0,0,1-.666.646,4.924,4.924,0,0,0-.43.384,3.578,3.578,0,0,0-.253.309,3.74,3.74,0,0,1-.5.542,1.411,1.411,0,0,1-1.021.432,1.041,1.041,0,0,1-.135.011l-.045-.006a1.643,1.643,0,0,1-.882-.459,3.031,3.031,0,0,1-.363-.4,8.742,8.742,0,0,1-1.234-3.3l-.087-.388c-.067-.294-.112-.672-.159-1.077a9.588,9.588,0,0,0-.271-1.567,1.4,1.4,0,0,0-.282-.561,1.767,1.767,0,0,0-1.269-.413.548.548,0,0,0-.124.033c-.042.051-.085.1-.126.147a3.422,3.422,0,0,1-.638.661.964.964,0,0,1-.61.286.908.908,0,0,1-.75-.354,1.225,1.225,0,0,1-.247-.542,1.926,1.926,0,0,1-.075-.221,1.323,1.323,0,0,0-.1.38,1.1,1.1,0,0,0,.01.151,5.676,5.676,0,0,0,.165.553,2.866,2.866,0,0,1,.186.713c.02.288.02.574.021.861,0,.147,0,.293,0,.438a4.6,4.6,0,0,0,.035.483,8.147,8.147,0,0,0,.243,1.089,4.837,4.837,0,0,0,1.111,1.566l.02.022.025.017c.434.282,1.03.668,1.042,1.332.007.235-.387,1.112-.755,1.231a.726.726,0,0,1-.693-.145,1.125,1.125,0,0,1-.3-.148,4.036,4.036,0,0,0-.526-.15c-.081-.017-.164-.038-.246-.057a1.108,1.108,0,0,1-.521-.091,1.849,1.849,0,0,1-.578-.413,4.594,4.594,0,0,1-.416-.38c-.33-.338-.444-.431-.864-.278l-.107.086a1.519,1.519,0,0,1-.742.4c-.055.008-.1.005-.147.01-.021,0-.039.009-.062.01l-.131,0c-.021,0-.043,0-.062,0a.746.746,0,0,1-.808-.6.656.656,0,0,1-.474-.27l-.011-.015c-.006-.005-.011-.006-.018-.011a1.719,1.719,0,0,1-.186-.242c-.055.006-.116.017-.176.027s-.1.023-.17.035c-.093.016-.179.016-.269.025a3.515,3.515,0,0,1-.378.048,5.924,5.924,0,0,1-1.732-.262,6.855,6.855,0,0,0-1.1-.214c-.082,0-.165-.01-.246-.008l-.048,0c-.111.005-.22.019-.33.033a6.761,6.761,0,0,0-.929.251,3.443,3.443,0,0,1-2.728.108,2.493,2.493,0,0,1-.952-.931c-.077-.089-.156-.163-.233-.267a2.33,2.33,0,0,0-1.726-.839,4.952,4.952,0,0,0-1.032.219c-1.359.453-1.272,1.444-1,3.157l.061.387a3.643,3.643,0,0,1-.249,2.62,1.525,1.525,0,0,1-.788.635c-.014.009-.023.022-.037.031a.791.791,0,0,1-.4.134l-.094.045-.1.044a.576.576,0,0,1-.3.222,4.923,4.923,0,0,1-.8.171c-.046.011-.085.024-.133.034l-.259.054c-.233.047-.428.088-.593.134a1.468,1.468,0,0,0-.851,1,6.929,6.929,0,0,0-.1,1.891c.009.133.03.283.044.422.1-.08.21-.182.334-.3a2.473,2.473,0,0,1,1.238-.773c1.232-.249,2.641.753,3.32,1.233a6.681,6.681,0,0,1,1.6,1.753,10.822,10.822,0,0,0,.757.986,7.956,7.956,0,0,1,.665.916c.434.656.973,1.474,1.515,1.539a.457.457,0,0,1,.109.026,1.348,1.348,0,0,0,.508.072,1.362,1.362,0,0,1,1.285.672,3.674,3.674,0,0,1,.31.543,1.49,1.49,0,0,0,.357.532,3.619,3.619,0,0,0,1.024.5c.241.09.478.179.69.282a15.483,15.483,0,0,1,1.792,1.081l.5.33a6.9,6.9,0,0,1,1.372,1.062,2.689,2.689,0,0,1,.437.714,1.437,1.437,0,0,0,.283.466,2.552,2.552,0,0,0,.627.239,4.562,4.562,0,0,1,.6.206c.184.087.363.176.542.266a8.346,8.346,0,0,0,1.277.558l1.4.43a47.892,47.892,0,0,1,7.876,2.914c.192.1.378.208.564.317a3.821,3.821,0,0,0,1.2.541c.2.036.376.055.547.073a3.554,3.554,0,0,1,1.383.36c.108.055.276.124.472.206a8.015,8.015,0,0,1,1.7.863.581.581,0,0,1,.128-.069.87.87,0,0,1,.909.28.7.7,0,0,1,.242.281.5.5,0,0,1,.034.335c.033.04.072.087.12.14a.825.825,0,0,1,.159.277.854.854,0,0,1,.018.377c.5.33,1.458.855,1.664.947a11.763,11.763,0,0,0,3.682.694,19.251,19.251,0,0,1,3.606.68,22.049,22.049,0,0,0,2.961.617,5.39,5.39,0,0,1,2.168.752c.222.118.458.245.734.374.293.137.361.129.376.129-.014,0,.009-.029.036-.053a1.551,1.551,0,0,1,.69-.41,1.648,1.648,0,0,1,.459-.068c.895,0,1.445.813,1.827,1.377.089.132.174.258.259.366a10.808,10.808,0,0,0,.948,1.02,12.1,12.1,0,0,1,1,1.084c.016.02.033.037.049.056a5.035,5.035,0,0,1,2.44-.971C311.8,362.722,311.914,362.56,311.833,361.722Z" transform="translate(-250.174 -320.293)" fill="#b8b8b8"/>
</svg>
