<svg xmlns="http://www.w3.org/2000/svg" width="28.185" height="31.103" viewBox="0 0 28.185 31.103">
  <path id="Trazado_29" data-name="Trazado 29" d="M308.141,274.682a.24.24,0,0,0-.126-.034.378.378,0,0,0-.109.02,2.394,2.394,0,0,0-.707.86,1.975,1.975,0,0,0,.01.555,2.017,2.017,0,0,1-.145,1.2,1.208,1.208,0,0,1-.63.613,4.417,4.417,0,0,1-1.564.258c-.244.014-.467.027-.646.054-.039.01-.076.023-.116.032a2.671,2.671,0,0,1-1.833-.121,1.861,1.861,0,0,1-.192-.1l0,0a1.972,1.972,0,0,1-.28-.2,1.687,1.687,0,0,1-.353-.446h0a4.058,4.058,0,0,1-.268-.491c-.057-.118-.1-.209-.146-.281a.44.44,0,0,0-.112-.124,1.078,1.078,0,0,0-.61.032.764.764,0,0,0-.11.164,1.291,1.291,0,0,0-.059.185,2.754,2.754,0,0,1,.034.749,1.157,1.157,0,0,0,.052.64.5.5,0,0,1,.056.212.291.291,0,0,1-.007.041.478.478,0,0,1-.03.171l-.009.013c0,.005,0,.012,0,.017-.01.022-.032.034-.045.054a.482.482,0,0,1-.1.111,8.839,8.839,0,0,0-.159.092,1.148,1.148,0,0,1-.336.05h0c-.009,0-.016-.005-.024,0a.7.7,0,0,1-.176-.03.467.467,0,0,1-.142-.073.385.385,0,0,1-.035-.018.54.54,0,0,1-.1-.11c-.006-.008-.017-.015-.022-.023a.294.294,0,0,0-.026.016,3.023,3.023,0,0,1-.355.19c-.186.078-.356.158-.516.233l-.05.024-.032.019c-.933.52-1.459.614-2.179.25l-.022.031a1.232,1.232,0,0,1-.959.4l-.068.006a1.152,1.152,0,0,1,.331.6,1.615,1.615,0,0,1-.214.959c-.079.254-.18.514-.275.757-.076.194-.146.373-.194.524-.008.026-.022.043-.03.068a2.018,2.018,0,0,1-.613,1.184,3.019,3.019,0,0,1-.574.386,1.023,1.023,0,0,0-.5.433,2.984,2.984,0,0,0-.289,1.026,1.806,1.806,0,0,0,.142.994.556.556,0,0,0,.133.151.5.5,0,0,1-.081.852c-.655.317-1.3.659-1.94,1s-1.264.673-1.908.987c-.1.051-.211.1-.317.147a4.249,4.249,0,0,0-.558.286c-.441.4-.389,1.161-.328,1.965a6.707,6.707,0,0,1,.006,1.437,1.936,1.936,0,0,1-.088.362,4.49,4.49,0,0,0,.371.272l.127.087a3.084,3.084,0,0,1,.535.491,3.728,3.728,0,0,1,.338.323,2.185,2.185,0,0,0,2.019.946c.029,0,.058.009.086.011a1.8,1.8,0,0,1,1.245.332,1.848,1.848,0,0,1,.763,1.016,1.687,1.687,0,0,1,.121.535,2.55,2.55,0,0,1-.263,1.116c-.043.1-.077.191-.105.27a1.1,1.1,0,0,0-.067.284.555.555,0,0,0,0,.081.287.287,0,0,0,.008.06.36.36,0,0,0,.057.142,1.281,1.281,0,0,0,.33.268,2.334,2.334,0,0,1,.525.424c.022.026.031.053.051.08a2.312,2.312,0,0,1,.674,1.185l.092.294c.024.071.066.2.109.3a.217.217,0,0,0,.074.077s.07.018.267-.073a1.726,1.726,0,0,0,.7-.614,5.868,5.868,0,0,0,.416-.92c.083-.222.17-.447.27-.668l.027-.061.017-.037a2.394,2.394,0,0,1,1.048-1.278,12.046,12.046,0,0,1,2.513-1.077,1.575,1.575,0,0,1,1.467.249,1.276,1.276,0,0,1,.282.385,2.008,2.008,0,0,1,.213.387,1.772,1.772,0,0,1-.007.92c-.015.344-.056.7-.1,1.061a6.035,6.035,0,0,0-.072,1.23.272.272,0,0,0,.042-.015,1.339,1.339,0,0,0,.464-.358,2.3,2.3,0,0,1,.553-.444,1.493,1.493,0,0,1,.156-.068,1.537,1.537,0,0,1,.223-.069,1.636,1.636,0,0,1,.245-.033c.045,0,.078-.016.125-.016a2.216,2.216,0,0,1,.333.026c.009,0,.015,0,.024,0l.334.05a4.13,4.13,0,0,1,2.339.876,2.755,2.755,0,0,1,1.213,1.762,2.63,2.63,0,0,1-.476,1.56c-.049.116-.1.231-.159.347a2.7,2.7,0,0,0,.349-.069,1.442,1.442,0,0,0,.382-.164,2.644,2.644,0,0,0,.248-.175,1.3,1.3,0,0,1,.807-.325,1.049,1.049,0,0,1,.116-.008,3.633,3.633,0,0,1,1.208.385l.191.083a2.513,2.513,0,0,0,.824.266,2.913,2.913,0,0,0,.155-.613c.019-.1.042-.2.068-.314a1.374,1.374,0,0,1,.977-1.171.773.773,0,0,1,.126-.011,1.089,1.089,0,0,1,.525.107,2.029,2.029,0,0,1,.206.108l-.051-.083-.035-.055c-.173-.279-.346-.557-.528-.826l-.021-.033c-.506-.739-.635-1.155-.262-1.882.058-.113.126-.233.209-.364a9.349,9.349,0,0,1,.563-.759,5.577,5.577,0,0,0,.663-.952,1.031,1.031,0,0,0,.078-.408c0-.023,0-.043.005-.067a1.963,1.963,0,0,1,.137-.744,1.115,1.115,0,0,1,.362-.43c.051-.04.1-.086.15-.121l.113-.083a6.84,6.84,0,0,0-.512-1.256c-.079-.08-.217-.085-.519-.085a1.555,1.555,0,0,1-1.157-.346c-.008-.008-.017-.011-.026-.019a1.5,1.5,0,0,1-.342-1.233c.006-.06.024-.114.035-.172a1.833,1.833,0,0,1,.271-.681,1.262,1.262,0,0,1,.35-.365c.441-.283.957-.137,1.059-.216a1.257,1.257,0,0,0,.136-.315,2.851,2.851,0,0,1,.134-.337c.027-.054.061-.107.09-.16.086-.159.176-.317.274-.474.038-.062.078-.124.117-.185.055-.087.109-.174.165-.259.607-.94,1.181-1.829.954-2.8-.009-.037-.023-.054-.033-.086-.059-.192-.136-.32-.242-.346-.316-.079-1.047.332-1.517.868a9.142,9.142,0,0,0-.676.9c-.038.055-.075.107-.113.163-.185.272-.369.543-.569.8l-.062.081a4.7,4.7,0,0,1-.54.625l-.092.087-.025.024c-.012.012-.021.018-.033.029a1.008,1.008,0,0,1-.583.337,2.118,2.118,0,0,1-.269.021l-.251.009c-.141.008-.226.017-.276.024l-.013.042-.014.04a3.464,3.464,0,0,1-.189.469l-.023.044a2.09,2.09,0,0,1-.336.514.871.871,0,0,1-.372.249.964.964,0,0,1-.108.007.863.863,0,0,1-.3.018l-.033,0a1.516,1.516,0,0,1-.254-.093,1.564,1.564,0,0,1-.211-.078,4.589,4.589,0,0,1-1.561-3.034,2.875,2.875,0,0,1,.75-1.384c.022-.026.036-.048.057-.074.082-.1.164-.2.223-.293.274-.419.522-.858.768-1.3a1.335,1.335,0,0,1-.819-.264l-.011-.006a.843.843,0,0,1-.155-.179.879.879,0,0,1-.067-.138.855.855,0,0,1-.054-.2,1.013,1.013,0,0,1,0-.325.992.992,0,0,1,.411-.622,3.44,3.44,0,0,1,.736-.393,2.647,2.647,0,0,0,.542-.278.341.341,0,0,0,.043-.036.472.472,0,0,0,.041-.092l.038-.111a1.363,1.363,0,0,1,.33-.6,1.588,1.588,0,0,1,.177-.132c.021-.019.047-.035.07-.053s.045-.032.068-.044a1.38,1.38,0,0,1,.325-.128,1.519,1.519,0,0,1,.207-.039,1.733,1.733,0,0,1,.352-.007,2.173,2.173,0,0,1,.26.038,3.954,3.954,0,0,1,.731.248c.161.07.311.134.414.171a2.827,2.827,0,0,0,.069-.382,3.887,3.887,0,0,0,0-.684c0-.085-.007-.177-.009-.267v-.006c0-.088,0-.176,0-.267,0-.041,0-.088,0-.126,0-.011.005-.019.006-.03a1.985,1.985,0,0,1,.293-.93,1.838,1.838,0,0,1,.279-.342,1.545,1.545,0,0,1,.351-.244c.074-.04.148-.078.214-.11a2.143,2.143,0,0,0,.2-.1c.081-.05.089-.076.09-.127s-.074-.118-.2-.22c-.026-.02-.037-.031-.068-.054a2.727,2.727,0,0,1-.342-.289c-.09-.1-.172-.183-.246-.268l-.018-.02-.006,0c-.034.021-.076.045-.11.064a1.076,1.076,0,0,1-1.293.035.782.782,0,0,1-.284-.532.89.89,0,0,1-.021-.1,1.218,1.218,0,0,1-.545.406.564.564,0,0,1-.065.032,1.389,1.389,0,0,1-1.1-.213,3.625,3.625,0,0,1-1.551-2.141,1.633,1.633,0,0,1,0-.28,3.827,3.827,0,0,1,.1-.79C308.349,274.985,308.336,274.807,308.141,274.682Z" transform="translate(-287.589 -274.648)" fill="#b8b8b8"/>
</svg>
