<svg xmlns="http://www.w3.org/2000/svg" width="65.696" height="63.405" viewBox="0 0 65.696 63.405">
  <path id="Trazado_44" data-name="Trazado 44" d="M211.505,312.959a1.561,1.561,0,0,1,.3.135,1.165,1.165,0,0,1,.344-.47.747.747,0,0,1,.065-.039,1.061,1.061,0,0,1,1.011-.172l.01,0a.839.839,0,0,0,.249.044,2.686,2.686,0,0,0,1.136-.357l.283-.132c.162-.074.372-.151.6-.233l.014-.005c.5-.181,1.348-.485,1.51-.812a.894.894,0,0,0-.019-.627,2.109,2.109,0,0,1-.07-.762,1.341,1.341,0,0,1,.682-.964c.049-.032.088-.065.143-.1.878-.488,1.7.114,2.292.553.144.106.282.207.414.29l.188.115a3.279,3.279,0,0,0,2.305.772,4.169,4.169,0,0,0,1.082-.5l.012-.007c.029-.017.055-.037.083-.054a3.917,3.917,0,0,0,.887-.763.5.5,0,0,1,.376-.19h0l.02,0a.541.541,0,0,1,.368.161c.162.179.341.343.516.51.1.1.193.2.294.291.24.226.482.463.718.71.09.1.183.186.269.287.075.086.138.165.2.243a2.764,2.764,0,0,1,.347.541,2.353,2.353,0,0,1,.085,1.45,2.574,2.574,0,0,0,.037.753,4.994,4.994,0,0,1,.057.684c0,.02.006.038.005.058a3.007,3.007,0,0,1-.2.949c-.032.094-.061.182-.086.267-.016.069-.03.136-.04.2l0,.024c0,.019-.009.039-.011.059s0,.052,0,.078a2.473,2.473,0,0,0,.322.971,6.594,6.594,0,0,1,.286.654,2.96,2.96,0,0,1,.838-.035,2.087,2.087,0,0,0,.6-.027.52.52,0,0,0,.229-.119,1.085,1.085,0,0,0,.222-.4,1.025,1.025,0,0,1,.959-.793,1.557,1.557,0,0,1,.386.054,2.044,2.044,0,0,1,1.1.941,2.811,2.811,0,0,0,.369.453.466.466,0,0,0,.155.1,1.385,1.385,0,0,0,.14.036c.018-.051.039-.12.055-.176a2.116,2.116,0,0,1,.413-.847,2.277,2.277,0,0,1,1.013-.6,1.328,1.328,0,0,0,.694-.406.746.746,0,0,0,.106-.57V315.2a1.3,1.3,0,0,1,.578-1.326,3.723,3.723,0,0,1,1.736-.592,4.006,4.006,0,0,0,1.007-.243c.044-.019.053-.029.106-.1.02-.027.045-.054.069-.081a1.048,1.048,0,0,1,.726-.372,1.331,1.331,0,0,1,.274.019,1.442,1.442,0,0,1,.707.23l.031-.051c.5-.841,1.437-2.518,1.159-3.181-.034-.081-.1-.172-.322-.225a.5.5,0,0,0-.207.038,3,3,0,0,0-.376.155,1.289,1.289,0,0,1-1.921-.371,2.956,2.956,0,0,1-.274-1.426,3.509,3.509,0,0,0-.09-.828c-.005-.014-.005-.035-.01-.048a5.765,5.765,0,0,0-.265-.591c-.076-.156-.153-.323-.227-.494a2.756,2.756,0,0,1-.291-1.472v-.015a1.407,1.407,0,0,1,.015-.173,1.257,1.257,0,0,1,.133-.3l0-.005a1.286,1.286,0,0,1,.246-.32h0a2.176,2.176,0,0,1,.618-.378c.081-.036.141-.065.2-.1a.525.525,0,0,0,.207-.159.92.92,0,0,0,.088-.176.341.341,0,0,0,.033-.145c0-.006,0-.019,0-.024-.092-.233-.866-.44-1.391-.573l-.1-.025a5.417,5.417,0,0,1-1.388-.475h0a1.837,1.837,0,0,1-1.487.711,1.072,1.072,0,0,1-.813-.874,1.669,1.669,0,0,1-.047-.257,2.137,2.137,0,0,1-.019-.309c.009-.028-.012-.066-.1-.156l0,0a.4.4,0,0,0-.2-.108,1.038,1.038,0,0,1-.234-.109.673.673,0,0,1-.319-.477,1.8,1.8,0,0,1,.02-.606,2.44,2.44,0,0,1,.249-.739c.87-1.663,3.538-2.1,5.214-2.369l.23-.038.736-.122a4.6,4.6,0,0,0,1.463-.388,2.207,2.207,0,0,0,.355-.271,2.734,2.734,0,0,1,.621-.44,3.408,3.408,0,0,1,.461-.171,1.242,1.242,0,0,0,.428-.19,2.923,2.923,0,0,0,.322-.288c.046-.045.094-.092.144-.138a2.093,2.093,0,0,1,.646-.412l.037-.016c.036-.014.064-.03.1-.043.015-.006.032-.008.048-.014a5.465,5.465,0,0,1,.618-.164l.04-.009.137-.018a6.763,6.763,0,0,1,2.124-.01,3.331,3.331,0,0,0,.426.03,1.88,1.88,0,0,0,1.355-.427.872.872,0,0,0,.082-.148.915.915,0,0,0,.054-.1,3.126,3.126,0,0,0,.2-.635,3.394,3.394,0,0,1,.521-1.336,6.616,6.616,0,0,1,.5-.572,2.267,2.267,0,0,0,.707-1.067.684.684,0,0,0,.014-.2,2.687,2.687,0,0,0-.683-1.16,4.112,4.112,0,0,1-.819-1.313,1.986,1.986,0,0,1-.085-.681v-.028c0-.053,0-.107.008-.16a4.977,4.977,0,0,1,.991-2.1l.163-.239c.351-.519.744-1.013,1.125-1.491a17.755,17.755,0,0,0,1.316-1.8,3.478,3.478,0,0,0,.236-.48,2.326,2.326,0,0,1,.609-.916,7,7,0,0,1,1.563-1l.032-.018c.167-.086.328-.174.488-.262.09-.05.179-.1.265-.154.062-.037.117-.078.176-.116a3.79,3.79,0,0,0,.378-.287c.054-.046.1-.1.153-.147a2.083,2.083,0,0,0,.275-.313,1.73,1.73,0,0,0,.241-.48l.007-.013,0-.018a1.17,1.17,0,0,0,.027-.21,2.668,2.668,0,0,0-.344-1.34,7.154,7.154,0,0,1-.338-.852,2.11,2.11,0,0,1,.461-2.194,5.621,5.621,0,0,0,.4-.591,1.032,1.032,0,0,0,.167-.525,1.7,1.7,0,0,0-.18-.644,6.2,6.2,0,0,1-.241-.655A1.975,1.975,0,0,1,258,267.36a2.776,2.776,0,0,1,.482-.754c-.021-.011-.041-.025-.062-.037s-.036-.022-.054-.032c-.194-.108-.383-.223-.571-.34-.384-.239-.761-.487-1.128-.736-.321-.219-.643-.438-.968-.645l-.265-.173c-.1-.065-.175-.113-.257-.165a1.037,1.037,0,0,0-.762-.239.54.54,0,0,0-.141.042c-.038.021-.073.054-.11.079a4.118,4.118,0,0,0-.85.956,5.578,5.578,0,0,1-.892,1.043c-.074.062-.14.111-.207.162-.114.085-.222.162-.321.23a1.589,1.589,0,0,0-.637.652c-.05.095-.1.181-.155.272A8.732,8.732,0,0,1,250.2,269a4.826,4.826,0,0,1-2.278,1.6c-.023.007-.05.009-.074.015a3.283,3.283,0,0,1-.487.093c-.016,0-.034,0-.05,0-.124.013-.255.014-.385.016a10.544,10.544,0,0,1-3.3-.587c-.249-.083-.485-.168-.685-.251a3.657,3.657,0,0,1-.666-.388c-.087-.06-.175-.119-.26-.181a4.12,4.12,0,0,0-.764-.473.986.986,0,0,0-.372-.094h-.005a1.09,1.09,0,0,0-.733.394,2.2,2.2,0,0,0-.369.536c-.026.053-.061.1-.082.158-.166.423-.169.6.022.746a2.615,2.615,0,0,0,.533.259,3.124,3.124,0,0,1,1.1.657,1.7,1.7,0,0,1,.28.386,1.94,1.94,0,0,1,.208.777,2.788,2.788,0,0,1-.149,1.092c-.024.069-.065.135-.092.2a4.341,4.341,0,0,1-1.184,1.666c-.021.017-.041.027-.061.043-.056.037-.108.072-.165.107a2.725,2.725,0,0,1-.356.231c-.084.039-.184.08-.279.121a7.4,7.4,0,0,1-1.236.421,3.858,3.858,0,0,1-.606.1c-.145.011-.252.009-.341.01-.027,0-.045,0-.064,0-.092,0-.117.019-.258.108a.63.63,0,0,0-.112.124l-.013.017a1.165,1.165,0,0,1-.431.365l-.031.017c-.018.008-.036.013-.055.02a1.06,1.06,0,0,1-.267.06,1.32,1.32,0,0,1-.694-.144l-.115-.053c-.256-.122-.262-.116-.379-.031-.193.144-.232.495-.246.852a6.615,6.615,0,0,0,.222,1.642,10.115,10.115,0,0,1,.231,1.336.484.484,0,0,1-.381.522l-.053.009a.5.5,0,0,1-.211-.011c-.967-.3-1.934-.609-2.893-.927-.3-.1-.585-.2-.879-.295-.7-.234-1.4-.47-2.085-.7l-.2-.067a7.4,7.4,0,0,0-1.17-.332,2.686,2.686,0,0,0-.508,0,2.859,2.859,0,0,1-.809-.029,1.257,1.257,0,0,1-.662-.382,2.3,2.3,0,0,1-.243-.311,1.337,1.337,0,0,0-.122-.169.232.232,0,0,0-.106-.071.859.859,0,0,0-.234.192l-.047.045a1.1,1.1,0,0,1-1.292.411c-.809-.381-.463-1.324-.334-1.679l.043-.119a5.3,5.3,0,0,0,.141-3.994.5.5,0,0,1-.005-.309.5.5,0,0,1,.768-.261l.213.151c.653.469.8.568,1.156.286.024-.019.051-.042.078-.065l.076-.065.179-.167.032-.03.02-.021c.1-.091.171-.172.254-.257s.159-.177.233-.264a2.129,2.129,0,0,0,.583-1.45l0-.111a6,6,0,0,0-.031-.994l-.006-.015a2.313,2.313,0,0,0-.2-.435,1.845,1.845,0,0,1-.287-.819c0-.015,0-.028,0-.042a1.316,1.316,0,0,1,.341-.79l.119-.115,0,0a6.01,6.01,0,0,1,.842-.7,3.548,3.548,0,0,0,.744-.624c.072-.109.157-.233.248-.363a4.271,4.271,0,0,1,1.139-1.151,2.387,2.387,0,0,1,.221-.126c.075-.038.154-.069.235-.1.055-.021.108-.044.166-.06a2.261,2.261,0,0,1,1.046-.051,4,4,0,0,1,.4.1c.364.106.448.116.6-.016v0a1.04,1.04,0,0,0,.18-.5,2.217,2.217,0,0,1,.278-.784,1.86,1.86,0,0,1,.43-.451.919.919,0,0,0,.134-.121l-.06-.128a1.016,1.016,0,0,1-.3-.991,2.535,2.535,0,0,1,.622-1.1,2.838,2.838,0,0,0,.3-.409,4.162,4.162,0,0,1-.658-.329,1.314,1.314,0,0,1-.4-.353l-.268.072a3.088,3.088,0,0,1-.419.089c-.01,0-.024.006-.033.007l-.012,0a.5.5,0,0,1-.15-.023.514.514,0,0,1-.088-.02.49.49,0,0,1-.123-.091c-.018-.016-.042-.023-.058-.043l0-.008a.5.5,0,0,1-.071-.145.449.449,0,0,1-.029-.068.492.492,0,0,1,.007-.235,4.873,4.873,0,0,0,.122-.475l0-.014a.873.873,0,0,0,.014-.145c0-.018-.005-.034-.007-.052a.348.348,0,0,0-.012-.073c-.042-.135-.163-.248-.381-.428-.034-.028-.064-.054-.1-.086a6.676,6.676,0,0,0-.821-.539,6.944,6.944,0,0,1-1.078-.733.6.6,0,0,0-.083.172.034.034,0,0,1-.005.018c.017.02.037.05.056.075a1.17,1.17,0,0,1,.151.273l.043.113a2.633,2.633,0,0,1,.138,2.233l0,.005a5.376,5.376,0,0,1-.583,1.011,5.979,5.979,0,0,0-.4.64c-.067.131-.125.272-.183.413-.046.111-.094.225-.146.339a2.4,2.4,0,0,1-.631.887,4.587,4.587,0,0,1-1.11.6l-.126.056-.123.055-.113.05a1.713,1.713,0,0,1-1.644.126,2.134,2.134,0,0,1-.859-2.376l.024-.253c.037-.454.085-.921.141-1.394.074-.624.174-1.263.314-1.914.1-.481.222-.967.378-1.459a1.943,1.943,0,0,1,.107-.247.854.854,0,0,0,.063-.14.278.278,0,0,1,.023-.126.51.51,0,0,1-.282-.18c-.044-.065-.087-.136-.131-.207s-.077-.117-.111-.168c-.172-.249-.246-.26-.4-.222a.523.523,0,0,0-.277.289c-.014.026-.027.055-.04.083a6.155,6.155,0,0,0-.342,1.336c-.032.185-.061.353-.092.49l-.159.727a22.54,22.54,0,0,1-.779,2.954,9.829,9.829,0,0,1-.408.968.5.5,0,0,1-.949-.226c.012-.913-.062-1.847-.133-2.752l-.006-.075c-.023-.295-.047-.589-.067-.885l-.01-.164c0-.065-.007-.124-.011-.176-.021.093-.046.183-.074.271a1.991,1.991,0,0,1-.326.645,1.253,1.253,0,0,1-.088.105c-.025.027-.05.054-.077.08a1.435,1.435,0,0,1-.17.134c-.023.017-.044.034-.069.05a1.95,1.95,0,0,1-.183.094,2.366,2.366,0,0,1-.361.136l-.06.019c-.07.018-.145.034-.221.049-.11.022-.217.044-.342.057a7.756,7.756,0,0,0-4.12,1.323l0,0a1.963,1.963,0,0,0-.439.594c-.077.181-.162.365-.25.554-.111.3-.209.6-.294.888l-.082.273a.894.894,0,0,0,.187,1.041,4.238,4.238,0,0,0,.615.495c.1.071.21.156.316.232s.22.153.332.244a22.347,22.347,0,0,1,2.826,3.009,1.952,1.952,0,0,1,.055,2.41c-.044.086-.085.174-.127.262a3.2,3.2,0,0,0-.18.452c-.05.169-.086.327-.12.479a3.8,3.8,0,0,1-.428,1.19c-.056.093-.105.162-.153.232-.015.022-.033.052-.047.072-.028.041-.055.074-.075.108a1.409,1.409,0,0,1,.129.17c.012.017.028.031.04.047a8.739,8.739,0,0,0,2.824,1.894c.3.153.594.3.854.442a.5.5,0,0,1,.1.8.336.336,0,0,0-.071.167c0,.02-.011.039-.015.061-.021.114-.034.249-.045.371a2.739,2.739,0,0,1-.188.887,1.356,1.356,0,0,1-.065.14c-.009.015-.023.03-.032.045a3.182,3.182,0,0,1-.236.327c-.025.03-.045.06-.071.09-.077.089-.159.172-.242.255a6.417,6.417,0,0,1-1.019.846,1.532,1.532,0,0,1-.218.112,5.592,5.592,0,0,1-1.041.3,3.618,3.618,0,0,0-1.045.322,7.266,7.266,0,0,0,.157.721,4.8,4.8,0,0,1,.119.625c0,.04.014.085.014.122,0,.111-.007.222-.013.333v0c-.009.157-.025.316-.049.475-.008.056-.015.112-.025.168-.016.089-.036.18-.057.27-.027.123-.057.245-.093.367-.012.044-.028.089-.042.133-.047.147-.1.3-.157.45-.007.017-.011.033-.018.051a10.039,10.039,0,0,0-.556,2.554c-.06.473-.121.956-.222,1.47a.5.5,0,0,1-.306.368.5.5,0,0,1-.476-.058c-.276-.2-.562-.387-.848-.578q-.246-.164-.494-.332a10.723,10.723,0,0,1-1.584-1.273c-.111-.112-.223-.222-.328-.343-.016-.019-.034-.034-.05-.052-.12-.143-.221-.289-.319-.432-.223-.326-.352-.5-.608-.581a2.1,2.1,0,0,0-.512-.079,2.138,2.138,0,0,1-1.182-.365c-.026-.018-.047-.038-.072-.057a7.7,7.7,0,0,1-.7-.591c-.535-.49-.811-.737-1.256-.566a1.852,1.852,0,0,0-.43.249c-.136.1-.271.206-.406.311a4.029,4.029,0,0,1-3.147,1.2h-.016l-.006,0a.574.574,0,0,1-.186-.077.458.458,0,0,1-.176-.179c-.008,0-.019.013-.027.018a1.787,1.787,0,0,0-.265.177,2.411,2.411,0,0,0-.256.242,7.278,7.278,0,0,0-.8,1.112l-.216.341c-.093.144-.21.3-.336.475a3.758,3.758,0,0,0-.739,1.3s0,.009,0,.014a1.283,1.283,0,0,0,.162.542,2.064,2.064,0,0,1,.245,1.127,1.4,1.4,0,0,1-.871,1.158,2.519,2.519,0,0,0-.332.2c-.117.088-.221.17-.318.247a3.149,3.149,0,0,1-1.79.817c-.325.043-.664.064-1,.084a3.449,3.449,0,0,0-2.656.882c-.447.528-.121,1.1.78,2.177a7.864,7.864,0,0,1,.647.845,3.7,3.7,0,0,1,.47,1.758,6.454,6.454,0,0,0,.093.747,8.066,8.066,0,0,0,1.031,2.4,22.35,22.35,0,0,0,1.718,2.376c.465.588.947,1.2,1.375,1.828a5.812,5.812,0,0,0,1.918,2.006,4.5,4.5,0,0,1,1.271.856,3.95,3.95,0,0,1,.613,1.5,4.132,4.132,0,0,0,.345,1.012,3.575,3.575,0,0,0,1.829,1.885,1.508,1.508,0,0,0,.786.046,1.951,1.951,0,0,1,1.142.123.5.5,0,0,1,.273.411,1.761,1.761,0,0,1-.1.645c-.011.038-.026.085-.037.127l.151-.015a1.69,1.69,0,0,1,.7.023,4.053,4.053,0,0,1,1.2.676c.184.132.362.262.547.369.014-.023.04-.038.056-.06a1.213,1.213,0,0,1,.219-.23.468.468,0,0,0,.147-.154,1.276,1.276,0,0,0,.073-.244c.016-.064.033-.134.054-.205a1.535,1.535,0,0,1,.134-.316.911.911,0,0,1,.351-.364A.873.873,0,0,1,211.505,312.959Z" transform="translate(-192.788 -254.391)" fill="#b8b8b8"/>
</svg>
