<svg xmlns="http://www.w3.org/2000/svg" width="31.005" height="32.53" viewBox="0 0 31.005 32.53">
  <path id="Trazado_32" data-name="Trazado 32" d="M276,318.992a1,1,0,0,0-.1.1c-.062.073-.116.143-.167.211a2.724,2.724,0,0,1,1.591.707,2.234,2.234,0,0,1,.466.836,7.749,7.749,0,0,1,.581,2.348,9.693,9.693,0,0,0,.294,1.556c.047.147.1.324.15.52a8.314,8.314,0,0,0,.627,1.738,1.933,1.933,0,0,0,.237.262.772.772,0,0,0,.294.191.907.907,0,0,0,.54-.245,3.68,3.68,0,0,0,.28-.331,4.387,4.387,0,0,1,.327-.4,6.265,6.265,0,0,1,.512-.46,3.94,3.94,0,0,0,.517-.49c.037-.056.078-.111.112-.169a2.674,2.674,0,0,0,.178-.487,2.055,2.055,0,0,1,.563-1.088,2.179,2.179,0,0,1,.995-.389c.128-.039.26-.076.4-.115l.163-.044.213-.077a4.908,4.908,0,0,1,1.453-.359c.011,0,.022-.005.033-.005a.564.564,0,0,1,.059,0c.071,0,.14-.011.212-.006s.1.018.157.024l.049.008c.187.024.374.049.538.084.138.029.252.051.353.065.428-.024.634-.247.97-.716.02-.039.04-.074.06-.114.277-.538.621-1.208,1.361-1.328a1.339,1.339,0,0,1,1.118.37c.025.016.047.021.072.038a2.512,2.512,0,0,1,.506.487l.024.027a3.775,3.775,0,0,0,.6.351c.021.01.042.022.063.033l.006,0a9.338,9.338,0,0,1,.415-1.215,9.177,9.177,0,0,0,.345-.964,3.47,3.47,0,0,1,.425-1.034,3.75,3.75,0,0,1,.982-.913,1.8,1.8,0,0,0,.727-.871,1.292,1.292,0,0,0,.036-.65,2.052,2.052,0,0,0-.109-.294,1.623,1.623,0,0,1-.185-1.023,1.2,1.2,0,0,1,.468-.65c.029-.025.064-.055.093-.082a.408.408,0,0,0,.042-.042c0-.014,0-.011-.011-.012s0,0,0-.013a.931.931,0,0,0-.006-.128,3.077,3.077,0,0,0-.47-1.281l-.022-.043a3.438,3.438,0,0,1-.568-1.895,1.5,1.5,0,0,1,.066-.371h0a1.781,1.781,0,0,1,.1-.263,1.228,1.228,0,0,1,.565-.6,2.026,2.026,0,0,1,.7-.182,1.408,1.408,0,0,0,.44-.1c.011,0,.025-.006.036-.012.125-.069.131-.088.185-.229a1.69,1.69,0,0,1,.309-.544,2.079,2.079,0,0,1,.579-.447l.005,0a1.155,1.155,0,0,0,.315-.227c.011-.029.033-.11.058-.2l.006-.018c.109-.355.245-.8.647-.954a.759.759,0,0,1,.675.073,1.093,1.093,0,0,1,.41.8,2.444,2.444,0,0,0,.072.287h0c-.006-.021.037,0,.073.012a1.148,1.148,0,0,1,.523.363,1.256,1.256,0,0,1,.088.153,2.094,2.094,0,0,1,.228,1.04,1.691,1.691,0,0,0,.058.515,1.518,1.518,0,0,0,.268.4c.056.07.114.14.169.214a2.623,2.623,0,0,1,.619,1.847c0,.146.007.31.018.5a1.25,1.25,0,0,0,.156.432c.009.017.017.039.026.057a1.789,1.789,0,0,1,.218.719,1.073,1.073,0,0,1-.106.5c-.038.086-.077.171-.114.237a1.07,1.07,0,0,0-.074.148l0,.009a.332.332,0,0,0,.071.091,4.851,4.851,0,0,0,.612.48l.233.166c1.093.815,2.017,1.193,2.536,1.032a.714.714,0,0,0,.417-.352,1.7,1.7,0,0,0,.076-.164,1.408,1.408,0,0,0,.072-.155,4.966,4.966,0,0,0,.181-2.079c-.045-.515-.132-1.037-.22-1.553-.093-.545-.19-1.108-.233-1.656a7.87,7.87,0,0,1-.014-1.038,3.782,3.782,0,0,1,.022-.383v-.007a3.037,3.037,0,0,1,.252-.726,2.933,2.933,0,0,0,.167-.433l.005-.016-.005-.013c-.021-.261-.47-.751-.743-1.046-.152-.165-.293-.319-.4-.454a.5.5,0,0,1-.1-.346l0-.008a.494.494,0,0,1,.045-.167.485.485,0,0,1,.047-.065.467.467,0,0,1,.063-.085h0l0,0a1.275,1.275,0,0,1,.357-.236c.034-.017.069-.029.1-.043.092-.034.18-.061.255-.082a.923.923,0,0,0,.229-.087.327.327,0,0,0,.055-.032,2.763,2.763,0,0,0,.422-.774c.03-.07.059-.14.083-.2l.1-.233c.294-.687.2-.789-.439-1.452l-.1-.1a1.96,1.96,0,0,0-.262-.215,3.448,3.448,0,0,0-1.7-.553l-.344-.05a.689.689,0,0,0-.445.03.99.99,0,0,0-.258.239,2,2,0,0,1-.883.654,1.563,1.563,0,0,1-.4.083h-.026a1.092,1.092,0,0,1-.19,0,.837.837,0,0,1-.431-.176c-.51-.409-.41-1.234-.3-2.191.038-.311.083-.7.094-1.042a1.963,1.963,0,0,0-.069-.7.363.363,0,0,0-.089-.147c-.085-.08-.3-.086-.572-.02a10.669,10.669,0,0,0-2.265.982,1.565,1.565,0,0,0-.634.862c-.059.148-.114.3-.169.46-.07.2-.141.4-.221.592a4.691,4.691,0,0,1-.289.558,2.749,2.749,0,0,1-1.217,1.134,1.311,1.311,0,0,1-1.041.1,1.253,1.253,0,0,1-.622-.582,5.5,5.5,0,0,1-.289-.58c-.079-.179-.124-.3-.169-.423a2.327,2.327,0,0,0-.263-.541.952.952,0,0,0-.06-.1,1.621,1.621,0,0,0-.314-.239,1.867,1.867,0,0,1-.679-.65l-.005-.006v0a1.219,1.219,0,0,1-.145-.436c0-.017-.006-.034-.008-.051a1.547,1.547,0,0,1,0-.167,2.351,2.351,0,0,1,.089-.6l0-.015c.005-.016.008-.033.014-.049.042-.122.09-.239.135-.349a1.788,1.788,0,0,0,.189-.687.727.727,0,0,0-.085-.294,1.408,1.408,0,0,0-1.039-.633c-.048-.007-.1-.014-.14-.017a3.134,3.134,0,0,1-2.71-1.268,2.879,2.879,0,0,0-.29-.27,3.219,3.219,0,0,0-1.433-.68c-.1.021-.19.039-.272.053a2.026,2.026,0,0,0-.428.106,1.033,1.033,0,0,0-.2.7,3.065,3.065,0,0,1-.129.852,2,2,0,0,1-.275.836,6.56,6.56,0,0,1-1.039,1.241,7.437,7.437,0,0,0-.74.825,3.557,3.557,0,0,0-.28.515c-.022.044-.049.085-.071.129a.477.477,0,0,0,.142.161,1.9,1.9,0,0,1,.48.584.979.979,0,0,1-.043,1.293,1.32,1.32,0,0,1-.915.448l-.061.012a.56.56,0,0,0-.184.124.274.274,0,0,0-.06.141c.006.043.013.089.018.125a2.291,2.291,0,0,1,.037.409,3.614,3.614,0,0,1-.128.8c-.047.221-.1.434-.164.64l-.09.322a4.211,4.211,0,0,0,.043,2.213c.036.091.072.182.112.278a3.527,3.527,0,0,1,.385,1.514,1.569,1.569,0,0,1-.3.88l-.02.029a1.517,1.517,0,0,1-.167.181,3.633,3.633,0,0,1-.9.632c-.131.07-.253.128-.367.183-.45.216-.547.272-.6.554v.019a1.643,1.643,0,0,1,.123.791,2.76,2.76,0,0,1-.83,1.369c-.106.117-.208.228-.285.33l-.087.113a30.07,30.07,0,0,1-1.977,2.434c-.063.068-.132.133-.2.2-.014.016-.028.033-.043.048a4.579,4.579,0,0,0-.347.4,1.413,1.413,0,0,0-.181.422c-.02.071-.041.145-.065.223a.774.774,0,0,1-.033.486A1.49,1.49,0,0,1,276,318.992Z" transform="translate(-275.726 -294.933)" fill="#b8b8b8"/>
</svg>
