<svg xmlns="http://www.w3.org/2000/svg" width="58.181" height="42.587" viewBox="0 0 58.181 42.587">
  <path id="Trazado_40" data-name="Trazado 40" d="M251.542,331.64l.251-.052c.041-.009.068-.022.107-.032a4.161,4.161,0,0,0,.606-.194c.136-.057.268-.114.392-.172l.115-.054c.081-.038.152-.061.226-.088.037-.014.079-.033.115-.045l.017-.007c.232-.079.311-.106.432-.292a2.886,2.886,0,0,0,.1-1.918l-.06-.386c-.248-1.568-.558-3.518,1.672-4.263a6.3,6.3,0,0,1,1.14-.258,3.09,3.09,0,0,1,1.866.246,2.892,2.892,0,0,1,1,1.1c.058.091.115.166.171.249a1.492,1.492,0,0,0,.526.54,2.621,2.621,0,0,0,1.967-.164,7.379,7.379,0,0,1,1.127-.3c.044-.007.087-.021.13-.027.091-.01.178-.007.266-.01l.09,0c.116,0,.231,0,.344.012a7.6,7.6,0,0,1,1.261.242,4.64,4.64,0,0,0,1.442.23,2.569,2.569,0,0,0,.3-.039c.08-.012.165-.018.241-.031.041-.008.083-.014.125-.021a1.734,1.734,0,0,1,.859.012.213.213,0,0,1,.022.005l.009.006a.474.474,0,0,1,.077.048.517.517,0,0,1,.108.083.523.523,0,0,1,.059.088.671.671,0,0,1,.041.062c.023.039.06.1.1.151l0,.005h.005a.26.26,0,0,1,.027.006.645.645,0,0,1,.383.146.891.891,0,0,1,.249.323,1.253,1.253,0,0,1,.067.157h.008c.006,0,.013-.006.019-.007a.578.578,0,0,0,.2-.131,1.993,1.993,0,0,1,.39-.251l.019-.01c.013-.005.022-.013.035-.019l.01,0a1.607,1.607,0,0,1,2.008.488,3.4,3.4,0,0,0,.348.314,1.394,1.394,0,0,0,.249.164,1.744,1.744,0,0,0,.276.1c.116.032.242.06.38.089a6.616,6.616,0,0,1,.7.179c.036.012.072.019.109.032.02.008.035.019.055.027a1.2,1.2,0,0,1,.129.062c.026-.048.049-.1.067-.135a2.066,2.066,0,0,0-.574-.468c-.054-.036-.094-.069-.146-.1a3.3,3.3,0,0,1-.3-.214,3.793,3.793,0,0,1-1.147-1.884,9.291,9.291,0,0,1-.249-1.176,5.584,5.584,0,0,1-.047-.62c0-.1-.02-.2-.023-.306a6.4,6.4,0,0,0-.063-.832,4.992,4.992,0,0,0-.122-.489,3.89,3.89,0,0,1-.18-.9,2.1,2.1,0,0,1,.007-.306,2.118,2.118,0,0,1,.417-1.039.982.982,0,0,1,.162-.179.91.91,0,0,1,.728-.159.8.8,0,0,1,.122.051.949.949,0,0,1,.188.08c.017.011.034.022.049.034a1.185,1.185,0,0,1,.385.645.969.969,0,0,0,.052.16l.006.007a.779.779,0,0,0,.08.112.549.549,0,0,0,.062.066,4.85,4.85,0,0,1,.378-.511c.062-.078.125-.156.188-.232,0-.02.008-.045.009-.067a.881.881,0,0,1,.057-.231,3.131,3.131,0,0,1,.569-.875,1.943,1.943,0,0,1,.158-.163,1.906,1.906,0,0,1,.124-.449c.035-.1.059-.186.082-.27a2.586,2.586,0,0,1,.215-.561,2.229,2.229,0,0,1,.266-.392,4.323,4.323,0,0,1,.329-.336l.015-.015c.062-.059.124-.118.181-.178a29.4,29.4,0,0,0,1.911-2.354l.087-.115c.093-.122.213-.256.342-.4a2.358,2.358,0,0,0,.578-.825.871.871,0,0,0-.085-.366c-.018-.05-.038-.11-.056-.168a1.141,1.141,0,0,1,.1-1.054,2.354,2.354,0,0,1,1.356-.844c.467-.154.712-.26.826-.462a.652.652,0,0,0,.085-.3,2.876,2.876,0,0,0-.31-1.075c-.051-.123-.1-.248-.149-.373a3.6,3.6,0,0,1-.181-.59,5.054,5.054,0,0,1,.2-2.453l.08-.281c.034-.117.062-.229.092-.341a2.936,2.936,0,0,0,.108-.633,1.418,1.418,0,0,0-.025-.226c-.012-.075-.024-.159-.032-.246a1.13,1.13,0,0,1,.164-.783,1.19,1.19,0,0,1,.784-.475c.07-.015.138-.028.2-.038a.91.91,0,0,0,.285-.072.3.3,0,0,0,.055-.09c-.008-.009-.044-.043-.079-.075-.055-.051-.122-.111-.176-.159a3.35,3.35,0,0,1-.307-.3c-.036-.04-.061-.082-.093-.122a4.181,4.181,0,0,1-.408-.606,9.259,9.259,0,0,1-.507-1.121l-.2-.5c-.164-.421-.31-.761-.443-1.046-.434-.931-.712-1.209-.877-1.254a.26.26,0,0,0-.069.071,2.6,2.6,0,0,0-.248.516c-.125.32-.252.709-.354,1.018-.144.44-.309.941-.515,1.424-.422.991-1.022,1.908-2,2.083a2.177,2.177,0,0,1-.868-.038,2.5,2.5,0,0,1-.246-.06,4.131,4.131,0,0,1-1.061-.575l-.11-.073a2.3,2.3,0,0,0-.849-.414,1.1,1.1,0,0,0-.726.211l-.048.025c-.1.053-.2.108-.3.159l-.229.11c-.769.366-1.6.706-2.238.338a1.444,1.444,0,0,1-.648-1.232l-.006-.079c-.051-.606-.079-.659-.683-.87-.112-.039-.228-.074-.347-.106a11.606,11.606,0,0,0-1.84-.323,2.265,2.265,0,0,0-1.388.458l-.078.045a3.635,3.635,0,0,1-1.482.564,2.166,2.166,0,0,1-1.741-.423,1.666,1.666,0,0,1-.287-.343,3.556,3.556,0,0,1-.427-1.817c-.006-.152-.01-.3-.014-.457-.006-.3-.02-.6-.046-.885a1.813,1.813,0,0,0-.459-1.256,2.071,2.071,0,0,0-1.686.309,2.109,2.109,0,0,0-.416.87c-.174.588-.388,1.4-1.872,1.313-.223-.011-.451-.034-.675-.055a6.01,6.01,0,0,0-1.006-.047c-.082.007-.181.026-.292.046a3.379,3.379,0,0,1-1.268.05,1.283,1.283,0,0,1-.7-.395,1.794,1.794,0,0,1-.425-1.028,5.972,5.972,0,0,1-.03-.82l0-.148a1.156,1.156,0,0,1-.817-.193,1.121,1.121,0,0,1-.468-.681h0c-.072,0-.142-.008-.21-.012a1.934,1.934,0,0,0-.422.008l-.008.012a2.715,2.715,0,0,1-1.9.733,6.693,6.693,0,0,1-1.416-.006,6.063,6.063,0,0,0-1.209-.018l-.03,0-.038.008a4.482,4.482,0,0,0-.53.14c-.013.006-.029.01-.042.016s-.038.021-.061.03a2.035,2.035,0,0,0-.325.205c-.046.041-.09.077-.143.129a3.994,3.994,0,0,1-.425.377,2.191,2.191,0,0,1-.732.345,2.516,2.516,0,0,0-.331.121,1.9,1.9,0,0,0-.392.291,3.033,3.033,0,0,1-.533.394,5.43,5.43,0,0,1-1.786.5l-.726.121-.126.025a15.775,15.775,0,0,0-2.8.72,4.98,4.98,0,0,0-1.808,1.178,1.423,1.423,0,0,0-.137.4c-.008.047-.014.087-.018.121a1.393,1.393,0,0,1,.216.107,1.019,1.019,0,0,1,.7,1.314l-.011.049h0a.435.435,0,0,0,.079.18l.014-.007a.88.88,0,0,0,.12-.074,3.505,3.505,0,0,0,.7-.7.477.477,0,0,1,.174-.129.511.511,0,0,1,.314-.061.5.5,0,0,1,.389.349,6.837,6.837,0,0,0,1.151.377l.119.034c.9.227,1.806.476,2.084,1.177.01.024.01.05.018.075s.01.018.013.028c.008.025.007.052.013.077a1.039,1.039,0,0,1,.025.158.98.98,0,0,1-.008.209c0,.028-.006.056-.011.085a1.413,1.413,0,0,1-.059.2,1.9,1.9,0,0,1-.077.184c-.008.014-.015.029-.023.044-.033.064-.061.127-.1.193a1.5,1.5,0,0,1-.64.536c-.083.044-.165.084-.24.118-.312.142-.364.18-.394.383a2.826,2.826,0,0,0,.422,1.372c.017.035.027.064.043.1a6.328,6.328,0,0,1,.273.618,3.867,3.867,0,0,1,.155,1.18,2.364,2.364,0,0,0,.14.953c.118.2.127.214.616-.026a3.222,3.222,0,0,1,.655-.253,1.511,1.511,0,0,1,.2-.036c.021,0,.04-.006.061-.007a1.118,1.118,0,0,1,.542.063,1.437,1.437,0,0,1,.864.9c.375,1.142-.535,2.764-1.419,4.2-.107.173-.194.313-.245.407a.5.5,0,0,1-.915-.085.464.464,0,0,0-.281-.253,2.049,2.049,0,0,0-.393.159,1.091,1.091,0,0,1-.389.287,4.857,4.857,0,0,1-1.262.32,2.879,2.879,0,0,0-1.292.4c-.184.137-.2.183-.185.375l.01.039a1.467,1.467,0,0,1,.03.846,1.679,1.679,0,0,1-.947.993,3.059,3.059,0,0,1-.508.2,1.167,1.167,0,0,0-.45.2,1.076,1.076,0,0,0-.192.389,2.26,2.26,0,0,1-.279.582,1.232,1.232,0,0,1-.983.618h-.005a1.279,1.279,0,0,1-.942-.544,3.819,3.819,0,0,1-.487-.588c-.176-.249-.359-.507-.53-.551a.556.556,0,0,0-.131-.022c.028.007-.008.1-.034.162a1.988,1.988,0,0,1-.459.75,1.418,1.418,0,0,1-.328.228,1.237,1.237,0,0,1-.472.3,5.569,5.569,0,0,1-1.435.052l-.182,0a.5.5,0,0,1-.189.084.671.671,0,0,1-.173.375.613.613,0,0,1-.214.147.459.459,0,0,1-.121.229,3.685,3.685,0,0,1-.994.731.641.641,0,0,1-.3.045.458.458,0,0,0-.065.111.99.99,0,0,0-.015.262,1.535,1.535,0,0,1-.127.754c-.19.378-.354.531-.649.605a2.8,2.8,0,0,0-.454.469c-.012.025-.025.049-.036.074a2.569,2.569,0,0,1-.465.743,1.918,1.918,0,0,1,.636,1.2,1.078,1.078,0,0,1-.123.542,5.285,5.285,0,0,0,.8.607,5.33,5.33,0,0,1,.973.769,5.844,5.844,0,0,1,.89,1.472,4.382,4.382,0,0,0,.826,1.324,5.564,5.564,0,0,0,2.514,1.065c.267.068.53.133.78.206.561.162,1.124.318,1.687.474.7.194,1.4.388,2.092.593a12.546,12.546,0,0,1,2.439,1.112c.326.179.652.358.985.522a7.748,7.748,0,0,0,2.589.662c.321.043.651.088,1,.146a19.713,19.713,0,0,1,2.951.837c.4.138.8.275,1.2.4a8.644,8.644,0,0,1,1.048.438,8.73,8.73,0,0,0,1.215.5c-.006-.058-.007-.11-.012-.167a8.325,8.325,0,0,1,.1-2.491c.007-.029.01-.062.016-.091a1.956,1.956,0,0,1,1.321-1.585A6.256,6.256,0,0,1,251.542,331.64Z" transform="translate(-224.731 -293.616)" fill="#b8b8b8"/>
</svg>
