<svg xmlns="http://www.w3.org/2000/svg" width="12.525" height="12.487" viewBox="0 0 12.525 12.487">
  <path id="Trazado_30" data-name="Trazado 30" d="M294.4,324.119a9.018,9.018,0,0,0,.687.944c.064.073.135.158.209.247.116.139.26.31.409.461a1.6,1.6,0,0,0,.412.215.827.827,0,0,0,.295.058l.008-.02a.351.351,0,0,1,.026-.15,1.676,1.676,0,0,1,.592-.924,1.4,1.4,0,0,1,.822-.3.674.674,0,0,1,.082.012,1.091,1.091,0,0,1,.71.174c.2.132.282.355.443.81.041.115.077.221.1.277a5.122,5.122,0,0,0,.488.7c.1.128.2.255.287.382l.086.126a1.9,1.9,0,0,1,.308.359c.011.016.025.028.035.044a5.26,5.26,0,0,0,.9-.342c.039-.019.072-.046.11-.067a2.233,2.233,0,0,0,.406-.248,2.841,2.841,0,0,0,.351-.411c.028-.037.06-.076.089-.113a1.913,1.913,0,0,1,1.209-.854c.008,0,.015,0,.023,0a2.266,2.266,0,0,1,1.655.727c.112.091.269.22.4.308-.011-.086-.038-.2-.063-.309l0-.011c-.117-.509-.352-1.214-.518-1.709-.47-1.392-.747-2.272-.556-2.8a.5.5,0,0,1,.311-.3.51.51,0,0,1,.186-.024h.01a1.108,1.108,0,0,1-.39-.574c0-.016,0-.031-.006-.046a1.016,1.016,0,0,1,.087-.679,3.016,3.016,0,0,1,.606-.774,2.87,2.87,0,0,0,.247-.263,1.758,1.758,0,0,0,.428-1.247,1.741,1.741,0,0,1-.257.109c-.865.269-2.019-.135-3.428-1.187l-.206-.146a4.658,4.658,0,0,1-.717-.575l-.025,0a2.4,2.4,0,0,1-.3.164,1.547,1.547,0,0,1-.6.129,1.723,1.723,0,0,1-.958-.357c-.039-.025-.087-.052-.129-.078a3.053,3.053,0,0,0-.637-.216c-.074-.008-.146-.018-.225-.024a2.388,2.388,0,0,1-1.075-.262.5.5,0,0,1-.161-.164,2.849,2.849,0,0,0-.4-.138,1.627,1.627,0,0,1-.227-.01.646.646,0,0,0-.237.108c-.055.052-.108.1-.155.135a1.043,1.043,0,0,0-.14.13,1.744,1.744,0,0,0,.137.379,2.243,2.243,0,0,1,.158,1.5,1.278,1.278,0,0,1-.117.571,2.75,2.75,0,0,1-1.13,1.089,2.35,2.35,0,0,0-.626.5,2.378,2.378,0,0,0-.3.757,10.274,10.274,0,0,1-.38,1.07,8.223,8.223,0,0,0-.371,1.087,1.41,1.41,0,0,0,.006.432A7.963,7.963,0,0,1,294.4,324.119Z" transform="translate(-293.362 -315.048)" fill="#b8b8b8"/>
</svg>
