<svg xmlns="http://www.w3.org/2000/svg" width="27.446" height="40.809" viewBox="0 0 27.446 40.809">
  <path id="Trazado_42" data-name="Trazado 42" d="M199.786,285.4l.206-.327a8.09,8.09,0,0,1,.913-1.264,2.424,2.424,0,0,1,.659-.558,1.748,1.748,0,0,1,.458-.185,1.719,1.719,0,0,1,.5-.091.611.611,0,0,1,.471.283l.1-.022c.1-.022.191-.04.236-.047l.192-.028a1.841,1.841,0,0,0,.608-.155,3.1,3.1,0,0,0,.673-.5,5.3,5.3,0,0,1,.609-.489,3.449,3.449,0,0,1,.61-.324c1.117-.542,1.853.136,2.458.694a6.78,6.78,0,0,0,.621.521,1.808,1.808,0,0,0,.73.2c.146.02.306.041.485.076a1.726,1.726,0,0,1,.18.058c.028.007.052.009.08.018s.037.019.058.026a2.133,2.133,0,0,1,1.139.991c.073.115.156.239.25.364.046.052.1.1.143.149a2.393,2.393,0,0,0,.576.39,3.134,3.134,0,0,1,.849.577,1.916,1.916,0,0,1,.316.433c.1.067.2.135.3.2l.184.123c.007-.132.015-.264.02-.4.015-.342.03-.684.076-1.025a6.529,6.529,0,0,1,.511-1.66c.052-.127.1-.257.155-.387.028-.075.051-.146.076-.218a4.688,4.688,0,0,0,.221-.829l.007-.047a4.538,4.538,0,0,0,.041-.834c-.019-.116-.052-.265-.087-.406a2.449,2.449,0,0,1-.093-1.361c.013-.035.044-.055.061-.087l0-.009c.005-.011.015-.015.021-.026a.962.962,0,0,1,.275-.291,3.819,3.819,0,0,1,1.38-.485,7.084,7.084,0,0,0,.748-.189,3.576,3.576,0,0,0,.536-.351c.036-.029.069-.049.1-.08.124-.1.247-.213.362-.327.048-.048.1-.1.139-.144s.082-.093.122-.14a2.293,2.293,0,0,0,.143-.195c.025-.038.046-.076.067-.114a1.9,1.9,0,0,0,.106-.566,4.125,4.125,0,0,1,.076-.53c.009-.046.013-.092.026-.138l-.383-.2a10.1,10.1,0,0,1-3-2,1.34,1.34,0,0,1-.592-.967,1.051,1.051,0,0,1,.416-.886c.016-.025.029-.041.045-.069a2.832,2.832,0,0,0,.313-.9c.039-.172.079-.35.136-.542a3.88,3.88,0,0,1,.18-.476,4.906,4.906,0,0,1,.17-.654c.25-.723.22-.753-.277-1.246-.131-.131-.281-.28-.447-.463-.287-.316-.557-.646-.826-.977a13.413,13.413,0,0,0-1.378-1.5c-.085-.061-.172-.13-.254-.187a5.152,5.152,0,0,1-.8-.64,1.536,1.536,0,0,1-.634-1.206,5.23,5.23,0,0,1,.65-2.049l.019-.042a5.478,5.478,0,0,1,.247-.547,3.831,3.831,0,0,0,.18-.5,5.054,5.054,0,0,0-.131-2.591l-.009-.041a4.477,4.477,0,0,1-3.241.093c-.071-.034-.14-.078-.21-.119-.053-.032-.1-.066-.154-.1a3.047,3.047,0,0,1-.337-.26,3.364,3.364,0,0,1-.347-.349c-.011-.013-.023-.02-.033-.033s-.014-.022-.022-.033a3.886,3.886,0,0,1-.671-1.585c-.184-.755-.321-1.2-.978-1.459a1.756,1.756,0,0,0-.635-.1l-.025,0a3.145,3.145,0,0,0-1.572.853c-.134.112-.271.23-.414.356l-.166.145a3.3,3.3,0,0,1-1.042.725.684.684,0,0,1-.517-.031c-.028-.014-.04-.04-.065-.056-.387-.254-.4-.808-.374-1.368a3.687,3.687,0,0,1,1.216-2.691l.351-.4a1.555,1.555,0,0,0-1-2.6c-.025-.007-.047-.015-.072-.021-.136-.036-.27-.071-.39-.112a7.861,7.861,0,0,1-1.385-.681l-.412-.234a2.849,2.849,0,0,0-.966-.35c-.04,0-.079-.014-.119-.018a5.121,5.121,0,0,0-1.075.028,2.13,2.13,0,0,1-.964-.138c-.159-.057-.31-.12-.445-.181s-.237-.105-.345-.144c-.012.017-.026.033-.04.05l-.014.018a.507.507,0,0,1-.435.152.7.7,0,0,0-.281.019.651.651,0,0,0-.067.017.55.55,0,0,0-.214.149.773.773,0,0,0-.159.308c-.006.024-.016.047-.02.071a.92.92,0,0,0,0,.347c.005.03.01.06.018.09a1.131,1.131,0,0,0,.064.185c.005.012.01.026.016.038a1.686,1.686,0,0,0,.1.169,1.089,1.089,0,0,1,.176.4.769.769,0,0,1,.021.154.739.739,0,0,1,0,.094.925.925,0,0,1-.223.53c-.024.039-.037.072-.066.112a7.571,7.571,0,0,1-.811.913c-.34.344-.743.76-.762,1.015a.385.385,0,0,0,.025.145.874.874,0,0,0,.168.187c.057.037.124.076.212.126a3.693,3.693,0,0,1,.473.32,1.379,1.379,0,0,1,.692.882.506.506,0,0,1,.007.135,5.2,5.2,0,0,1,.367,1.6,1.555,1.555,0,0,1-1.319,1.622,7.978,7.978,0,0,1-2.119.611c-.159.029-.318.058-.473.09a9.045,9.045,0,0,1,.96,5.231c-.022.217-.052.436-.083.655a5.493,5.493,0,0,0-.064,1.71,3.931,3.931,0,0,0,.89,1.66c.112.148.226.3.337.455a21.076,21.076,0,0,1,1.523,2.517,7.1,7.1,0,0,1,.562,1.546c.05.186.1.377.166.583.181.584,1.017,1.124,2.354,1.523.114.034.228.06.339.087.563.13,1.414.33,1.448,1.5a2.341,2.341,0,0,1-.424,1.257,2.233,2.233,0,0,0-.286.629,6.146,6.146,0,0,0,.12,2.052,6.629,6.629,0,0,1,.074,2.692,1.565,1.565,0,0,1-1.043,1.259,2.711,2.711,0,0,0-.469.25,2.941,2.941,0,0,0-.612.85,5.048,5.048,0,0,1-.552.832,3.877,3.877,0,0,1-.37.349,2.244,2.244,0,0,0-.325.317,1.063,1.063,0,0,0-.132.343,2.09,2.09,0,0,1-.208.538,1.356,1.356,0,0,1-.6.541,2,2,0,0,0,.183.085,1.129,1.129,0,0,0,.715,0c.107-.025.224-.05.358-.073a3.358,3.358,0,0,1,.543-.057,1.381,1.381,0,0,1,1.017.46,1.445,1.445,0,0,1,.3.467,7.2,7.2,0,0,1,.707-1.109C199.6,285.673,199.7,285.529,199.786,285.4Z" transform="translate(-192.052 -246.126)" fill="#b8b8b8"/>
</svg>
