<svg xmlns="http://www.w3.org/2000/svg" width="43.931" height="80.979" viewBox="0 0 43.931 80.979">
  <path id="Trazado_59" data-name="Trazado 59" d="M283.984,164.943a1.816,1.816,0,0,1,.1-.181,4.073,4.073,0,0,1,1.038-.984c.1-.076.2-.149.292-.219.029-.024.067-.05.1-.075.086-.079.168-.149.26-.239a5.769,5.769,0,0,1,1.062-.859.2.2,0,0,0,.006-.026c-.226-.229-.427-.444-.622-.657l-.016-.014c-.086-.089-.153-.166-.209-.231l-.111.063a4.564,4.564,0,0,0-.729.722c-.564.631-1.147,1.285-1.788,1.309s-1.326-.6-2.06-1.348c-.134-.138-.253-.259-.345-.342s-.193-.186-.306-.3a3.509,3.509,0,0,0-.734-.627,1.153,1.153,0,0,0-.523.251c-.162.139-.355.322-.59.564l-.137.141a6.2,6.2,0,0,0-1.351,3.086,15.955,15.955,0,0,1-.455,1.631c-.031.086-.065.154-.1.231a1.983,1.983,0,0,1-.6.912,2.089,2.089,0,0,1-1.572.288h-.089a3.716,3.716,0,0,0-2.6,1.243,5.708,5.708,0,0,1-.573.4l-.042.04c-.226.209-.443.41-.65.588a1.351,1.351,0,0,0-.448,1.008c.039.148.073.285.091.393.084.522.146,1.047.206,1.573a1.613,1.613,0,0,1,.825.441c.047.039.1.086.158.128a.461.461,0,0,1,.039-.157,1.175,1.175,0,0,1,.746-.8,1.209,1.209,0,0,1,.673.082,1.778,1.778,0,0,1,1.278.539,3.288,3.288,0,0,1,.736,2.1,5.888,5.888,0,0,1-.091,1.57,6.508,6.508,0,0,1-.755,1.882,1.043,1.043,0,0,1-.314.254,8.707,8.707,0,0,0-.682,1.177,2.123,2.123,0,0,1-.218.465,2.525,2.525,0,0,1-.271.341,1.641,1.641,0,0,1-.241.224c-.022.015-.042.031-.065.046a.936.936,0,0,1-.383.156h0a.725.725,0,0,1-.1.023h0a.6.6,0,0,1-.084-.019,1.293,1.293,0,0,1-.9-.47,2.489,2.489,0,0,1-.362-.541,1.263,1.263,0,0,0-.155-.252,1.319,1.319,0,0,0-.42.217c-.124.139-.245.289-.32.383a5.388,5.388,0,0,1-.359.416c-.783.762-1.689,1.555-2.85,2.5l-.007,0c-.083.072-.167.147-.249.219l-.231.2c-.149.13-.374.29-.626.467-.39.273-1.116.783-1.207,1.053-.067.2.4.693.619.933.116.124.223.24.308.346.013.016.028.04.042.057.031.035.07.076.092.105.147.186.285.381.424.575a4.118,4.118,0,0,0,1.246,1.321l.2.1.055.029a1.066,1.066,0,0,1,.327.08,3.094,3.094,0,0,1,1.174,1.175,2.246,2.246,0,0,1,.274.986c.008.061.022.13.029.186a1.135,1.135,0,0,0,.282.783,3.349,3.349,0,0,0,.313.275,2.145,2.145,0,0,1,.652.767,1.936,1.936,0,0,1,.235.889,7.107,7.107,0,0,1-.018.91c-.012.189-.017.358-.016.522a3.3,3.3,0,0,0,.412,1.22c.081.144.169.291.269.436s.2.285.314.436l.087.112a3.807,3.807,0,0,0,.553.62.887.887,0,0,0,.236.018,1.245,1.245,0,0,1,.789.187,1,1,0,0,1,.175.166,1.311,1.311,0,0,1,.289.346,1.27,1.27,0,0,1,.161.449.837.837,0,0,1,.462.161,1.173,1.173,0,0,1,.488,1.044l.009.173a.5.5,0,0,1-.408.533.869.869,0,0,1-.158.015c.051.043.085.088.128.131a1.579,1.579,0,0,1,.218.148c.125.114.227.216.321.31a2.739,2.739,0,0,0,.634.518,3.086,3.086,0,0,1,.6.493,2.32,2.32,0,0,0,.351.306,8.873,8.873,0,0,0,1.109.088,5.993,5.993,0,0,1,2.956.583,1.325,1.325,0,0,1,.2.174l0,0a.906.906,0,0,1,.1.091.984.984,0,0,1,.172.852.685.685,0,0,1-.334.452.606.606,0,0,1-.127.054,1.775,1.775,0,0,1,.217.206c.021.022.05.041.069.065a.769.769,0,0,1,.16.34.5.5,0,0,1-.878.407.4.4,0,0,0-.129-.1,1.276,1.276,0,0,0-.7-.067,2.259,2.259,0,0,0-1.1.453.728.728,0,0,0-.2.229.5.5,0,0,1-.4.291.5.5,0,0,1-.455-.194,2.824,2.824,0,0,0-1.838-.986,6.32,6.32,0,0,0-2.64.328c-.027.009-.055.024-.083.034a4.291,4.291,0,0,0-1.482,1.231,1.96,1.96,0,0,0-.277.638,1.035,1.035,0,0,0,.071.669,1.262,1.262,0,0,0,.091.156,4.061,4.061,0,0,0,.5.3c.637.349,1.507.829,1.266,1.606a1.114,1.114,0,0,1-.964.665h0c-.255.1-.432.182-.479.312a2.563,2.563,0,0,0-.112.465,8.431,8.431,0,0,0,.06,1.119c.023.235.046.455.055.646l.006.156c.015.336.025.679.019,1.026a4.349,4.349,0,0,1-.267,1.771.512.512,0,0,0-.007.072c.051.289.5.7.833,1a7.009,7.009,0,0,1,.5.49,14.829,14.829,0,0,1,2.17,3.094,5.83,5.83,0,0,1,.589,3.434,7.121,7.121,0,0,1-.289,1.206,3.53,3.53,0,0,0-.229,1.625,1.482,1.482,0,0,0,.021.149,4.2,4.2,0,0,0,1.124,1.665c.142.14.287.279.449.412.114.094.232.181.348.266l.015.011a2.114,2.114,0,0,1,1.091,1.621,1.922,1.922,0,0,1-.07.579,4.916,4.916,0,0,1-.416.994,2.1,2.1,0,0,0-.317,1,1.9,1.9,0,0,0,.018.319,9.6,9.6,0,0,0,.24,1.087,9.165,9.165,0,0,1,.267,1.321,4.128,4.128,0,0,1,.008.964c-.026.22-.076.463-.129.717-.021.1-.04.2-.058.292-.14.726-.167,1.225.173,1.521a.864.864,0,0,0,.15.109.565.565,0,0,0,.421.094,1.175,1.175,0,0,0,.485-.373,2.1,2.1,0,0,1,.718-.553,3.7,3.7,0,0,1,1.934.034,2.758,2.758,0,0,0,1.494.045c0-.028,0-.056,0-.083a5.5,5.5,0,0,0-.052-.721l-.032-.278v-.021a1.163,1.163,0,0,0-.09-.129.5.5,0,0,1-.107-.475,1.872,1.872,0,0,1,.542-.928,1.283,1.283,0,0,1,.85-.465,1.581,1.581,0,0,1,1.09.3,4.092,4.092,0,0,1-.456-2.68,9.709,9.709,0,0,1,1.233-2.646c.06-.09.123-.173.187-.255l.01-.013a3.345,3.345,0,0,1,.292-.317l.008,0a1.918,1.918,0,0,1,.513-.379,2.838,2.838,0,0,1,1.252-.224c.285-.015.568-.014.832-.01.236,0,.465,0,.67-.007a1.305,1.305,0,0,0,1.026-.372,3.984,3.984,0,0,0,.341-.646,2.815,2.815,0,0,1,.919-1.284.93.93,0,0,1,.539-.13c.018-.009.044-.025.061-.032l0-.042a.9.9,0,0,0-.043-.176,2.821,2.821,0,0,0-.135-.259,3.36,3.36,0,0,0-.964-.9l-.051-.038a3.887,3.887,0,0,1-1.083-.989,2.363,2.363,0,0,1-.11-.233,2.142,2.142,0,0,1-.131-.247c-.01-.025-.013-.052-.022-.077s-.019-.066-.028-.1a4.351,4.351,0,0,1-.124-1.9l0-.02c.008-.057.015-.112.024-.168a9.487,9.487,0,0,1,.334-1.528c.055-.172.119-.334.179-.49a1.931,1.931,0,0,0,.207-.973,3.363,3.363,0,0,0-.42-.859c-.107-.178-.222-.37-.336-.585a1.829,1.829,0,0,1-.81,0,1.468,1.468,0,0,1-.578-.247,1.174,1.174,0,0,1-.419-1.259,1.991,1.991,0,0,1,.423-.721c.055-.071.117-.141.181-.213l.023-.025a5.917,5.917,0,0,1,.628-.593c.05-.042.1-.08.146-.119.023-.018.045-.037.069-.055a4.263,4.263,0,0,1,.689-.465,1.172,1.172,0,0,1,.169-.054c.04-.017.084-.041.12-.053a.435.435,0,0,1,.1-.008c.088-.015.173-.023.246-.029a.726.726,0,0,0,.39-.107l.115-.094a8.63,8.63,0,0,0,.664-.6,7.048,7.048,0,0,1,1.047-.888c.049-.032.121-.074.178-.109.021-.013.036-.03.057-.042.048-.03.094-.052.142-.08.066-.039.133-.076.206-.116.126-.069.249-.134.37-.193.067-.033.131-.064.2-.1.178-.081.352-.151.519-.209.033-.011.064-.025.1-.036a4.344,4.344,0,0,1,.495-.131c.039-.008.073-.006.111-.011s.056-.016.084-.02a1.867,1.867,0,0,1,.2-.008l.073,0a3.085,3.085,0,0,1,1.06.2,2.563,2.563,0,0,1-.183-.713c0-.035,0-.065,0-.1a1.924,1.924,0,0,1,0-.4,3.674,3.674,0,0,1,.356-1.117,4.592,4.592,0,0,0,.212-.558,1.978,1.978,0,0,0,.05-.279c0-.076-.008-.163-.013-.235l0-.048,0-.011a1.164,1.164,0,0,1,.057-1.029.994.994,0,0,1,.868-.253h.028c.061-.079.145-.2.239-.327a2.378,2.378,0,0,1,.631-.661.532.532,0,0,1,.391-.136.832.832,0,0,1,.123,0l.038,0a1.1,1.1,0,0,1,.464.141,1.423,1.423,0,0,1,.524.528c.086.136.086.136.2.156a1.558,1.558,0,0,0,.889-.261c.121-.083.24-.171.354-.258.79-.6,1.557-1.276,2.3-1.934l.448-.393c.049-.043.1-.091.147-.134l.074-.059c.087-.077.174-.155.261-.23s.244-.2.421-.327c.261-.211.517-.428.78-.636.365-.29.731-.579,1.09-.878.594-.491,1.049-1.187.976-1.489a.2.2,0,0,0-.061-.087,1.606,1.606,0,0,0-.476-.124,2.064,2.064,0,0,1-.993-.364.945.945,0,0,1-.493-.742,4.877,4.877,0,0,1-.051-1.846c.016-.146.03-.281.037-.4.021-.327.032-.653.042-.98,0-.194.012-.388.014-.582,0-.014,0-.029,0-.043q.008-.39.014-.781l.013-.919c0-.2.026-.443.05-.713a10.63,10.63,0,0,0,.06-1.277,1.748,1.748,0,0,0-.326-.851.876.876,0,0,0-.66-.292,6.7,6.7,0,0,0-.92.045c-.048,0-.1.008-.145.012-.076.007-.157.021-.23.023-.009,0-.019,0-.028,0a4.893,4.893,0,0,1-.767.008,3.2,3.2,0,0,1-.445-.071l-.116-.021a.5.5,0,0,0-.048.084,1.479,1.479,0,0,1-.367.55,1.361,1.361,0,0,1-.868.4.442.442,0,0,1-.055.015,1.407,1.407,0,0,1-1.037-.465,3.111,3.111,0,0,1-.6-.8c-.057-.1-.1-.175-.146-.241a1.658,1.658,0,0,0-.215-.193.738.738,0,0,0-.437,0,1.552,1.552,0,0,0-.214.092,1.466,1.466,0,0,1-1.094.174.573.573,0,0,1-.1-.028c-.009,0-.018-.011-.027-.016h0l-.009-.007a.438.438,0,0,1-.063-.043l-.008-.008a.459.459,0,0,1-.059-.058l-.017-.024a.615.615,0,0,1-.05-.073c-.008-.013-.017-.031-.025-.046s-.031-.058-.047-.1c-.008-.017-.016-.04-.025-.059-.018-.044-.036-.087-.056-.141l0,0c-.085-.23-.187-.557-.33-1.041l-.013-.045-.022-.074c0-.009,0-.021-.007-.031a5.158,5.158,0,0,1-.155-.809,3.4,3.4,0,0,0-.169-.8,1.2,1.2,0,0,0-.128-.251c.013.025-.056.02-.115.019a1.806,1.806,0,0,1-.778-.161,2.831,2.831,0,0,1-.895-.666,3.566,3.566,0,0,0-.263-.243,1.644,1.644,0,0,0-.3-.093c-.148-.033-.331-.074-.578-.15-.037-.011-.061-.035-.1-.048a1.217,1.217,0,0,1-.542-.278,2.526,2.526,0,0,1-.706-1.154,3.544,3.544,0,0,0-.187-.436.5.5,0,0,1-.064-.239.491.491,0,0,1,.058-.239.5.5,0,0,1,.4-.265.643.643,0,0,0,.353-.12.412.412,0,0,0,.068-.071.259.259,0,0,0,.023-.024.566.566,0,0,0,.056-.1,2.368,2.368,0,0,0-.344-1.9c-.008-.011-.014-.028-.022-.039a1.66,1.66,0,0,0-1.277-.667,1.111,1.111,0,0,0-.117-.008.47.47,0,0,0-.08.012c-.1.021-.261.065-.376.1l-.1.027c-.548.152-1.1.288-1.476-.006a.364.364,0,0,1-.167-.38.479.479,0,0,1,0-.173v0l.009-.019a7.023,7.023,0,0,1,.276-.666,3.265,3.265,0,0,0,.291-.857c0-.075,0-.151,0-.234a3.976,3.976,0,0,1,.03-.614c.024-.161.052-.292.077-.4.007-.03.014-.057.019-.083-.048-.029-.131-.074-.27-.141a2.592,2.592,0,0,0-.534-.151,2.845,2.845,0,0,1-.9-.307,1.588,1.588,0,0,1-.285-.237,1.294,1.294,0,0,1-.425-.539,2.519,2.519,0,0,1-.092-1.3,12.432,12.432,0,0,1,.279-1.679,12.208,12.208,0,0,0,.228-1.3,7.272,7.272,0,0,0-.3-1.263c-.083-.273-.164-.555-.234-.848,0-.015-.012-.029-.016-.044a3.414,3.414,0,0,1-.089-.569c-.009-.067-.027-.127-.034-.2-.016-.185-.021-.377-.027-.571a3.782,3.782,0,0,0-.094-.89c-.135-.386-.4-.5-.967-.5l-.045,0a1.763,1.763,0,0,1-.671.007c-.325-.036-.66-.2-.875-.806-.012-.034-.012-.064-.022-.1a1.223,1.223,0,0,1,.049-.994C283.962,164.984,283.973,164.964,283.984,164.943Z" transform="translate(-264.05 -160.932)" fill="#b8b8b8"/>
</svg>
