<svg xmlns="http://www.w3.org/2000/svg" width="74.596" height="52.381" viewBox="0 0 74.596 52.381">
  <path id="Trazado_25" data-name="Trazado 25" d="M380.8,363.3c-.033-.162-.051-.332-.069-.5,0-.016,0-.029-.006-.045a7.253,7.253,0,0,0-.45-1.03,1.5,1.5,0,0,1-.457-.683,2.045,2.045,0,0,1,.474-1.835c.043-.066.082-.129.132-.2a2.979,2.979,0,0,0,.637-2.287l0-.062c-.008-.255-.011-.485,0-.7l0-.051c0-.032.007-.063.011-.1a2.837,2.837,0,0,1,.059-.331l.007-.018a1.823,1.823,0,0,1,.184-.442c.013-.022.025-.043.039-.064a2.493,2.493,0,0,1,.73-.732c.081-.057.184-.108.279-.161a2.856,2.856,0,0,0,.451-.331c.338-.326.354-.6.358-1.228v-.269c0-.412,0-1.034.456-1.3a.748.748,0,0,1,.2-.08l.015-.136a2.5,2.5,0,0,0-.034-1.179c-.1.009-.207.018-.31.018a7.86,7.86,0,0,1-1.244-.131c-.21-.033-.416-.067-.615-.088-.384-.041-.776-.059-1.163-.093-.093,0-.193.005-.278,0-3.122-.161-6.765-.36-10.519-.623-.047,0-.094-.005-.14-.009l-.369-.027-.735-.053c-.137-.011-.294-.013-.458-.016a5.883,5.883,0,0,1-1.17-.107.959.959,0,0,1-.942-.647,3.533,3.533,0,0,1-.156-.478l0-.006c0-.016-.005-.027-.009-.043-.035-.142-.062-.275-.084-.391-.076-.39-.1-.481-.345-.625l-.106-.029-.023-.006-.087-.009a1.533,1.533,0,0,1-.7-.2,2.478,2.478,0,0,1-.7-.791l-.082-.125c-.175-.258-.33-.527-.485-.8-.066-.116-.142-.227-.21-.342-.079-.1-.156-.2-.237-.294a5.537,5.537,0,0,1-.862-1.258,1.866,1.866,0,0,1-.3-1.036,1.911,1.911,0,0,1,.432-1.056,1.249,1.249,0,0,0,.251-.475c-.02.009-.04.012-.06.019a.694.694,0,0,1-.112.036H362a1.189,1.189,0,0,1-.483-.012.647.647,0,0,1-.29.286,3.4,3.4,0,0,0-.413.267h0c-.018.014-.037.027-.055.039-.091.066-.261.194-.377.289a.492.492,0,0,1-.229.212,4.57,4.57,0,0,1-.771.259,2.59,2.59,0,0,0-.856.341c-.312.215-.61.457-.907.7-.109.089-.218.174-.327.261a1.837,1.837,0,0,1-.893.642c-.021.007-.035.017-.057.023h0a1.449,1.449,0,0,1-.452.124,1.134,1.134,0,0,1-.49-.067h-.017a2.073,2.073,0,0,0-.7.029h0a1.69,1.69,0,0,1-.516.125,1.829,1.829,0,0,1-.311-.022l-.038,0a1.891,1.891,0,0,1-.281-.049,1.632,1.632,0,0,1-.355-.131c-.037-.02-.069-.046-.1-.068a1.965,1.965,0,0,1-.4-.342,5.423,5.423,0,0,1-.976-1.66c-.063-.15-.126-.292-.189-.431l-.054-.108q-.126-.248-.248-.5a3.612,3.612,0,0,1-.577-2.108,2.664,2.664,0,0,1,.649-1.323l.012-.021.1-.132a9.13,9.13,0,0,0,.719-1.082,3.638,3.638,0,0,0,.183-.4,3.171,3.171,0,0,0,.115-.461,2.2,2.2,0,0,0,.015-.592c-.1-.916-.54-1.117-1.515-1.485l-.367-.141-.009,0a5.133,5.133,0,0,1-.563-.222c-.134-.064-.282-.143-.437-.227s-.33-.176-.5-.256a2.184,2.184,0,0,0-.4-.131,1.059,1.059,0,0,0-.541.165,1.5,1.5,0,0,1-1.066.189c-.014,0-.027,0-.042-.006l0,0h-.005a.438.438,0,0,1-.106-.069.426.426,0,0,1-.1-.063.482.482,0,0,1-.069-.124.51.51,0,0,1-.05-.088v0l0,0a.5.5,0,0,1,.022-.309v-.006l-.173-.05c-.038-.01-.074-.025-.111-.036a2.647,2.647,0,0,1-.34-.11c-.018-.007-.033-.018-.051-.026a1.1,1.1,0,0,1-.243-.126c-.036-.028-.062-.062-.094-.092-.009-.008-.021-.01-.029-.019s-.013-.021-.022-.03a2.611,2.611,0,0,1-.543-.935l-.006-.012a3.294,3.294,0,0,0-.278-.558c-.026-.036-.056-.07-.084-.105a3.187,3.187,0,0,0-.24-.272c-.088-.085-.177-.17-.273-.256a5.617,5.617,0,0,1-.648-.651c-.025-.031-.04-.065-.063-.1-.009-.012-.02-.021-.029-.033-.034-.046-.057-.1-.087-.144s-.076-.115-.107-.176a5.261,5.261,0,0,1-.44-1.291c-.17-.716-.3-1.17-.743-1.463-.093-.062-.2-.113-.293-.171-.132-.056-.27-.109-.409-.16a6.361,6.361,0,0,1-.63-.257c-.474-.233-.934-.5-1.385-.777a2.736,2.736,0,0,1-.15,2.2,3.175,3.175,0,0,1-.631.82l-.146.151a5,5,0,0,1-.593.551,1.583,1.583,0,0,1,.1.7.817.817,0,0,1,.007.132,1.523,1.523,0,0,1-.078.289,2.958,2.958,0,0,1-1.417,1.931,6.093,6.093,0,0,0-1.385.985l-.027.034a3.97,3.97,0,0,1-.924.992,3.285,3.285,0,0,1-3.018.065l-.156-.049-.051-.013a2.818,2.818,0,0,0-2.45.287c-.052.035-.1.071-.154.109a3.066,3.066,0,0,0-.871,1.124c-.027.082-.057.155-.083.245a2.042,2.042,0,0,1-.825,1.324,1.141,1.141,0,0,1-.544.154l-.014,0c-.013,0-.023.005-.037.006a1.476,1.476,0,0,1-1.236-.805,5.275,5.275,0,0,1-.375-.742l-.066-.148c-.046-.1-.088-.211-.13-.319-.034-.086-.067-.168-.1-.247-.018-.042-.043-.071-.062-.109a1.54,1.54,0,0,0-.445-.354,3.109,3.109,0,0,1-.492-.374,1.229,1.229,0,0,1-.13-.1,1.641,1.641,0,0,1-.244-1.941,3.626,3.626,0,0,0,.149-.48,2.474,2.474,0,0,0,.07-.509c-.007-.024-.014-.049-.02-.068-.011.006-.025.01-.036.016l-.093.062a3.584,3.584,0,0,1-.407.25.543.543,0,0,1-.336.045,1.072,1.072,0,0,0-.314.389,4.284,4.284,0,0,0-.625,1.988,2.5,2.5,0,0,0,.363.865,3.694,3.694,0,0,1,.452,1.051,1.581,1.581,0,0,1-.715,1.923l-.006.006a1.972,1.972,0,0,1-1.37.6.189.189,0,0,0-.023-.005,1.307,1.307,0,0,1-.392-.034c-.564-.153-.894-.66-1.211-1.212-.264-.462-.391-.533-.853-.514-.069.005-.131.009-.215.019-.186.019-.383.04-.6.044-.107,0-.22-.016-.33-.024-.091,0-.192,0-.279,0-.725-.028-.99-.014-1.3.46-.064.1-.1.167-.15.25a1.628,1.628,0,0,1-1.133,1.319,1,1,0,0,1-.524-.024c-.033.006-.06.012-.094.017a1.97,1.97,0,0,0-.328.08,3.4,3.4,0,0,1-.365,2.16c-.063.155-.116.287-.15.395a7.811,7.811,0,0,0-.156,3.239,5.115,5.115,0,0,0,.537,1.068,4.349,4.349,0,0,1,.74,1.815,6.6,6.6,0,0,1,.011.988c-.029.671-.047,1.075.464,1.507.059.027.115.05.176.084a4.331,4.331,0,0,1,.85.629c.1.063.2.125.3.19a12.157,12.157,0,0,1,1.8,1.279,2.527,2.527,0,0,1,1.235,2.218,3.889,3.889,0,0,1-.415,1.31c-.043.092-.079.181-.118.271-.053.258-.1.523-.138.8-.049.311-.105.627-.174.944a2.982,2.982,0,0,1-.514,1.516,2.38,2.38,0,0,1-1.9.926l-.021,0a1.132,1.132,0,0,1,.065.3,1.267,1.267,0,0,1-.058.459l-.009.034a1.873,1.873,0,0,1-.2.423c-.018.03-.038.059-.058.089a3.339,3.339,0,0,1-.292.356c-.058.063-.121.126-.187.189-.121.115-.245.222-.368.323-.034.027-.058.054-.093.082-.063.048-.117.091-.166.131a1.383,1.383,0,0,0-.172.167.675.675,0,0,0-.053.07.6.6,0,0,0-.044.083,1.815,1.815,0,0,0,0,.778c.115,1.2-.112,2.012-1.573,2.313a4.373,4.373,0,0,0-1.936.7l0,0a6.932,6.932,0,0,0,2.075.517c.272.04.543.08.8.129a5.282,5.282,0,0,1,.91.284,3.7,3.7,0,0,0,.792.243,2.318,2.318,0,0,0,.447,0,2.836,2.836,0,0,1,.656.006c.151.023,1.46.239,1.842.77a.693.693,0,0,1,.126.526c0,.012,0,.025-.007.036a17.51,17.51,0,0,1,1.642.912c.073.048.2.155.356.283.109.09.312.26.478.384l.007,0a.491.491,0,0,1,.579.106,1.012,1.012,0,0,1,.3.932v0c1.029.8,2.39.814,3.82.828.531.006,1.056.011,1.56.056.367.033.741.06,1.117.086,2.029.145,4.126.294,5.885,1.457a13.6,13.6,0,0,0,5.306,2.476,8.5,8.5,0,0,1,1.61.525c.99.395,2.015.8,2.745.424a3.118,3.118,0,0,1,2.153-.442,4.565,4.565,0,0,0,2.737-.489l.587-.333a27.9,27.9,0,0,1,4.573-2.247,12.371,12.371,0,0,0,1.25-.543,12.068,12.068,0,0,1,1.495-.632c.9-.292,1.766-.537,2.654-.752.959-.233,1.525-.4,1.978-1.1a2.715,2.715,0,0,1,1.014-1.072,1.9,1.9,0,0,0,.527-.446c.07-.079.151-.167.255-.273a2.315,2.315,0,0,1,1.135-.569,1.884,1.884,0,0,0,.57-.218.739.739,0,0,1,.549-.8.924.924,0,0,1,.7.1c.037.017.073.035.1.045a5.179,5.179,0,0,0,1.044-.087,1.333,1.333,0,0,1-.614-.343,1.149,1.149,0,0,1-.286-.919,1.235,1.235,0,0,1,.536-.894,1.5,1.5,0,0,1,.805-.238c.189-.012.24-.014.349-.128a1.947,1.947,0,0,0,.292-.429,1.685,1.685,0,0,1,1.045-.937,1.411,1.411,0,0,1,1.809.7,3.115,3.115,0,0,1,.227.639.311.311,0,0,0,.09.155.936.936,0,0,1,.245.4.555.555,0,0,1,.167-.285,2.382,2.382,0,0,1,2.144-.514,1.289,1.289,0,0,1,.858,1.076c.172,1.091-.972,1.517-1.729,1.8l-.008,0c.334.012.773.007,1.313-.012.168-.007.292-.012.374-.01a9.777,9.777,0,0,1,1.767.123c-.005-.029-.009-.057-.013-.083l0-.025a.514.514,0,0,1-.328-.521.508.508,0,0,1,.24-.386.692.692,0,0,1,.08-.567,1.041,1.041,0,0,1,.784-.533c.608-.053,1.1.459,1.458.838.078.082.148.156.208.21a2.351,2.351,0,0,0,1.018.6.794.794,0,0,0,.555-.055,2.6,2.6,0,0,1,.5-.141,1.046,1.046,0,0,1,1.311.628,4.235,4.235,0,0,0,.155-.932,8.146,8.146,0,0,0-.193-1.366Z" transform="translate(-309.312 -323.307)" fill="#b8b8b8"/>
</svg>
