<svg xmlns="http://www.w3.org/2000/svg" width="36.271" height="50.85" viewBox="0 0 36.271 50.85">
  <path id="Trazado_28" data-name="Trazado 28" d="M323.6,331.455c.009.011.024.02.033.03a1.777,1.777,0,0,0,.381.287,2.37,2.37,0,0,1,.738.628,1.727,1.727,0,0,1,.136.238,3.725,3.725,0,0,1,.153.355c.029.074.057.15.088.219l.084.189a4.92,4.92,0,0,0,.3.6c.119.193.255.342.4.343h0c.187,0,.279-.156.453-.759.03-.1.06-.2.091-.3a2.471,2.471,0,0,1,.125-.321,3.438,3.438,0,0,1,.646-.87l.024-.025a4.05,4.05,0,0,1,.4-.356c.081-.063.163-.122.248-.178a4.606,4.606,0,0,1,.411-.241c.026-.012.051-.026.078-.037.131-.066.256-.139.4-.194a4.047,4.047,0,0,1,2.608.132c1.135.32,1.8.461,2.435-.273.17-.2.324-.366.475-.517a6.955,6.955,0,0,1,1.645-1.194,1.977,1.977,0,0,0,.973-1.4c.005-.03.017-.058.021-.089s0-.032,0-.05a.593.593,0,0,0-.086-.385,1.124,1.124,0,0,0-.089-.125c-.044-.051-.093-.105-.152-.167a2.65,2.65,0,0,1-.576-.845c-.007-.017-.017-.026-.023-.043a3.164,3.164,0,0,1-.157-.679c-.009-.061-.02-.135-.031-.19l0-.02c-.022,0-.076,0-.16.01a3.236,3.236,0,0,0-1.231.532,4.073,4.073,0,0,1-1.168.527,1.4,1.4,0,0,1-.728-.005,2.019,2.019,0,0,1-1.16-1.194,5.082,5.082,0,0,1-.253-.7,2.674,2.674,0,0,0-.339-.806.706.706,0,0,0-.2-.186.7.7,0,0,0-.089-.042.383.383,0,0,0-.05-.024.338.338,0,0,0-.113-.018l-.012,0a1.2,1.2,0,0,0-.386.1l-.048.017a1.77,1.77,0,0,1-.919.122,1.943,1.943,0,0,1-1.358-1.235,3.517,3.517,0,0,1-.248-.885,2.563,2.563,0,0,1-.016-.85c0-.013.007-.024.01-.036a1.461,1.461,0,0,1,.182-.491c.136-.22.279-.422.42-.62a3.5,3.5,0,0,0,.7-1.4c.005-.027.014-.049.018-.076,0-.012.006-.022.007-.033a5.935,5.935,0,0,0-.162-1.872c-.042-.22-.083-.44-.117-.657l-.044-.261a2.737,2.737,0,0,1-.056-.9l0-.029a1.39,1.39,0,0,1,.611-.889,4.246,4.246,0,0,1,1-.5c.028-.009.062-.023.088-.03a1.687,1.687,0,0,1,.965.048h0a1.07,1.07,0,0,0,.36.062,1.363,1.363,0,0,0,1.026-.7.669.669,0,0,0,.088-.29c0-.214-.263-.3-.524-.343-.035-.006-.071-.013-.105-.017a3.645,3.645,0,0,0-.582,0,2.478,2.478,0,0,1-1.475-.255,2.126,2.126,0,0,1-.523-.475,1.722,1.722,0,0,0-.246-.25,1.4,1.4,0,0,0-.464-.19c-.021-.006-.046-.017-.067-.023a3.152,3.152,0,0,1-.41-.139,1.663,1.663,0,0,1-1-.957,2.83,2.83,0,0,1-.136-.872c-.007-.163-.014-.339-.039-.53a1.109,1.109,0,0,0-.092-.33,1.2,1.2,0,0,0-.541-.484,4.707,4.707,0,0,1-.655-.457.5.5,0,0,1-.154-.513.787.787,0,0,1,.171-.307l0,0a2.724,2.724,0,0,1,1.017-.576,3.328,3.328,0,0,0,.508-.235,1.843,1.843,0,0,0,.368-.48c.019-.036.034-.073.051-.11a3.3,3.3,0,0,0,.184-1.827c-.021-.168-.029-.325-.067-.506a3.274,3.274,0,0,1,.336-2.485,6.287,6.287,0,0,1,.592-.843c.131-.159.3-.33.48-.508l.1-.1a3.456,3.456,0,0,0,.982-1.277c.069-.346-.19-.519-1.207-.807-.078-.022-.15-.045-.225-.067a3.819,3.819,0,0,1-.6-.214,5.009,5.009,0,0,1-.824-.545,5.366,5.366,0,0,0-.454-.317.844.844,0,0,0-.823-.114c-.464.176-.484.335-.542.808-.01.075-.025.165-.038.251a2.924,2.924,0,0,1-.156.629c-.228.593-.563.926-.995.989a1.114,1.114,0,0,1-.156.007,1.579,1.579,0,0,1-1.184-.762.894.894,0,0,0-.647-.319,1.921,1.921,0,0,1-1.235-.6,4.294,4.294,0,0,1-1.17-2.783,4.48,4.48,0,0,1,.2-1.786.893.893,0,0,1,.344-.394.615.615,0,0,1,.143-.088l0,0h0l.037-.01a.515.515,0,0,1,.185-.125.408.408,0,0,0-.112.05c.022-.014.067-.048.119-.086.09-.068.2-.154.273-.215l.007-.006a.446.446,0,0,1,.038-.051.6.6,0,0,1,.05-.063l.018-.015a.414.414,0,0,1,.256-.118.307.307,0,0,1,.074,0h0a.923.923,0,0,1,.906.674.689.689,0,0,0,.048.106.274.274,0,0,0,.086-.026l.012-.011a1.6,1.6,0,0,0,.505-.758,2.816,2.816,0,0,0,.118-.374c.008-.032,0-.056.007-.087a1.2,1.2,0,0,0,.029-.374c0-.016,0-.033-.006-.048l0-.009c-.058-.25-.258-.454-.71-.649a3.072,3.072,0,0,0-.294-.1c-.082-.025-.16-.056-.242-.08a2.271,2.271,0,0,1-1.652-1.142,3.293,3.293,0,0,1-.029-2.026h-.005l-.2-.041a4.154,4.154,0,0,0-1.068-.127.379.379,0,0,0-.075.01c.033,0,.05.256.059.408a2.187,2.187,0,0,1-.077.968,1.821,1.821,0,0,1-.159.285,2.5,2.5,0,0,1-.83.78c-.009.258.006.7.014.934a3.544,3.544,0,0,1,0,.636,2.425,2.425,0,0,1-.169.495c-.016.06-.039.119-.061.179l-.011.025a3.965,3.965,0,0,1-1.324,1.381c-.116.08-.229.153-.341.225a4.245,4.245,0,0,0-.567.424,1.711,1.711,0,0,0-.238.262c-.059.1-.11.194-.164.291-.025.065-.05.133-.074.2a1.948,1.948,0,0,1-.7,1.1,1.58,1.58,0,0,1-.8.2.876.876,0,0,0-.271.035.843.843,0,0,0-.111.3,1.568,1.568,0,0,0,.081.54.955.955,0,0,0,.411.05,1.6,1.6,0,0,1,1.267.409,4.861,4.861,0,0,1,.784,2.177,1,1,0,0,1-.382.535,6.634,6.634,0,0,1-.418.962,1.661,1.661,0,0,1-.156.552,6.345,6.345,0,0,1-.777,1.135,7.728,7.728,0,0,0-.5.673c-.053.083-.082.135-.119.2a1.088,1.088,0,0,0-.06.193,1.712,1.712,0,0,0,.257.8l.032.068c.182.272.359.551.532.832q.324.523.673,1.024h0a.625.625,0,0,0,.4.042,1.371,1.371,0,0,0,.288-.147l.011-.006a1.281,1.281,0,0,1,1.213-.209,1.069,1.069,0,0,1,.59,1.138,1.492,1.492,0,0,1,.232.067,1.657,1.657,0,0,1,.194.056,2.256,2.256,0,0,1,.211.112,3.711,3.711,0,0,1,.485.315l.077.056c.06.049.109.091.163.137l.118.1.14.119c.04.033.1.074.169.121a1.733,1.733,0,0,1,.669.646l.006.017a1.66,1.66,0,0,1,.068.191c0,.015.007.03.011.046a.893.893,0,0,1,.023.186.652.652,0,0,1-.016.164v0a.724.724,0,0,1-.216.353l-.016.024a.741.741,0,0,1-.175.2,1.606,1.606,0,0,0,.176.18.751.751,0,0,1,.1.1c.015.015.036.029.049.044l.1-.041a1.337,1.337,0,0,1,.753-.136,1.767,1.767,0,0,1,1.14.9c.15.221.279.412.439.47a2.815,2.815,0,0,0,.343.087,1.458,1.458,0,0,1,.988.522.725.725,0,0,1,.08.114.98.98,0,0,1-.005.718,1.834,1.834,0,0,1-.108.248c-.032.062-.062.115-.083.149a2.142,2.142,0,0,1-2.407.738c-.774-.1-1.04-.1-1.182.18a.835.835,0,0,0-.023.458c.009.082.017.174.021.271a1.243,1.243,0,0,1-.409,1.023,1.37,1.37,0,0,1-.118.1,1.246,1.246,0,0,1-.9.3,1.1,1.1,0,0,1-.713-.533.92.92,0,0,0-.216-.246c-.01-.006-.019-.009-.029-.014a.353.353,0,0,0-.259-.038.942.942,0,0,0-.179.08c-.027.017-.056.038-.085.06a5.516,5.516,0,0,0-.636.624c-.173.19-.364.4-.573.587a2.06,2.06,0,0,1-1.5.642,1.765,1.765,0,0,1-.7-.183l-.007,0-.01-.009a1.658,1.658,0,0,1-.6-.637,1.743,1.743,0,0,0-.131-.193c-.056-.066-.118-.118-.176-.176a6.437,6.437,0,0,0-.62-.538c-.03-.023-.061-.05-.091-.073-.107-.083-.213-.165-.323-.257a3.676,3.676,0,0,1-.515-.541c-.033-.043-.069-.084-.1-.127-.044-.063-.09-.123-.131-.186-.105-.154-.2-.309-.3-.463a5.32,5.32,0,0,0-.693-.945,2.3,2.3,0,0,0-.248-.205,1.971,1.971,0,0,1-.639-.689,1.166,1.166,0,0,1-.1-.663.91.91,0,0,0,.005-.118c-.135-.181-.633-.22-1.073-.253-.128-.009-.257-.022-.385-.037l-.086-.008-.018,0a2.559,2.559,0,0,1-.382-.084c-.013,0-.027,0-.04-.009-.009.021-.016.041-.025.062a2.918,2.918,0,0,0-.171.444c0,.019-.007.037-.008.056a6.242,6.242,0,0,0,.172,1.667c.036.189.072.374.1.552a12.856,12.856,0,0,1,.179,2.117,5.917,5.917,0,0,1-.231,2.528c0,.012-.011.019-.015.031a2.84,2.84,0,0,0,.063.512,3.211,3.211,0,0,1,.085.99,3.716,3.716,0,0,1-.788,1.731,5.05,5.05,0,0,1-.579.687c.106.1.233.21.325.291l.015.012a1.451,1.451,0,0,1,.709.8.115.115,0,0,1,.01.019l0,.02c.008.029.024.051.03.082s0,.043.006.066a.847.847,0,0,1-.208.945.7.7,0,0,1-.445.138,1.226,1.226,0,0,1-.583-.109c.12.433.3.956.434,1.366a18.177,18.177,0,0,1,.563,1.87l.005.017c.13.544.233,1.148-.209,1.425a.609.609,0,0,1-.286.09c-.016.005-.029.018-.046.021-.531.118-.986-.251-1.423-.608-.289-.236-.635-.513-.873-.51a2.49,2.49,0,0,0-.645.542l-.029.037a3.746,3.746,0,0,1-.489.56,4.533,4.533,0,0,1-1.8.864,3.278,3.278,0,0,1,.019.7c0,.1,0,.176,0,.257.06.183.12.364.16.533.017,0,.034.013.05.016a.589.589,0,0,1,.337.153l.1.093.022.021a1.473,1.473,0,0,0,.126.12.406.406,0,0,1,.144.15c0,.006.011.008.015.015l.014.024c.02.029.045.054.063.085a.733.733,0,0,1,.492.068.835.835,0,0,1,.389.532,1.574,1.574,0,0,1,.133.406,1.1,1.1,0,0,0,.037.163c.116.133.122.139.521.053.085-.019.176-.038.274-.055l.011,0h0a.475.475,0,0,1,.053,0,.505.505,0,0,1,.365.114h0a.5.5,0,0,1,.167.4,2.3,2.3,0,0,0,.013.346,2.01,2.01,0,0,0,1.231,1.493c.026.01.049.024.075.034l.064.027a5.676,5.676,0,0,0,1.911.292c.173-.018.348-.04.527-.064a3.556,3.556,0,0,1,2.715.353,6.7,6.7,0,0,1,1.013.892c.033.037.056.072.086.108.04-.011.084-.024.141-.042a3.279,3.279,0,0,1,.565-.136c.133-.017.229-.032.313-.051.286-.061.348-.158.55-.515.033-.059.072-.125.111-.192.064-.11.134-.227.222-.361a2.111,2.111,0,0,1,2.175-.909c.084,0,.178,0,.266,0,.124,0,.243.009.375,0l.35-.022c.09-.007.178-.012.266-.017a1.719,1.719,0,0,1,1.846,1.013c.191.332.411.69.605.743a.456.456,0,0,0,.112-.01,1.136,1.136,0,0,0,.491-.177c.1-.057.18-.11.257-.162.487-.329.555-.579.4-.95a4.993,4.993,0,0,0-.3-.572,3.656,3.656,0,0,1-.624-1.792,4.657,4.657,0,0,1,.826-2.282l.072-.126a1.911,1.911,0,0,1,.549-.683.661.661,0,0,1,.429-.123.785.785,0,0,1,.189.031c.046-.03.092-.061.137-.093s.108-.071.165-.107.108-.061.165-.091a.908.908,0,0,1,.678-.094c.018.005.034,0,.051.007a.609.609,0,0,1,.153.11.984.984,0,0,1,.106.061c.019.015.031.034.048.05a1.585,1.585,0,0,1,.327.662h0a2.4,2.4,0,0,1-.18,1.455C323.455,330.982,323.4,331.206,323.6,331.455Z" transform="translate(-300.676 -284.975)" fill="#b8b8b8"/>
</svg>
