<svg xmlns="http://www.w3.org/2000/svg" width="24.117" height="28.483" viewBox="0 0 24.117 28.483">
  <path id="Trazado_35" data-name="Trazado 35" d="M280.089,295.378c.042.012.081.038.122.054a3.233,3.233,0,0,1,1.375,1.692,9.083,9.083,0,0,1,.934,1.8c.013.034.03.068.042.1l.041-.061.005-.006a8.157,8.157,0,0,1,.842-.943,5.824,5.824,0,0,0,.89-1.049,1.08,1.08,0,0,0,.147-.54c.005-.108,0-.218,0-.34a2.475,2.475,0,0,1,.141-1.126,1.39,1.39,0,0,1,.573-.683,2.351,2.351,0,0,1,.861-.281,2.272,2.272,0,0,0,.342-.079.431.431,0,0,0,.154-.083.49.49,0,0,0,.131-.314,5.85,5.85,0,0,0-.012-1.215,3.148,3.148,0,0,1,.674-2.806l.008-.009.009-.007a12.963,12.963,0,0,1,3.516-1.921c.285-.12.569-.239.844-.361l0,0a2.86,2.86,0,0,1-.2-1.356l0-.061c.011-.107.026-.212.044-.315a5,5,0,0,1,.2-.874,2.63,2.63,0,0,1,1.077-1.293,1.747,1.747,0,0,0,.694-.764c.012-.031.029-.055.04-.089.053-.167.132-.369.216-.584.1-.244.2-.521.272-.764a1.792,1.792,0,0,0,.08-.367.79.79,0,0,0-.156-.3c-.034-.05-.069-.1-.1-.161a.82.82,0,0,1-.137-.562c.113-.721.793-.777,1.119-.8a2.339,2.339,0,0,0,.235-.026c0-.022-.009-.063-.019-.119a.5.5,0,0,1,.779-.5c.744.525,1.083.4,1.816.057l.088-.042c.172-.08.354-.165.553-.249a1.659,1.659,0,0,0,.226-.125,2.453,2.453,0,0,1,.491-.233l.011,0a.93.93,0,0,1,.119-.042c0-.034,0-.068.008-.1a1.49,1.49,0,0,0-.017-.544.341.341,0,0,0-.061-.113c-.017-.02-.034-.039-.065-.07-.014-.013-.027-.027-.041-.042l-.015-.005c-.084-.033-.151-.061-.21-.087a.767.767,0,0,1-.14-.075.523.523,0,0,1-.126-.118l-.014-.013-.007-.012h0a.742.742,0,0,1-.122-.514c0-.075-.012-.136-.013-.226,0-.073,0-.139-.005-.182a6.253,6.253,0,0,0-.372-1.163l-.157-.407c-.188-.513-.331-1.034-.469-1.538l-.084-.3c-.139-.335-.282-.67-.4-1.006a3.581,3.581,0,0,0-.238-.561,5.189,5.189,0,0,0-.378.379,1.711,1.711,0,0,1-.9.7l-.1.043a1.508,1.508,0,0,0-.362.192.711.711,0,0,0-.246.393,3.163,3.163,0,0,1-.248.531,2.242,2.242,0,0,1-.35.42,1.493,1.493,0,0,1-.36.347c-.08.054-.194.109-.3.164l-.005,0c-.072.038-.133.074-.214.112a3.818,3.818,0,0,1-1.456.444,2.394,2.394,0,0,1-.257.034h-.008c-1.038,0-1.336-.62-1.626-1.217l-.068-.142c-.3-.612-.589-.83-.715-.83h-.007c-.1.006-.342.194-.572.864l-.052.156a3.292,3.292,0,0,1-.228.557,7.543,7.543,0,0,0-.1,1.183,2.688,2.688,0,0,0,.071.7c.005.018.018.035.025.053a1.956,1.956,0,0,0,.258.454c.03.042.059.086.09.128a1.925,1.925,0,0,1,.435.861.944.944,0,0,1-.015.337,1.245,1.245,0,0,1-.474.684,1.631,1.631,0,0,1-.458.31c-.024.013-.041.027-.066.04a.319.319,0,0,1-.033.012l-.037.014a2.441,2.441,0,0,1-1.674.133c-.112-.025-.226-.05-.33-.076a2.268,2.268,0,0,0-1.072-.1.542.542,0,0,0-.053.018c-.153.049-.2.122-.288.395-.008.025-.014.04-.023.069-.034.105-.07.215-.115.331a5.915,5.915,0,0,1-.514,1c-.079.133-.16.267-.239.41a.69.69,0,0,0-.027.068,3.4,3.4,0,0,0-.168.94,2.674,2.674,0,0,1-.527,1.688,1.513,1.513,0,0,1-1.792.2c-.072-.029-.139-.058-.2-.084-.113-.048-.221-.1-.324-.129a.609.609,0,0,0-.562.034,3.123,3.123,0,0,1-.451.157c-.032.009-.057.019-.091.027a2.057,2.057,0,0,1-1.467-.3,1.922,1.922,0,0,0-.408-.171.531.531,0,0,0-.118-.028.653.653,0,0,0-.424.215,5.89,5.89,0,0,0-1.065,1.806c-.052.114-.1.221-.153.33-.125.271-.25.532-.378.75-.324.559-.424.746-.226.967a2.856,2.856,0,0,0,.481.374,3.6,3.6,0,0,1,1.59,2.934c.016.13.032.26.047.393l.072.626a2.916,2.916,0,0,0,.221.974c.011.02.013.051.025.069a.423.423,0,0,0,.046.042c.034.028.074.059.109.084a1.506,1.506,0,0,1,.374.374c.009.014.022.023.031.038a1.033,1.033,0,0,1,.142.746,1.241,1.241,0,0,0,.132.185,2.974,2.974,0,0,0,.336.355c.227.205.5.423.776.637C279.738,295.088,279.915,295.233,280.089,295.378Z" transform="translate(-275.076 -270.547)" fill="#b8b8b8"/>
</svg>
