<svg xmlns="http://www.w3.org/2000/svg" width="42" height="67.133" viewBox="0 0 42 67.133">
  <path id="Trazado_58" data-name="Trazado 58" d="M485.407,281.209c-.209.336-.416.668-.591,1-.144.274-.283.561-.422.849a11.34,11.34,0,0,1-1.427,2.414,9.43,9.43,0,0,1-2.278,1.8l-.407.258c-1.573,1.016-3.134,2.073-4.681,3.132-.737.5-1.478,1.01-2.2,1.508l-.535.369q-2.985,2.055-5.983,4.1-4.08,2.781-8.143,5.586c-.066.046-.145.094-.22.141-.155.1-.321.2-.5.3a5.266,5.266,0,0,0-1.417,1.045,1.106,1.106,0,0,0-.109.137c-.014.026-.017.065-.029.093a5.85,5.85,0,0,0-.106,2.383c.029.35.056.676.059.951.019,1.61.019,3.22.021,4.831,0,1.427,0,2.856.016,4.284,0,.457.017.917.023,1.375q.031,2.27.076,4.542c.09,4.409.182,8.963.024,13.442v0c.26.006.521.017.781.026.4.017.8.027,1.211.031h.011c.093,0,.217,0,.361.011.09,0,.228.009.377.012.111,0,.225,0,.34,0a1.616,1.616,0,0,0,.549-.069.225.225,0,0,0,.041-.065.713.713,0,0,0,.052-.345c0-.113-.009-.238-.023-.392-.015-.17-.029-.36-.028-.558a1.75,1.75,0,0,1,.481-1.3,2.911,2.911,0,0,1,1.531-.705,1.43,1.43,0,0,1,.39.037,1.045,1.045,0,0,1,.618.445.433.433,0,0,0,.16.162,2.13,2.13,0,0,0,.355.142,2.237,2.237,0,0,1,.719.35,5.408,5.408,0,0,1,.644.592l.116.118a1.351,1.351,0,0,1,.057-.279c0-.01,0-.023.007-.033l0,0a.339.339,0,0,1,.017-.033,2.221,2.221,0,0,1,.284-.513c.033-.046.068-.083.1-.126.064-.078.128-.162.191-.233s.149-.169.222-.262c.194-.249.386-.516.57-.771l.2-.27c.081-.112.14-.182.187-.238a.624.624,0,0,0,.14-.29l.014-.044.107-.353a10.4,10.4,0,0,1,.349-1.028.739.739,0,0,1,.15-.557,1.239,1.239,0,0,1,.561-.415,1.258,1.258,0,0,0,.158-.08c.048-.043.083-.079.116-.114a1.149,1.149,0,0,0,.243-.456l.072-.192a3.77,3.77,0,0,1,.261-.536c.089-.152.181-.292.273-.43.1-.156.209-.315.309-.5a2.675,2.675,0,0,0,.209-.573c.022-.081.045-.159.067-.243a4.891,4.891,0,0,1,.29-.877,1.778,1.778,0,0,1,1.144-1.009,3.17,3.17,0,0,1,1.371-.026,2.048,2.048,0,0,0,1.02-.019c.024-.01.042-.033.065-.045a3,3,0,0,0,1.047-1.641c.114-.292.23-.593.367-.864a.869.869,0,0,1-.4.16.494.494,0,0,1-.556-.41c-.159-.908.662-1.368,1.26-1.7.284-.159.672-.377.725-.534a.491.491,0,0,1,.527-.338c.016-.043.033-.084.051-.122a3.067,3.067,0,0,1,1.135-1.385.492.492,0,0,1,.442-.027.5.5,0,0,1,.29.335c.053.2.115.416.177.635a6.457,6.457,0,0,1,.363,3.337,2.269,2.269,0,0,1-.353.7,1.73,1.73,0,0,0-.2.357,1.141,1.141,0,0,0-.023.309,1.632,1.632,0,0,1-.1.663,1.387,1.387,0,0,1-.413.52c.012.017.027.039.045.062a1.926,1.926,0,0,0,.813.354c.157.045.3.088.428.135a1.359,1.359,0,0,0,.148.047,1.423,1.423,0,0,1,.723.386.858.858,0,0,1,.208.664,1.9,1.9,0,0,0,.149.143,1.944,1.944,0,0,1,.551.733,1.368,1.368,0,0,1,.083.289.465.465,0,0,1,.124.047.518.518,0,0,1,.054.033c.133-.273.288-.531.446-.8l.076-.128a6.6,6.6,0,0,0,.638-3.236l.014-.422a3.624,3.624,0,0,1,.563-2.119c.1-.152.207-.286.309-.418a2.63,2.63,0,0,0,.5-.842,11.162,11.162,0,0,0,.334-1.733c.035-.252.07-.5.111-.75a9.252,9.252,0,0,1,.29-1.139c.071-.235.14-.462.194-.686l-.011-.014c-.273-.35-.005-.687.209-.958a1.886,1.886,0,0,0,.181-.243,3.834,3.834,0,0,0,.188-.84c.029-.2.06-.406.109-.62a5.093,5.093,0,0,1,.629-1.495.5.5,0,0,1-.088-.2.647.647,0,0,1-.014-.174c-.033.021-.06.039-.079.054a1.4,1.4,0,0,0-.219.468,1.675,1.675,0,0,1-.822,1.1,1.07,1.07,0,0,1-1.1-.044,1.271,1.271,0,0,1-.456-1.168,1.241,1.241,0,0,1,.137-.452.494.494,0,0,1-.113-.476.957.957,0,0,1,.144-.3,1.192,1.192,0,0,1,.137-.606,2.514,2.514,0,0,1,.6-.826,2.945,2.945,0,0,1,1.829-.855h0a.5.5,0,0,1,.365.158.568.568,0,0,1,.069.094,2.889,2.889,0,0,0,.65-.757,2.146,2.146,0,0,0,.177-.489.794.794,0,0,1-.349-.068l-.023-.011a.535.535,0,0,1-.327.112,2.175,2.175,0,0,1-.725-.151c-.258-.088-.389-.128-.554-.066a3.589,3.589,0,0,0-.27.265c-.337.349-.794.824-1.362.613a.5.5,0,0,1-.318-.4,1.464,1.464,0,0,1,.072-.652,2.466,2.466,0,0,1-1.279-1.4,1.176,1.176,0,0,1,.486-1.573,1.394,1.394,0,0,1,1.262.025c.022-.066.043-.125.062-.17l.11-.28a2.854,2.854,0,0,1,1.277-1.73,1.386,1.386,0,0,1,.418-.286h0a.5.5,0,0,1,.453.055,3.927,3.927,0,0,0,.322-.472.892.892,0,0,1-.155-.554c0-.069-.006-.149-.016-.239l-.012-.1a1.921,1.921,0,0,1,.084-1.062.49.49,0,0,1,.2-.217,6.339,6.339,0,0,1,.48-4.307,7.16,7.16,0,0,1,.657-1,6.646,6.646,0,0,0,.435-.635l.143-.253c.381-.677.774-1.379,1.232-2.052a10.913,10.913,0,0,1,1.8-2.149,25.819,25.819,0,0,0,2.662-2.815l.407-.472a7.443,7.443,0,0,0,1.9-3.088c.044-.166.083-.351.123-.543a4.561,4.561,0,0,1,.533-1.582.622.622,0,0,1,.4-.264,1.145,1.145,0,0,1,.074-.623c.032-.072.109-.217.2-.393.047-.088.121-.225.193-.364a1.384,1.384,0,0,1-.541-.313c-.578-.539-.764-1.549-.584-3.18.016-.143.045-.3.075-.451.1-.486.14-.794-.052-.963a1.876,1.876,0,0,0-.372-.11.455.455,0,0,1-.08.1.511.511,0,0,1-.428.136,1.166,1.166,0,0,1-.871-.922,1.206,1.206,0,0,0-.08-.211,7.923,7.923,0,0,0-1.121-1.519,1.6,1.6,0,0,0-1.563-.6,1.142,1.142,0,0,1,.258.235l0,0a.5.5,0,0,1,.072.52c.012.088.031.194.046.26a.5.5,0,0,1,.04.347h0a1.806,1.806,0,0,1-.3.647c-.787,1.132-2.615,1.058-3.164,1.01-.071-.007-.188-.013-.334-.022a7.074,7.074,0,0,1-2.809-.474c-.025-.015-.054-.029-.077-.045,0,.1,0,.221,0,.36v.128a23.821,23.821,0,0,0,.112,2.548l.061.785.051.666a9.476,9.476,0,0,1-.1,3.217,7.635,7.635,0,0,1-.957,2.012Z" transform="translate(-456.291 -268.699)" fill="#b8b8b8"/>
</svg>
