<svg xmlns="http://www.w3.org/2000/svg" width="62.589" height="58.274" viewBox="0 0 62.589 58.274">
  <path id="Trazado_36" data-name="Trazado 36" d="M283.848,247.13c.139-.089.275-.18.4-.269a1.369,1.369,0,0,0,.252-.223.784.784,0,0,0,.048-1.068,4.62,4.62,0,0,0-.374-.507c-.067-.08-.134-.169-.2-.262a2.1,2.1,0,0,0-.616-.632,1,1,0,0,0-.488-.02,2.629,2.629,0,0,1-.614.011.5.5,0,0,1-.334-.8,2.664,2.664,0,0,0,.313-1.23,5.368,5.368,0,0,1-1.554-.139,3.264,3.264,0,0,0-1.387-.088,1.421,1.421,0,0,0-.363.316,2.256,2.256,0,0,1-.877.629,1.358,1.358,0,0,1-.841.032,1.419,1.419,0,0,1-.877-.6,2.59,2.59,0,0,1-.347-2.255q.03-.308.071-.609a7.191,7.191,0,0,0,.076-1.364c-.051-.306-.129-.61-.211-.924a10.846,10.846,0,0,1-.264-1.194,2.929,2.929,0,0,1-.016-.342c-.005-.059-.022-.114-.024-.174a2.839,2.839,0,0,1,.415-1.521c.077-.151.158-.307.232-.487a2.177,2.177,0,0,0,.161-.575c-.039-.23-.225-.415-.572-.677a1.592,1.592,0,0,1-.612-.321,2.684,2.684,0,0,1-.476-.6,5.072,5.072,0,0,1-1.32-2.042c-.019-.068-.018-.133-.031-.2a2.145,2.145,0,0,1-.06-.22,4.379,4.379,0,0,1,.27-1.994c.076-.25.151-.5.2-.744.5-2.49-1.073-4.243-2.738-6.1-.263-.293-.529-.594-.789-.9a8.389,8.389,0,0,1-1.634,1.7c-.2.17-.356.306-.456.409-.2.242-.392.49-.571.747a16.811,16.811,0,0,0-.994,1.793,19.668,19.668,0,0,1-.954,1.751,11.714,11.714,0,0,1-.975,1.283,32.667,32.667,0,0,1-4.487,4.452l-.043.038c-.633.536-1.271,1.064-1.906,1.583l-.9.738a3.077,3.077,0,0,0-.575.667c-.039.081-.079.158-.118.247a2.89,2.89,0,0,1-.625.995,2.946,2.946,0,0,1-1.162.594,2.654,2.654,0,0,0-.753.331,7.474,7.474,0,0,0-1.444,1.592,9.766,9.766,0,0,1-1.311,1.521,2.47,2.47,0,0,1-1.94.76,1.1,1.1,0,0,1-.431-.048.853.853,0,0,1-.35-.245l-.013.04a5.283,5.283,0,0,1-.915,1.622l-.069.093-.011.016a.781.781,0,0,0,.027.833,2.269,2.269,0,0,0,.267.278,2.076,2.076,0,0,1,.612.837,1.52,1.52,0,0,1-.015,1.158,5.236,5.236,0,0,1-.2.648,1.951,1.951,0,0,0-.059,1.286c.078.115.157.231.23.353.174.295.322.6.469.909a8.2,8.2,0,0,0,.568,1.051,7.3,7.3,0,0,0,.647.8c.21.217.426.432.651.65s.453.437.67.662c.083.086.166.182.249.27a9.427,9.427,0,0,1,1.345,1.61c.188.294.329.554.454.786a1.8,1.8,0,0,0,1.494,1.21c.842.191,1.139-.126,1.731-.88a5.651,5.651,0,0,1,1.1-1.138l.017-.012c.021-.016.038-.033.06-.048s.037-.019.055-.031a2.426,2.426,0,0,1,.278-.189,3.492,3.492,0,0,1,1.883-.385c.052,0,.1.012.154.017a3.821,3.821,0,0,1,.4.061c.051.011.1.023.151.036a3.677,3.677,0,0,1,.49.157l.011,0a3.756,3.756,0,0,1,.587.288,2.929,2.929,0,0,1,.437.338c.009.008.019.013.028.021.09.077.156.16.234.24a2.326,2.326,0,0,1,.755,1.8,1.586,1.586,0,0,1-.56,1.1l0,0a3.225,3.225,0,0,0-.4,2.747c.043.283.111.577.179.873a3.979,3.979,0,0,1-.176,3.246c-.06.089-.131.17-.193.257-.028.042-.05.082-.081.125-.107.149-.227.291-.341.437-.052.064-.1.131-.153.2-.311.387-.633.766-.955,1.134-.187.213-.372.425-.552.636l0,0c-.027.033-.057.064-.083.1l-.016.019a2.513,2.513,0,0,0,1.037.009,1.84,1.84,0,0,0,.307-.106c.023-.01.044-.014.068-.023a1.569,1.569,0,0,1,1.655.024c.011.009.023.014.034.024l.345.3a3.715,3.715,0,0,0,1.79,1.062,3.007,3.007,0,0,0,.385.057c.033,0,.057.012.091.014l.063,0,.265.01.093,0a6.584,6.584,0,0,1,1.874.244l.079.027c.083.031.167.064.25.1s.166.082.249.127c.042.023.083.044.124.07a3.546,3.546,0,0,1,.388.271l.027.02c.012.01.024.017.037.027.383.323.744.667,1.1,1.012.429.411.842.8,1.291,1.148.054.043.1.091.159.132a7.824,7.824,0,0,0,2.21,1.278c.031.008.062.014.093.02a.965.965,0,0,0,.432.011c.113-.033.121-.042.212-.237a2.227,2.227,0,0,1,.257-.432c.014-.018.021-.035.037-.053a1.823,1.823,0,0,1,.7-.465c.034-.015.061-.029.093-.044a.741.741,0,0,0,.243-.152.285.285,0,0,0,.048-.1c.012-.039.024-.085.038-.143a1.317,1.317,0,0,1,.467-.81,1.334,1.334,0,0,1,.323-.179h0c.03-.012.06-.021.091-.031a2.248,2.248,0,0,1,.95-.044l.209.022a6.745,6.745,0,0,1,1.837.435,18.7,18.7,0,0,1,2.455,1.2c.6.332,1.177.637,1.759.9.107.048.214.106.322.15.3.123.61.234.918.345.271.1.543.2.811.3a4.3,4.3,0,0,1,.52.285c.117.071.3.179.4.228a.555.555,0,0,0,.054.025c0-.007.01-.025.016-.039.034-.087.1-.283.146-.424l.056-.165c.418-1.221,1.022-1.51,1.454-1.538s1.094.19,1.682,1.386l.072.147c.279.577.331.651.73.653h0c.04,0,.106-.017.158-.024a4.546,4.546,0,0,0,1.094-.341,3.167,3.167,0,0,0,.422-.223.592.592,0,0,0,.118-.136,1.68,1.68,0,0,0,.239-.468,1.986,1.986,0,0,1,.678-1.036,2.535,2.535,0,0,1,.765-.366l.017-.006a.8.8,0,0,0,.541-.416l.015-.022c.163-.257.612-.946,1.282-.853.779.11,1.088,1.183,1.362,2.128l.07.253.1.354c.134.491.268.979.445,1.458l.148.389a6.974,6.974,0,0,1,.427,1.363,2.663,2.663,0,0,1,.019.33c0,.043,0,.089,0,.133l.093.037c.006-.005.015-.008.021-.014a1.372,1.372,0,0,1,.28-.189c.012-.006.028-.008.04-.013a2.211,2.211,0,0,1,.91-.2,1.508,1.508,0,0,1,.714.153,1.322,1.322,0,0,1,.384.334,2.847,2.847,0,0,1,.371.633c.041.091.081.177.123.257a.876.876,0,0,0,.174.242.994.994,0,0,0,.092.057l.048.03a.94.94,0,0,0,.2.105,2.315,2.315,0,0,0,1.163-.02l.053-.006a7.7,7.7,0,0,1,.8-.072,4.347,4.347,0,0,0,1.179-.158.4.4,0,0,0,.155-.105.212.212,0,0,0,0-.044,1.612,1.612,0,0,0-.023-.253,2.817,2.817,0,0,1-.044-.622,2.368,2.368,0,0,1,.142-.665l0-.02c.011-.047.039-.1.055-.15a3.413,3.413,0,0,1,1.015-1.27c.02-.017.038-.035.058-.053a2.275,2.275,0,0,1,.286-.206l.027-.017c.006-.038.013-.084.021-.14l.018-.115a2.309,2.309,0,0,0-.023-.772.88.88,0,0,0-.022-.094c-.1-.285-.235-.343-.559-.483a3.677,3.677,0,0,1-.57-.288,2.8,2.8,0,0,1-.508-.392,1.371,1.371,0,0,1-.1-.105l-.03-.04a1.094,1.094,0,0,1-.131-.236c-.015-.038-.034-.091-.051-.143a1.264,1.264,0,0,1-.052-.24c0-.021-.01-.039-.011-.06a.394.394,0,0,1,0-.048.669.669,0,0,1,.037-.221l.008-.018a.576.576,0,0,1,.2-.236.4.4,0,0,0,0-.06c0-.04,0-.08,0-.121-.007-.1-.01-.231-.006-.361a1.067,1.067,0,0,1,.279-.747.745.745,0,0,1,.613-.22.674.674,0,0,1-.005-.136.471.471,0,0,1,0-.107.775.775,0,0,1,.256-.406.69.69,0,0,1,.691-.082.975.975,0,0,1,.167.08,3.066,3.066,0,0,0,.388-.322.644.644,0,0,0,.117-.168.565.565,0,0,0,.078-.259.515.515,0,0,0,.012-.116.6.6,0,0,0-.158-.321.743.743,0,0,1-.552.089h0c-.02-.005-.029-.022-.047-.029s-.026-.014-.039-.023a1,1,0,0,1-.385-.374,1.279,1.279,0,0,1-.449-.841.618.618,0,0,1,.066-.259.757.757,0,0,1,.08-.138,1.153,1.153,0,0,1-.076-.115.508.508,0,0,1-.065-.243.757.757,0,0,1-.324-.236,1.567,1.567,0,0,1-.128-.188.8.8,0,0,1-.1-.777.759.759,0,0,1,.406-.367,1.665,1.665,0,0,1,.475-.131c.205-.028.42-.043.638-.051.108,0,.246-.009.358-.018a.962.962,0,0,0,.164-.021,2.761,2.761,0,0,0,.367-.619l.072-.145a5.315,5.315,0,0,1,.338-.617c.1-.139.2-.279.3-.418a4.005,4.005,0,0,0,.665-1.119c.2-.64-.131-1.093-.76-1.545a11.1,11.1,0,0,0-1.022-.633c-.212-.12-.416-.235-.6-.349l-.114-.071-.1-.065c-1.422-.889-1.955-1.22-3.308-.354-1.629,1.043-2.285.894-3.885.173a8.127,8.127,0,0,0-1.717-.453,6.087,6.087,0,0,1-2.731-.979,3.744,3.744,0,0,1-.995-1.62c-.06-.15-.119-.3-.182-.438a4.488,4.488,0,0,0-.474-.691c-.146-.191-.279-.376-.4-.562a.772.772,0,0,1-.6.323,1.24,1.24,0,0,1-.906-.438c-.067-.061-.127-.121-.182-.178,0,.025,0,.048,0,.073,0,.043,0,.085-.007.127a1.086,1.086,0,0,1-.029.161.983.983,0,0,1-.028.107.931.931,0,0,1-.079.158.91.91,0,0,1-.046.08.857.857,0,0,1-.2.2.734.734,0,0,1-.356.124,3.836,3.836,0,0,1-1.582-.429c-.1-.042-.184-.077-.235-.093a31.642,31.642,0,0,1-5.419-2.3l-.16-.09c-.59-.326-1.687-.932-1.256-1.983A2.7,2.7,0,0,1,283.848,247.13Z" transform="translate(-247.552 -219.047)" fill="#b8b8b8"/>
</svg>
