<svg xmlns="http://www.w3.org/2000/svg" width="65.023" height="80.313" viewBox="0 0 65.023 80.313">
  <path id="Trazado_45" data-name="Trazado 45" d="M192.145,255.587a9.835,9.835,0,0,1,1.171-.305c.238-.052.478-.1.72-.169.079-.021.147-.041.213-.06.626-.183.723-.293.714-.673a4.409,4.409,0,0,0-.375-1.437,1.321,1.321,0,0,0-.207-.34c-.016-.017-.038-.03-.055-.045a2.171,2.171,0,0,0-.4-.269c-.083-.047-.174-.1-.266-.162a1.313,1.313,0,0,1-.617-.87,1.746,1.746,0,0,1-.012-.527c0-.026,0-.048.005-.075a3.267,3.267,0,0,1,1.3-1.839c.125-.108.246-.214.353-.317.08-.077.133-.133.167-.172a3.23,3.23,0,0,1-.178-.326c-.01-.021-.018-.046-.028-.068a1.957,1.957,0,0,1-.09-.216c-.011-.033-.01-.067-.019-.1a1.88,1.88,0,0,1-.053-.275,1.768,1.768,0,0,1-.019-.177,1.91,1.91,0,0,1,.016-.3,1.572,1.572,0,0,1,.022-.168,1.8,1.8,0,0,1,.079-.256,1.7,1.7,0,0,1,.072-.188,1.768,1.768,0,0,1,.113-.181,1.668,1.668,0,0,1,.111-.175c.009-.011.022-.016.032-.027a1.252,1.252,0,0,1,.1-.089,1.518,1.518,0,0,1,.287-.229c.031-.017.065-.024.1-.039a1.583,1.583,0,0,1,.325-.132q-.007-.09-.012-.177c-.005-.067-.009-.1-.013-.155-.029-.367-.064-.393-.359-.423-.216-.021-.391-.027-.54-.032a1.879,1.879,0,0,1-1.6-.729c-.051-.055-.1-.106-.157-.169-.188-.215-.412-.428-.64-.646a5.359,5.359,0,0,1-1.385-1.738,3.223,3.223,0,0,1-.184-.781c-.005-.033-.012-.07-.017-.1-.016-.119-.031-.238-.055-.355,0-.01-.007-.02-.009-.03a4.579,4.579,0,0,0-.13-.449,5.17,5.17,0,0,1-.165-.586l0-.011,0-.01c0-.018,0-.03,0-.047a.777.777,0,0,1,.085-.449,1.22,1.22,0,0,0-.1-.151c-.054-.077-.115-.155-.185-.239a3.5,3.5,0,0,1-.375-.527c-.128-.237-.237-.475-.346-.713l-.04-.081a8.281,8.281,0,0,0-.52-1.015c-.193-.306-.387-.633-.571-.977-.15-.279-.287-.574-.414-.878-.011-.027-.026-.051-.037-.077s-.02-.071-.033-.107a6.968,6.968,0,0,1-.506-2.223c-.018-.384,0-.767.017-1.148.008-.185.016-.368.02-.548a3.524,3.524,0,0,0-.276-1.656c-.091-.186-.182-.381-.275-.581a10.118,10.118,0,0,0-1.311-2.262c-.03-.035-.058-.075-.088-.108s-.04-.052-.061-.074-.059-.051-.086-.077a16.1,16.1,0,0,0-1.5-1.243l-.051-.039c-.278-.211-.554-.42-.815-.63-.678-.547-.963-.562-1.521-.077-.179.154-.34.321-.5.484a2.889,2.889,0,0,1-1.744,1.071,2.238,2.238,0,0,1-.337,0h0a2.4,2.4,0,0,1-.6-.11c-.017-.006-.031-.015-.048-.021-.05-.016-.09-.041-.137-.06a2.617,2.617,0,0,1-.332-.16,2.256,2.256,0,0,1-.255-.182c-.041-.033-.081-.065-.118-.1a2.688,2.688,0,0,1-.425-.516,5.533,5.533,0,0,1-.625-1.6c-.085-.322-.17-.625-.259-.92a5.322,5.322,0,0,0-.8-1.7,12.582,12.582,0,0,0-.883-1.01c-.106-.113-.213-.231-.32-.347a9.309,9.309,0,0,1-.683-.816c-.038-.052-.144-.184-.225-.282-.031-.037-.059-.07-.078-.091a1.017,1.017,0,0,1-.225-.418l-.006-.016c0-.005-.013,0-.018-.009a.441.441,0,0,0-.287-.067,1.484,1.484,0,0,1-.753-.169,1.086,1.086,0,0,1-.089-.066,1.272,1.272,0,0,1-.471-.636h0a1.063,1.063,0,0,0-.107-.225,1.466,1.466,0,0,0-.216-.243c-.057-.053-.116-.107-.182-.164a3.794,3.794,0,0,1-.469-.463c-.185-.226-.362-.469-.534-.72a13.733,13.733,0,0,1-2.323-6.522,13.5,13.5,0,0,1,.3-3.143,10.966,10.966,0,0,0,.247-3.189,10.306,10.306,0,0,0-2.45-4.361,5.776,5.776,0,0,1-1.435-2.467c-.051-.187-.09-.381-.129-.575a1.979,1.979,0,0,0-.537-1.247,3.32,3.32,0,0,0-1.533-.4c-.253-.028-.495-.055-.707-.1-.151-.029-.3-.063-.453-.094l-.05-.008c-.318-.065-.666-.111-1.023-.16a8.879,8.879,0,0,1-2.222-.493,2.283,2.283,0,0,1-.376-.2,1.366,1.366,0,0,1-.343-.306,2.77,2.77,0,0,1-.521-1.659c-.031-.27-.054-.541-.076-.807-.027-.321-.053-.64-.1-.949-.054-.392-.091-.8-.127-1.211a6.774,6.774,0,0,0-.995-3.626c-.153-.195-.317-.387-.481-.581-.2-.238-.4-.482-.6-.734a4.562,4.562,0,0,1-.771-1.081,3.482,3.482,0,0,1-.264-1.238c0-.043-.009-.076-.013-.116a2.027,2.027,0,0,0-.247-.736c-.212-.315-.487-.381-.948-.4-.065.006-.127.011-.2.019a2.141,2.141,0,0,1-1.835-.38,2.877,2.877,0,0,1-.6-.862c-.218-.427-.272-.526-.864-.453a2.166,2.166,0,0,0-.46.13,1.7,1.7,0,0,0-.755.7,4.135,4.135,0,0,1-.493.588c-.016.051-.047.1-.058.147s-.019.118-.029.178a3.486,3.486,0,0,1-.244,1.594c-.017.054-.037.108-.058.162-.007.013-.011.027-.017.04a2.6,2.6,0,0,1-.575.841c-.029.03-.052.059-.084.089-.012.011-.026.022-.038.034a9.667,9.667,0,0,1-1.434,1.26c-.816.7-1.645,1.377-2.466,2.037-.436.35-.861.7-1.292,1.057-.046.039-.092.078-.137.118-1.388,1.212-2.825,2.453-4.3,3.617-.026.024-.054.051-.072.07.007.012.015.043.033.09,0-.01.082.035.133.062a.977.977,0,0,1,.495.459.739.739,0,0,1,.014.779.411.411,0,0,1-.065.067.68.68,0,0,1,.013.684.748.748,0,0,1-.589.374c-.429.023-.7-.3-.945-.59a2.77,2.77,0,0,0-.25-.267.5.5,0,0,1-.393-.288.276.276,0,0,1-.015-.036c-.4,1.883-.784,2.295-1.26,2.325a.513.513,0,0,1-.407-.168c-.128.178-.259.353-.39.526a6.342,6.342,0,0,0-1.066,1.771,2.233,2.233,0,0,0-.159.978c.014.054.026.093.034.12a.782.782,0,0,1,.3.42l.046.154c.055.186.159.544.217.707a.5.5,0,0,1,.082.288v0a.764.764,0,0,1-.418.713.61.61,0,0,1-.2.051,3.382,3.382,0,0,0,.147.484.805.805,0,0,0,.052.116.905.905,0,0,1,.087-.051c.626-.33,1.518.249,1.768.534a1.176,1.176,0,0,1,.331.828c.851-.283,1.977,1.018,1.988,1.031a2.583,2.583,0,0,1,.258.419c.053.1.125.239.166.254.141.05.475.035,1.126-.627a1.887,1.887,0,0,0,.168-.2,1.843,1.843,0,0,1,.569-.536,1.889,1.889,0,0,1,.544-.193,1.009,1.009,0,0,0,.295-.1,3.265,3.265,0,0,0,.492-.878c.287-.631.557-1.227,1.069-1.365a.658.658,0,0,1,.751.2c.295.393-.005.885-.2,1.211a2.552,2.552,0,0,1-.275.382,1.055,1.055,0,0,0-.162.224.768.768,0,0,0-.015.273,1.587,1.587,0,0,1-.07.644.5.5,0,0,1-.428.329c-.032.068-.068.149-.1.213a2.061,2.061,0,0,1-.454.744,1.5,1.5,0,0,1-.441.246l-.066.027a.878.878,0,0,1-.1.711.7.7,0,0,1-.129.137.819.819,0,0,1,.486.316.679.679,0,0,1,.114.278l.023-.005c.059-.02.1-.1.114-.154a3.7,3.7,0,0,0-.158-.335.88.88,0,0,1-.117-.856c.362-.664,1.372-.324,2.29.045.02.009.022.015.015.021a.686.686,0,0,1,.4-.016c.264.1.357.341.457.6a1.978,1.978,0,0,1-.017,1.151.524.524,0,0,1,.17.239c.05.082.15.216.217.309a1.1,1.1,0,0,1,.145.235,1.409,1.409,0,0,1,.408-.028,2.4,2.4,0,0,1,1.361.693c.11.093.221.187.338.269a.5.5,0,0,1,.207.327c.283.122.557.262.825.4.206.1.412.209.618.3l.135.061a3.323,3.323,0,0,1,1.124.708.844.844,0,0,1,.455-.4.956.956,0,0,1,1.148.465,1.807,1.807,0,0,1,.259,1.287l.068-.009a2.652,2.652,0,0,1,.872-.022,1.253,1.253,0,0,1,.747.512c.057.07.126.153.219.251a1.361,1.361,0,0,0,.127.114.532.532,0,0,1,.348-.233c.971-.088,1.877,1.008,2.222,1.475.285.362.713.905.4,1.4a.733.733,0,0,1-.136.166,1.7,1.7,0,0,1,.321,1.3c-.009.137-.025.27-.04.4-.018.155-.036.308-.042.466a.814.814,0,0,1-.035.353l.037.053a.483.483,0,0,1,.065.149,1.646,1.646,0,0,0,.1.236,1.217,1.217,0,0,1,.117,1.169.786.786,0,0,1-.527.354,1.218,1.218,0,0,1,.09.209l.092.32a2.627,2.627,0,0,0,.292.773l0,0a.5.5,0,0,1,.356-.154h.015a5.147,5.147,0,0,1,2.437,1.155,2.684,2.684,0,0,1,.785.888,1.385,1.385,0,0,0,.4.492c.05.027.1.02.26-.014a1.094,1.094,0,0,1,.766.049,1.019,1.019,0,0,1,.374.41.5.5,0,0,1,.312-.59l.057-.042a1.37,1.37,0,0,1,1.316-.363,1.462,1.462,0,0,1,.779,1.067c.021.072.042.142.065.207s.063.15.106.246a2.3,2.3,0,0,1,.306,1.074,1.01,1.01,0,0,1-.225.553.42.42,0,0,1,.014.135.611.611,0,0,1-.125.351.5.5,0,0,1-.09.375l.027.026a4.7,4.7,0,0,0,.719.508,5.29,5.29,0,0,1,.863.622c.962.894,2.042,1.712,3.087,2.5a29.494,29.494,0,0,1,4.348,3.771,8,8,0,0,1,1.119,1.684,6.372,6.372,0,0,0,.47.718,5.147,5.147,0,0,1,.716,1.229c.259.708.259.708.782,1.084a5.589,5.589,0,0,1,1.341,1.4l.142.187a8.517,8.517,0,0,0,1.156,1.173,5.815,5.815,0,0,1,1.833,2.338l.078.232a2.793,2.793,0,0,0,.305.695c.057.092.118.182.179.273a4.643,4.643,0,0,1,.41.692,1.2,1.2,0,0,1,.093.408.969.969,0,0,1,.828.368,2.3,2.3,0,0,1,.6.622c.046.063.092.126.14.186a6.818,6.818,0,0,0,1.084,1,10.443,10.443,0,0,1,.922.8,16.167,16.167,0,0,1,1.644,2.075l.273.385c.046.064.1.158.168.265a4.318,4.318,0,0,0,.321.476.981.981,0,0,1,.806-.233.5.5,0,0,1,.374.763c-.142.227.457.706.853,1.021a5.452,5.452,0,0,1,.653.578l.381.424a7.873,7.873,0,0,1,1.834,2.719.7.7,0,0,1,.129.029,1.01,1.01,0,0,1,.573,1.039.488.488,0,0,1-.024.11A3.421,3.421,0,0,0,192.145,255.587Z" transform="translate(-130.707 -175.403)" fill="#b8b8b8"/>
</svg>
