<svg xmlns="http://www.w3.org/2000/svg" width="106.008" height="107.485" viewBox="0 0 106.008 107.485">
  <path id="Trazado_65" data-name="Trazado 65" d="M133.762,186.783c-.008.123-.014.245-.018.365a1.026,1.026,0,0,1,.11-.055.354.354,0,0,1,.022-.057.521.521,0,0,1,.5-.319,1.031,1.031,0,0,1,.765.393c.006.008.015.015.021.024,1.408-1.12,2.785-2.323,4.122-3.489l.15-.13c.771-.673,1.542-1.346,2.321-2,.374-.316.775-.609,1.173-.9.1-.074.192-.143.289-.215a7.258,7.258,0,0,0,1.637-1.5,2.666,2.666,0,0,0,.177-.3,2.494,2.494,0,0,0,.254-1.5c-.011-.1-.012-.191-.032-.3a.5.5,0,0,1-.009-.1c0-.1-.123-.19-.31-.271a5.371,5.371,0,0,0-.563-.194,4,4,0,0,1-.84-.346,2.11,2.11,0,0,1-.21-.13c-.024-.02-.059-.029-.082-.051s-.033-.04-.051-.059a3.089,3.089,0,0,1-.286-.33c-.028-.036-.06-.069-.087-.107a4.08,4.08,0,0,1-.257-.433c-.055-.1-.1-.213-.146-.322s-.081-.189-.116-.289c-.017-.049-.031-.1-.046-.149a5.4,5.4,0,0,1-.034-2.939c0-.016.005-.031.009-.047a4.83,4.83,0,0,0,.024-1.889l0-.033a9.081,9.081,0,0,1-.087-1.4c.021-.664-.223-.822-.708-1.137a3.579,3.579,0,0,1-1.043-.918,2.107,2.107,0,0,1-.14-.235,3.857,3.857,0,0,1-.311-.939,3.1,3.1,0,0,0-.224-.7c-.012-.023-.018-.052-.031-.074a2.135,2.135,0,0,0-.724-.684c-.108-.075-.22-.154-.336-.241a2.358,2.358,0,0,1-.552-.543,2.267,2.267,0,0,1-.258-.571c-.034-.1-.073-.218-.129-.361a7.169,7.169,0,0,0-.782-1.345c-.114-.168-.227-.335-.334-.5-.311-.487-.608-.982-.9-1.477l-.052-.087-.294-.489-.01-.014c-.086-.139-.21-.305-.343-.484a5.863,5.863,0,0,1-.7-1.1,1.677,1.677,0,0,1-.1-.277c-.211-.893.445-1.671.973-2.3a6.379,6.379,0,0,0,.438-.555.5.5,0,0,1,.156-.151c.005,0,.012,0,.018-.007a.508.508,0,0,1,.186-.064h0a.463.463,0,0,1,.317.083.523.523,0,0,1,.085.052.184.184,0,0,0,.2.069,1.673,1.673,0,0,0,.309-.122,2.56,2.56,0,0,1,1.078-.287c.068,0,.132.018.2.022a3.83,3.83,0,0,1,.539.062l.059.013a4.908,4.908,0,0,1,.681.2l.012.005c.209.078.413.165.611.259.253.118.5.241.75.366.171.087.339.167.508.248.094.046.19.1.284.139l.018.006a1.54,1.54,0,0,0,1.227.006.96.96,0,0,0,.285-.225,1,1,0,0,0,.248-.443,6.292,6.292,0,0,0-.632-2.542c-.15-.392-.286-.749-.365-1.025-.068-.239-.171-.515-.281-.811-.38-1.027-.812-2.192-.456-3.1a3.143,3.143,0,0,1,.383-.67c.017-.025.028-.046.044-.069a1.308,1.308,0,0,0,.27-.589,3.6,3.6,0,0,0-.094-1.05c-.025-.141-.051-.28-.071-.415-.06-.409-.125-.818-.188-1.228-.048-.308-.094-.616-.142-.925-.135-.861-.271-1.732-.4-2.61-.129-.9-.247-1.809-.34-2.719-.064-.622-.117-1.245-.154-1.868a.5.5,0,0,1,.13-.366.492.492,0,0,1,.353-.162,4.914,4.914,0,0,1,.659.031,1.473,1.473,0,0,0,.457.008.336.336,0,0,0,.062-.134,1.2,1.2,0,0,0,.033-.134c.028-.14.03-.3.048-.443a16.364,16.364,0,0,0,.1-1.963c0-.549,0-1.092.041-1.607.049-.641.125-1.282.2-1.924a26.778,26.778,0,0,0,.248-3.068,11.021,11.021,0,0,0-.08-1.267c-.019-.168-.046-.336-.071-.5-.042-.287-.089-.574-.145-.861-.041-.212-.08-.425-.126-.637-.074-.338-.149-.676-.228-1.009l-.03-.133-.167-.723c-.012-.054-.02-.108-.031-.161-.163-.755-.279-1.516-.386-2.254-.039-.266-.089-.531-.13-.8-.051-.328-.1-.657-.161-.984-.008-.043-.013-.087-.021-.13a4.248,4.248,0,0,0-.539-1.627,3.359,3.359,0,0,0-.329-.376c-.082-.085-.167-.178-.251-.279a2.147,2.147,0,0,1-.418-.754c-.054-.172-.077-.361-.115-.541,0-.012-.007-.02-.009-.032l0-.028a11.288,11.288,0,0,1-.2-1.677c-.011-.217-.02-.435-.029-.65-.018-.487-.036-.964-.085-1.4q-.226-2.073-.441-4.145l-.039-.369a.931.931,0,0,1-.6.109c-.406-.067-.7-.4-.869-.979v0a2.633,2.633,0,0,1,.477-1.936l.009-.017q-5.145.048-10.288.128-4.585.064-9.169.117c-1.295.014-2.59.016-3.885.017-1.907,0-3.815.005-5.72.046-.612.014-1.223.053-1.835.091-.244.016-.493.029-.742.044-.512.029-1.029.053-1.547.054h-.012a11.993,11.993,0,0,1-4.6-1.017c-.944-.371-1.9-.727-2.862-1.078-3.033-1.109-6.12-2.125-9.159-3.109L87.2,94.264c-1.771-.572-3.54-1.143-5.3-1.73-4.193-1.4-8.394-2.776-12.594-4.157-2.074-.682-4.145-1.373-6.22-2.053-6.052-1.981-11.63-3.8-17.174-5.53l-1.744-.542q-.956-.3-1.914-.589c-.023.042-.057.085-.083.127a6.632,6.632,0,0,1-.512.693c-.061.075-.119.145-.171.211-.1.163-.193.328-.282.5-.093.2-.187.395-.27.6a7.055,7.055,0,0,1-.718,1.414,3.447,3.447,0,0,0-.415.667,2.761,2.761,0,0,0-.015.6c.005.125.009.262.01.414a2.4,2.4,0,0,1,.008.652.832.832,0,0,1-.181.378.6.6,0,0,0,.018.369l.006.018c.015.024.025.046.039.069a1.466,1.466,0,0,1,.243,1.471.864.864,0,0,1-.315.355.593.593,0,0,1-.066.365,2.237,2.237,0,0,1-.261.36c.027.025.058.054.1.087a2.741,2.741,0,0,0,.882.405,4.342,4.342,0,0,1,.993.429c.192.124.369.246.54.365a6.644,6.644,0,0,0,1.224.725,5.158,5.158,0,0,1,.74.4,1.853,1.853,0,0,0,1,.375,5.72,5.72,0,0,1,3.089,1.469,11.775,11.775,0,0,0,1.213.84,14.419,14.419,0,0,1,1.391.943,6.176,6.176,0,0,0,2.746,1.4,2.238,2.238,0,0,0,1.68-.305c.073-.042.155-.08.24-.118.034-.016.077-.035.115-.054-.543-.564-.131-1.951,0-2.2a.617.617,0,0,1,.6-.312c.5.112.515.666.521.9,0,.028,0,.056,0,.08a1.99,1.99,0,0,1,.333.052c.013,0,.053-.006.1-.009a1.492,1.492,0,0,1,.44.019.707.707,0,0,1,.375.262.689.689,0,0,0,.068.073c.19.057.475.133.759.209s.588.159.873.262c.923.333,2.187.788,2.464,2.205l.039.178A4.4,4.4,0,0,1,62,99.314c.087.019.173.035.235.046a3.076,3.076,0,0,1,.529.13l.362.144a3.9,3.9,0,0,0,1.187.338,6.321,6.321,0,0,1,1.479.433c.279.106.561.214.833.294a.5.5,0,0,1,.205-.379c.738-.541,1.526.177,2.1.7l.009.009a1.007,1.007,0,0,1,.763-.283,1.342,1.342,0,0,1,.9.661,1.662,1.662,0,0,1,.218.434,1,1,0,0,0,.078.179c0-.013.051.013.093.027a.5.5,0,0,1,.322.267c.334.695.2,3.133-.621,3.695a.556.556,0,0,1-.1.053,2.929,2.929,0,0,1,.185.8,3.175,3.175,0,0,1-.29,1.1,2.081,2.081,0,0,0-.22.844,6.091,6.091,0,0,0,.551,1.816l.078.189a11.085,11.085,0,0,0,2.063,2.984l.3.352a6.328,6.328,0,0,1,1.3,2.062,3.057,3.057,0,0,1,.194,1.294,1.588,1.588,0,0,1-.114.408c.107.029.212.064.309.1a1.8,1.8,0,0,1,.5.231h0a.492.492,0,0,1,.165.261,4.024,4.024,0,0,1,.762,2.515c.015.4.041.79.067,1.179.043.626.087,1.275.077,1.939a.821.821,0,0,1,.187.08,3.572,3.572,0,0,1,1.463,1.835c.084.181.173.371.276.568a6.873,6.873,0,0,1,.3.684,4.643,4.643,0,0,0,.321.707,2.532,2.532,0,0,0,.478.516,3.965,3.965,0,0,1,.573.6c.277.377.564.747.852,1.118.313.4.627.806.928,1.22a2.008,2.008,0,0,1,.337,1.994,5.893,5.893,0,0,0-.134.634.79.79,0,0,0,.344.83,1.912,1.912,0,0,1,.253-.232,1.49,1.49,0,0,1,1.886.18,2.331,2.331,0,0,1,.8,1.428,1.915,1.915,0,0,1-.216.962c-.029.07-.069.164-.1.248a2.233,2.233,0,0,1,.673.581,1.362,1.362,0,0,1,.107,1.146,1.305,1.305,0,0,0-.059.3,2.712,2.712,0,0,0,.143.7,3.369,3.369,0,0,1,.114.475,2,2,0,0,1-.011.436l.007,0a3.355,3.355,0,0,1,1.735,1c.17.2.314.392.452.577a2.536,2.536,0,0,0,1.318,1.107,1.983,1.983,0,0,0,.375.069c.35.044,1,.127,1.144.808a.916.916,0,0,1-.214.917.868.868,0,0,1-.877.154c-.031-.009-.06-.02-.088-.031a6.992,6.992,0,0,0,1.333,1.245,5.734,5.734,0,0,1,2.054,2.385c.3.724.575.83,1.31,1.115l.393.155c.218.088.433.193.648.3a5.037,5.037,0,0,0,1.036.421l.295.023c.622.049.789.062.922.333a.844.844,0,0,1-.191.922c-.017.022-.035.043-.05.065.017.06.066.1.24.213a2.135,2.135,0,0,1,.466.374,1.34,1.34,0,0,1,.346.7.511.511,0,0,0,.08.22,2.472,2.472,0,0,0,.324.372c.115.117.228.234.326.356a10.888,10.888,0,0,1,.741,1.106,7.11,7.11,0,0,0,.965,1.337,6.876,6.876,0,0,0,.84.674,7.312,7.312,0,0,1,.989.806.589.589,0,0,1,.071.048,1.81,1.81,0,0,1,.251.233.5.5,0,0,1,.128-.056c.738-.209,2.009-.565,2.618.713a.5.5,0,0,1,.048.223,3.982,3.982,0,0,0,.258-.6c.192-.509.357-.948.78-1.039a.664.664,0,0,1,.614.2.5.5,0,0,1,.145.349c.01.111.058.474.08.595a.49.49,0,0,1,.016.085,4.6,4.6,0,0,1,1.98.327c.038.015.14.063.273.127l.335.158a2.4,2.4,0,0,1,2.363.48.719.719,0,0,1-.156,1.032,1.135,1.135,0,0,1-.915.17c-.03-.005-.067-.01-.1-.013a1.1,1.1,0,0,1-.144.26c.006.027.01.056.014.087a.753.753,0,0,1-.016.195l-.021.107a.813.813,0,0,1,.4.145.639.639,0,0,1,.416.307.6.6,0,0,1-.084.592.676.676,0,0,1-.354.316.7.7,0,0,1,.041.224,1.037,1.037,0,0,1-.623.927.909.909,0,0,1-.334.062,4.991,4.991,0,0,0,.389.623,3.338,3.338,0,0,1,.49.861,3.932,3.932,0,0,1,.143.955,3.775,3.775,0,0,0,.074.633l.072.288c.05.2.1.4.139.608a.894.894,0,0,1,1.045.109c.175.146.293.41.467,1.045a.681.681,0,0,1,.305.6.618.618,0,0,1-.09.262,4.044,4.044,0,0,1,.453.241,3.623,3.623,0,0,1,.916.926,2.465,2.465,0,0,0,.666.682,3.465,3.465,0,0,1,.637.072c.247.08.482.169.715.256a8.49,8.49,0,0,0,1.223.39,4.964,4.964,0,0,0,1.7.15l.234-.031a1.558,1.558,0,0,1,1.267.238,5.269,5.269,0,0,1,1.506,3.4.5.5,0,0,1-.181.347c.063.184.116.369.172.565a5.036,5.036,0,0,0,1.249,2.346,1.737,1.737,0,0,0,1.866.6c.1-.023.188-.047.27-.069a2.58,2.58,0,0,1,.889-.117.9.9,0,0,1,.107-.743.993.993,0,0,1,.855-.438.7.7,0,0,1,.6.318.5.5,0,0,1,.214.239.569.569,0,0,1,.129.059c-.012-.011.038,0,.093.014a1.385,1.385,0,0,1,.992.6.776.776,0,0,1,.039.581,2.1,2.1,0,0,1,.375.221,7.731,7.731,0,0,1,.816.856c.184.215.369.43.569.622a3.794,3.794,0,0,1,1.25,1.875A4.968,4.968,0,0,1,133.762,186.783Z" transform="translate(-39.296 -79.663)" fill="#b8b8b8"/>
</svg>
