<svg xmlns="http://www.w3.org/2000/svg" width="50.256" height="23.805" viewBox="0 0 50.256 23.805">
  <path id="Trazado_56" data-name="Trazado 56" d="M380.6,330.7c.011.02.024.049.034.071.075.15.161.339.247.551a3.36,3.36,0,0,1,.216,1.138c0,.06.015.127.019.188a3.1,3.1,0,0,0,.034.319c0,.013,0,.024,0,.038.036.182.074.321.107.439a2.192,2.192,0,0,1,.036,1.251,2.083,2.083,0,0,0-.059.534c.012.35.184.555.626.821l0,0c.092.055.182.1.267.146a2.048,2.048,0,0,1,.957.84,1.844,1.844,0,0,1,.175.485,1.482,1.482,0,0,0,.047.16.206.206,0,0,0,.064.1c.076.054.115.055.3.042a1.484,1.484,0,0,1,.643.063,2.177,2.177,0,0,1,.631.411c.074.061.149.123.221.176a.97.97,0,0,0,.192.119l.167.07c.178.075.343.146.5.222a1.992,1.992,0,0,1,1.144,1.478,1.466,1.466,0,0,0,.074.181c.047.107.1.217.157.327.051.087.1.173.158.263a3.1,3.1,0,0,1,.535,1.212,3.586,3.586,0,0,1,0,.822c-.009.1-.013.19-.016.273a.751.751,0,0,0,.272.695.3.3,0,0,0,.126.064l.007,0a.829.829,0,0,0,.362-.319c.026-.055.052-.107.079-.163l.117-.248a12.046,12.046,0,0,1,.98-1.655c.026-.04.054-.094.079-.128s.048-.058.07-.085c.214-.3.423-.588.607-.833a3.792,3.792,0,0,1,.361-.4,1.275,1.275,0,0,0,.339-.433.448.448,0,0,0-.062-.164,1.631,1.631,0,0,1-.133-.386.958.958,0,0,1-.08-.333.942.942,0,0,1,.111-.479c.009-.081.033-.236.06-.387a1.084,1.084,0,0,1-.107-.457.79.79,0,0,1-.017-.435,1.747,1.747,0,0,1,.549-.77c.075-.074.18-.179.256-.269.046-.153.083-.311.116-.479a2.285,2.285,0,0,1,.708-1.453c.031-.028.064-.055.1-.083l.045-.031a2.336,2.336,0,0,1,.466-.262,2.3,2.3,0,0,1,2.383.67l.218.162a3.414,3.414,0,0,0,1.082.645h.013a.647.647,0,0,0,.144.012,1.046,1.046,0,0,0,.645-.353.481.481,0,0,1,.154-.08.475.475,0,0,1,.089-.047.5.5,0,0,1,.2.013.49.49,0,0,1,.086,0l0,0h.008a.5.5,0,0,1,.166.133c.015.016.04.023.053.042a.492.492,0,0,1,.093.272c.007.2.027.394.047.593a4.9,4.9,0,0,1,0,1.466c-.04.2-.089.38-.135.547a2.25,2.25,0,0,0-.12.93c.028.27.08.532.132.793a7.833,7.833,0,0,1,.161,1.092l.01.245c0,.076,0,.127.007.176a.521.521,0,0,0,.2.248.231.231,0,0,0,.046.013.357.357,0,0,0,.047-.012c.454-.137.779.009,1.154.523a4.169,4.169,0,0,1,.449.851,3.509,3.509,0,0,0,.373.713c.426.563.665.692.791.7.247,0,.662-.367.957-.658.477-.468.941-.949,1.406-1.429.322-.334.653-.659.979-.989a12.367,12.367,0,0,1,1.909-1.8,4.206,4.206,0,0,0,.645-.523c.033-.048.067-.1.1-.148a2.119,2.119,0,0,1,.429-.523,7.605,7.605,0,0,1,2.063-.994,5.885,5.885,0,0,1,1.19-.389,2.458,2.458,0,0,1,.837.032c.083.013.207.03.247.031a.764.764,0,0,1-.06-.6,1.131,1.131,0,0,1,.4-.516.684.684,0,0,0,.092-.08l.149-.171c.3-.4.86-1.039,1.561-.638a.834.834,0,0,1,.352.4,1.392,1.392,0,0,1,.147.382.569.569,0,0,1,.358-.338,2.3,2.3,0,0,1,.908.012,1.8,1.8,0,0,1,.679.169h0a1.442,1.442,0,0,1,.4.2c.2.163.305.446.482,1.319a4.5,4.5,0,0,1,.076.543c.019.219.019.219.181.335a.938.938,0,0,0,.3.069,1.648,1.648,0,0,1,.9.352,1.543,1.543,0,0,1,.232.258,2.912,2.912,0,0,1,.6,1.317,4.422,4.422,0,0,1,.144,1.548,1.15,1.15,0,0,1-.077.3.685.685,0,0,0,.548.4c.027.008.044.01.069.017a1.848,1.848,0,0,1,1.062.288,1.2,1.2,0,0,1,.146.148c.016.015.033.033.049.05s.048.054.067.082a2.5,2.5,0,0,1,.361.868l.026.1a1.632,1.632,0,0,0,.071.242c0-.006,0-.008.006-.008a.358.358,0,0,1,.106.046l.059.034a1.074,1.074,0,0,1,.495.123,1.421,1.421,0,0,1,.616.639c.036.066.078.14.138.23a.49.49,0,0,1,.085.24.5.5,0,0,1-.445.537.432.432,0,0,0-.077.017c-.027.01-.054.024-.06.046a.186.186,0,0,0,.013.083.415.415,0,0,0,.282.153.487.487,0,0,1,.191.069,5.3,5.3,0,0,0,.794-.049c.1-.013.187-.02.277-.029.05,0,.11-.013.154-.015.324-.019.651-.041.982-.064l.029,0a22.335,22.335,0,0,1,3.87-.035h.018a29.107,29.107,0,0,0,.006-5.1l-.061-1.112c-.054-1.072-.06-2.158-.066-3.209v-.131c0-.139.02-.358.044-.613a6.033,6.033,0,0,0,.03-1.411c0-.023-.014-.034-.017-.054a2.67,2.67,0,0,0-1.035-.038c-.2.015-.381.024-.511.023-.157,0-.3-.027-.442-.042-.1-.01-.2-.013-.286-.027-.027,0-.056-.007-.082-.011a4.188,4.188,0,0,1-1.492-.573c-.032-.019-.064-.041-.1-.061-.144-.093-.289-.192-.436-.306a2.564,2.564,0,0,0-.76-.406c-.17-.06-.346-.111-.539-.163-.27-.075-.551-.152-.857-.269a8.5,8.5,0,0,0-.828-.279,3.459,3.459,0,0,0-.976-.127c-.1,0-.2,0-.319.006l-.139.008-.191.016c-.325.028-.359.066-.445.314a.789.789,0,0,0-.025.291c.005.1.018.212.031.322a1.452,1.452,0,0,1-.648,1.691,2.21,2.21,0,0,1-.93.178c-.305.009-.649,0-1.044-.022-.239-.012-.453-.025-.593-.019a4.305,4.305,0,0,1-2.632-.867,5.334,5.334,0,0,1-1.034-.835l-.038-.037a6.712,6.712,0,0,0-.551-.5c-.146-.115-.334-.242-.537-.378a4.5,4.5,0,0,1-1.6-1.476,3.76,3.76,0,0,1-.138-1.843c.016-.2.033-.39.033-.548,0-.625.053-1.233.1-1.821l.022-.241.049-.545c.067-.611.055-.958-.036-1.031a3.115,3.115,0,0,0-1.05.026c-.193.025-.366.046-.5.051-.1,0-.28.025-.49.051-.386.046-.685.073-.948.088a1.518,1.518,0,0,1-.99-.159c-.246-.189-.326-.536-.437-1.086a3.964,3.964,0,0,0-.1-.442,3.794,3.794,0,0,0-.232-.43c-.086-.147-.178-.3-.257-.47-.139.052-.279.11-.423.169a5.523,5.523,0,0,1-1.453.446,2.883,2.883,0,0,1-.488-.005,2.54,2.54,0,0,0-.361-.016,1.111,1.111,0,0,1,.235.386,1.94,1.94,0,0,1,.044.821,1.928,1.928,0,0,0-.016.293,2.55,2.55,0,0,0,.043.3c.092.542.209,1.217-.24,1.578a.5.5,0,0,1-.65-.018,2.108,2.108,0,0,1-.371-1.742,3.962,3.962,0,0,0-.013-.87,12.757,12.757,0,0,0-1.251,1.1,6.307,6.307,0,0,1-1,.862,4.4,4.4,0,0,1-2.536.56c-.1,0-.232-.015-.379-.028-.126-.012-.38-.035-.621-.038a.737.737,0,0,1,.051.077,1.52,1.52,0,0,1-.284,1.473.829.829,0,0,1-.882.392.5.5,0,0,1-.32-.26.487.487,0,0,1-.053-.189,1.336,1.336,0,0,1-.753-1.308,19.686,19.686,0,0,0-5.436.243,1.017,1.017,0,0,1-.005.721,1.674,1.674,0,0,1-1.5,1.082,2.354,2.354,0,0,1-.7-.06,1.046,1.046,0,0,0-.485-.016l-.151.026c-.089.014-.153.026-.2.038a.585.585,0,0,1-.05.49,1.87,1.87,0,0,1-1.457.92c-.465.083-.942.134-1.213-.212a.642.642,0,0,1-.142-.445c-.25.109-.5.238-.743.36-.157.079-.306.155-.446.222a6.278,6.278,0,0,1-.614.216,7.78,7.78,0,0,0-1.205.457l.035.037A1.13,1.13,0,0,1,380.6,330.7Z" transform="translate(-380.369 -322.391)" fill="#b8b8b8"/>
</svg>
