<svg xmlns="http://www.w3.org/2000/svg" width="45.966" height="95.315" viewBox="0 0 45.966 95.315">
  <path id="Trazado_61" data-name="Trazado 61" d="M326.629,193.818a.3.3,0,0,1,.031.088,1.174,1.174,0,0,1,.053.45l0,.02a.7.7,0,0,1-.044.166.906.906,0,0,1-.582.61.557.557,0,0,1-.292-.012l-.027-.007a.494.494,0,0,1-.1-.054,1.02,1.02,0,0,1-.119-.063.579.579,0,0,1-.58.159.849.849,0,0,1-.639-.6.777.777,0,0,1-.16-.25c0-.008-.013-.019-.017-.027h-.01c-.042,0-.073-.007-.111-.011a1.876,1.876,0,0,1-.485-.082,3.857,3.857,0,0,1-1.567-1.32,5.2,5.2,0,0,0-.709-.757,1.619,1.619,0,0,0-.3-.2,1.3,1.3,0,0,0-.623-.072c-.037,0-.08,0-.119,0a2,2,0,0,1-.79-.1l-.226-.036a.666.666,0,0,1-.443-.334c-.005-.01-.016-.016-.02-.025a1.208,1.208,0,0,1-.187-.013,4.377,4.377,0,0,0-1.167.028l-.392.04c-.083.007-.171,0-.257,0-.067,0-.133,0-.2-.005-.109-.007-.219-.016-.327-.026a2.641,2.641,0,0,0-.744-.011c-.011.007-.075.063-.116.1a1.681,1.681,0,0,1-.3.224.8.8,0,0,1-.437.108.84.84,0,0,1-.776-.544c-.006-.013-.016-.03-.021-.041-.04-.035-.265.016-.414.05a3.255,3.255,0,0,1-.351.061.2.2,0,0,1-.034.006,3.878,3.878,0,0,1-.781-.035,2.845,2.845,0,0,1-.5-.174c-.138-.055-.283-.113-.375-.142a2.168,2.168,0,0,1-.336-.138,2.323,2.323,0,0,1-.644-.511,2.9,2.9,0,0,0-.312-.288l-.021-.018a1.536,1.536,0,0,0-.336-.151c-.04-.014-.081-.03-.121-.046a1.053,1.053,0,0,1-.151-.064,1.007,1.007,0,0,1-.463-.369.536.536,0,0,1-.076-.377.72.72,0,0,1,.024-.152c-.012-.006-.018-.01-.03-.015a1.038,1.038,0,0,1-.115-.056,1.529,1.529,0,0,0-.365-.175l-.015-.006,0,0a.505.505,0,0,1-.11.146.466.466,0,0,1-.125.091.519.519,0,0,1-.4.024l-.014-.007a7.6,7.6,0,0,1-.822-.388,3.236,3.236,0,0,0-.649-.281,2.307,2.307,0,0,0-.486-.085,1.653,1.653,0,0,0-.344.021,2.8,2.8,0,0,1-.411.029,1.738,1.738,0,0,1-.382-.056,1.521,1.521,0,0,1-.16-.042l-.012-.006a2.517,2.517,0,0,1-.666-.379l-.037-.025a.533.533,0,0,1-.2-.368v0c-.064-.021-.131-.041-.2-.06a.5.5,0,0,1-.227-.134.506.506,0,0,1-.06-.11.485.485,0,0,1-.066-.12l0,0a.542.542,0,0,1,0-.07.42.42,0,0,1,0-.112.316.316,0,0,1,.018-.06.53.53,0,0,1,.044-.123,2.282,2.282,0,0,0-.232-.078,10.18,10.18,0,0,0-1.514-.264,1.468,1.468,0,0,1-.357-.063,3.8,3.8,0,0,1-.515-.257l-.1-.056a1.287,1.287,0,0,1-.365-.019l-.013,0a.718.718,0,0,1-.2-.093c-.009-.005-.021-.008-.029-.013a.7.7,0,0,1-.143.054,1.057,1.057,0,0,1-.737-.118c-.091-.044-.175-.088-.252-.134l-.08-.047a1.464,1.464,0,0,1-.278.125.8.8,0,0,1-.986-.393.975.975,0,0,1-.075-.9c.02-.058.041-.114.059-.158a.9.9,0,0,0,.063-.185c.013-.3-.008-.341-.208-.461-.019-.011-.03-.02-.053-.033a2.6,2.6,0,0,1-.654-.5c-.023-.025-.033-.048-.053-.073a1.531,1.531,0,0,1-.357-1.078,2.058,2.058,0,0,0-.031-.408,2.705,2.705,0,0,0-.125-.409c-.042-.111-.087-.224-.135-.341-.082-.2-.163-.4-.226-.594-.1-.315-.206-.613-.321-.9a11.862,11.862,0,0,0-1.3-2.39c-.009-.013-.022-.022-.032-.035a3.573,3.573,0,0,0-.383-.427c-.127-.125-.255-.252-.379-.4a2.352,2.352,0,0,1-.428-.815c-.009-.028-.021-.043-.03-.069a1.32,1.32,0,0,0-.131-.3c-.062-.046-.123-.093-.184-.144a1.367,1.367,0,0,1-.386-.5,3.2,3.2,0,0,1-.217-.764c-.033-.186-.062-.374-.084-.541l-.015-.112a4.867,4.867,0,0,1,.01-1.047c.012-.151.024-.3.028-.438a2.269,2.269,0,0,0-.014-.372,1.8,1.8,0,0,0-.24-.616,4.658,4.658,0,0,1-.242-.505,6.11,6.11,0,0,1-.239-2.494l.014-.314a1.108,1.108,0,0,0-.211-.775,2.9,2.9,0,0,1-.181-.386,1.613,1.613,0,0,1-.1-.639,3.748,3.748,0,0,0-.02-.429c-.024-.251-.072-.326-.319-.5l-.059-.042-.1-.073c-.166-.12-.42-.306-.571-.4a.881.881,0,0,1-.547.081,2.087,2.087,0,0,1-.712-.315,1,1,0,0,0-.469-.2.62.62,0,0,0-.1.038,3.527,3.527,0,0,0-1.045.794c-.105.1-.206.2-.3.286-.073.067-.145.131-.213.185-.1.079-.211.161-.329.247a4.9,4.9,0,0,0-.577.47c-.242.24-.274.4-.187.57a.7.7,0,0,0,.049.087.28.28,0,0,0,.1.108c.051.026.122.019.3-.009l.088-.013a1.979,1.979,0,0,1,.856.032,1.63,1.63,0,0,1,1.236,1.4,5.9,5.9,0,0,1,.079.922c.005.172.009.344.024.509.006.077.027.148.038.223.021.146.043.291.076.433.062.266.137.528.219.8a7.827,7.827,0,0,1,.343,1.539,4.093,4.093,0,0,1-.009.981,7.994,7.994,0,0,1-.242,1.016,8.972,8.972,0,0,0-.27,1.191,1.557,1.557,0,0,0,.031.733.413.413,0,0,0,.19.186,2.759,2.759,0,0,0,.785.235c.612.123,1.374.276,1.615,1.013.061.191.031.405-.121,1.153-.04.2-.078.369-.085.446-.005.052-.022.092-.03.142a3.841,3.841,0,0,1-.334,1.085l.232-.065c.137-.038.265-.074.383-.1a1.614,1.614,0,0,1,.322-.047,2.614,2.614,0,0,1,2.167,1.027c.015.019.034.032.049.052s.042.066.063.1a3.26,3.26,0,0,1,.415,2.84v0c-.015.034-.041.057-.058.089a1.6,1.6,0,0,1-.222.335,1.448,1.448,0,0,1-.159.121,1.419,1.419,0,0,1-.227.173l0,.009a1.62,1.62,0,0,0,.554.819.651.651,0,0,0,.126.065c.217.066.376.1.507.131a2.282,2.282,0,0,1,.593.2,3.271,3.271,0,0,1,.688.527.751.751,0,0,0,.417.257c.064.019.138.042.23.073l.118,0c.329,0,.44.006.577.09.638.378.744,1.261.83,1.97a4.006,4.006,0,0,0,.1.6l.016.054.023.078c.017.057.031.1.046.155.109.363.186.6.239.752l.018.053a2.471,2.471,0,0,1,.235-.119,2.011,2.011,0,0,1,.448-.168,1.774,1.774,0,0,1,.993.052,1.306,1.306,0,0,1,.52.371,3.178,3.178,0,0,1,.34.5,2.167,2.167,0,0,0,.4.557.869.869,0,0,0,.295.21c-.01,0,.006-.029.013-.046a.8.8,0,0,1,.11-.179,3.475,3.475,0,0,1,.379-.449,1.477,1.477,0,0,1,.4-.28,1.22,1.22,0,0,1,.827-.057,2.31,2.31,0,0,0,.319.052,3.93,3.93,0,0,0,.649-.011c.085-.007.169-.013.256-.022l.085-.007a7,7,0,0,1,1.075-.048,1.859,1.859,0,0,1,1.363.64,2.713,2.713,0,0,1,.562,1.373,11.5,11.5,0,0,1-.054,2.773c-.038.376-.071.714-.078.985,0,.012,0,.029,0,.041,0,.171,0,.331-.008.5-.013.937-.028,1.837-.07,2.728a3.261,3.261,0,0,0,0,.341.7.7,0,0,0,.028.2.418.418,0,0,0,.07.021c.091.023.25.055.386.082l.291.061a1.964,1.964,0,0,1,.737.315,1.6,1.6,0,0,1,.186.129l0,0a1.178,1.178,0,0,1,.33.573c.279,1.143-1.145,2.361-1.309,2.5-.366.3-.736.6-1.107.89-.264.209-.522.427-.784.639-.212.173-.427.341-.636.519-.028.024-.057.046-.085.069-.056.049-.113.1-.17.155-.254.225-.508.456-.765.7a15.464,15.464,0,0,1-2.285,1.875c-.092.057-.2.114-.3.17a2.33,2.33,0,0,1-1.442.31,1.184,1.184,0,0,1-.865-.6.457.457,0,0,0-.171-.192c-.087.009-.247.232-.342.365a2.711,2.711,0,0,1-.644.7l-.017.008a2.342,2.342,0,0,1-.356.12c0,.045.008.09.011.134l0,.044c.009.122.016.24.016.352a1.46,1.46,0,0,1-.018.26c-.012.061-.035.116-.05.175-.026.1-.054.2-.086.3l-.007.022c-.058.153-.123.3-.187.446a2.908,2.908,0,0,0-.276.817.966.966,0,0,0,.017.186,2.385,2.385,0,0,0,.155.626,3.15,3.15,0,0,1,.24.984.5.5,0,0,1-.158.387.509.509,0,0,1-.4.132,4.124,4.124,0,0,1-.919-.236,3.4,3.4,0,0,0-.566-.152,1.3,1.3,0,0,0-.331-.017c-.019,0-.035-.005-.054,0s-.042.011-.061.014a2.622,2.622,0,0,0-.294.065c-.039.011-.076.019-.117.031-.144.046-.3.1-.454.169l-.11.053c-.129.059-.26.122-.394.194l-.146.082c-.106.06-.214.126-.321.193-.048.03-.1.055-.143.086a6.18,6.18,0,0,0-.9.77,9.818,9.818,0,0,1-.742.669l-.109.089c-.021.016-.048.035-.069.052a1.989,1.989,0,0,1-.673.4.763.763,0,0,1-.52-.037,4.3,4.3,0,0,0-.543.374,5.245,5.245,0,0,0-.769.731,1.1,1.1,0,0,0-.194.31c-.07.219,0,.276.026.3a.383.383,0,0,0,.133.064.875.875,0,0,0,.594-.072c.01-.005.02-.006.03-.012a.5.5,0,0,1,.2-.061.484.484,0,0,1,.206.025.5.5,0,0,1,.3.277l.005.009a4.667,4.667,0,0,0,.386.669,4.336,4.336,0,0,1,.569,1.1,1.843,1.843,0,0,1,.036.2,2.7,2.7,0,0,1-.23,1.63c-.054.139-.11.282-.16.436a7.462,7.462,0,0,0-.327,1.606,3.874,3.874,0,0,0,.088,1.388c.012.04.018.082.032.121s.023.044.034.068a1.422,1.422,0,0,0,.113.235,3.087,3.087,0,0,0,.81.711l.09.063a3.119,3.119,0,0,1,1.494,1.754,2.021,2.021,0,0,1,.046.341c.014.408.03.83-.519.969a.537.537,0,0,0-.177.073l-.1.063a1.221,1.221,0,0,0-.536.533l-.191.324a5.692,5.692,0,0,1-.559.844h0c-.036.042-.077.08-.116.119a2.31,2.31,0,0,1-1.623.615c-.224.014-.477.013-.741.008-.232,0-.47,0-.7.011a1.928,1.928,0,0,0-1.206.337,2.8,2.8,0,0,0-.335.4,8.487,8.487,0,0,0-1.108,2.37,4.454,4.454,0,0,0,.7,2.636l.214.452a.5.5,0,0,1-.337.693,1.789,1.789,0,0,1-1.456-.415c-.231-.156-.437-.29-.584-.269a.349.349,0,0,0-.27.215,1.131,1.131,0,0,0-.074.519c0,.062,0,.116.007.186l.031.268a5.132,5.132,0,0,1,.027,1.3c0,.036-.008.071-.013.108s-.008.085-.016.134c-.026.156-.043.327-.061.5a6.708,6.708,0,0,1-.141.953c.019,0,.038,0,.057,0a1.433,1.433,0,0,1,.6.117,2.787,2.787,0,0,1,1.016.946c.061.081.12.159.177.229a4.47,4.47,0,0,1,.57.82,1.946,1.946,0,0,1,.216.726,1.794,1.794,0,0,1-.451,1.291,3.6,3.6,0,0,1-.889.708c-.317.2-.676.433-.758.634s.354.476.814.729l.171.1a30.562,30.562,0,0,0,5.247,2.225c.045.016.117.044.2.077l.094.039c.078.032.215.087.363.143a5.3,5.3,0,0,0,.511.172c.039.01.084.025.117.031h0a2.57,2.57,0,0,0-.087-.345c-.062-.2-.154-.465-.288-.8-.043-.108-.081-.2-.105-.27a.5.5,0,0,1,.085-.483.5.5,0,0,1,.457-.178,1.551,1.551,0,0,1,.457.14c.009,0,.016.01.025.015a2.52,2.52,0,0,1,.858.843,2.792,2.792,0,0,0,.349.431l.094.088.075.073a.741.741,0,0,1,.3-.3l.014-.011c.019-.009.034-.012.052-.02a.924.924,0,0,1,.948-.015,2.213,2.213,0,0,1,.629.769,10.951,10.951,0,0,1,.639,1.291c.123.281.246.563.387.835.522,1,1.593,1.228,2.833,1.492a11.449,11.449,0,0,1,1.6.42c.228.084.435.171.627.253a1.8,1.8,0,0,0,1.8.12c.223-.107.439-.225.653-.343a4.834,4.834,0,0,1,2.243-.772c.15,0,.293,0,.434,0a3.234,3.234,0,0,0,.749-.04,2.641,2.641,0,0,0,.364-.117,2.105,2.105,0,0,1,1.113-.178,1.284,1.284,0,0,1,.495.218.585.585,0,0,1,.436-.063,1.167,1.167,0,0,1,.37.267.693.693,0,0,1,.275-.13,34.066,34.066,0,0,1,.226-.021l.006,0a4.475,4.475,0,0,1,.215.087,1.133,1.133,0,0,1,.118.112c.008.009.027.016.034.025.051.027.1.057.151.088a1.12,1.12,0,0,0,.146.085h0c0-.016,0-.035,0-.052a1.321,1.321,0,0,1,.244-.753,1.789,1.789,0,0,1,1.181-.469,2.289,2.289,0,0,1,.669.011,2.092,2.092,0,0,1,.936.574c.124.119.243.242.354.362a2.923,2.923,0,0,0,.659.6,2.263,2.263,0,0,0,.249.1,5.754,5.754,0,0,0,.859.253c.245.054.495.117.743.2a3.471,3.471,0,0,1,.577.231,2.875,2.875,0,0,1,.48.3,1.15,1.15,0,0,1,.384.539.885.885,0,0,1,.014.505,1.412,1.412,0,0,1-.136.323.1.1,0,0,0,.05.036.412.412,0,0,0,.159-.018,1.3,1.3,0,0,0,.393-.168c.02-.012.034-.014.056-.028a1.731,1.731,0,0,0,.231-.223l.027-.029c.034-.038.068-.075.094-.1,0-.044-.008-.1-.011-.154a4.936,4.936,0,0,0-.193-.89c-.059-.214-.116-.422-.153-.608-.05-.252-.112-.5-.173-.744a6.352,6.352,0,0,1-.278-2.118.808.808,0,0,1-.217-.012.723.723,0,0,1-.5-.351c-.22-.387-.048-.866.151-1.423a2.64,2.64,0,0,0,.239-1.008.489.489,0,0,1-.164-.608.508.508,0,0,1,.577-.275,2.4,2.4,0,0,0,.67-1.055,3.384,3.384,0,0,0,.127-.682,2.416,2.416,0,0,1,.705-1.717c.011-.009.024-.018.036-.026a24.524,24.524,0,0,0-.224-3.889,26.566,26.566,0,0,1-.236-3.807,38.782,38.782,0,0,1,.337-4.2.5.5,0,0,1-.248-.281,3.265,3.265,0,0,1-.127-1.234c.023-.649.026-.732-.547-.8a.5.5,0,0,1-.18-.936,1.444,1.444,0,0,1,1.011-.056,1.111,1.111,0,0,0,.326.043,5.424,5.424,0,0,0-.045-.771c-.015-.16-.029-.3-.029-.408,0-1.751.088-3.612.276-5.693a75.77,75.77,0,0,1,1.805-10.743,36.837,36.837,0,0,1,3.384-9.548,35.584,35.584,0,0,0,2.225-4.456l.129-.332a19.068,19.068,0,0,0,.723-2.071,6.479,6.479,0,0,0,.153-1.442c.012-.355.025-.711.071-1.066.036-.284.1-.565.158-.845.05-.226.1-.444.13-.659a1.954,1.954,0,0,1-.456.087,1.539,1.539,0,0,1-.464-.068L328.02,193a.807.807,0,0,1-.313.272c-.149.074-.56.295-.7.388a1.094,1.094,0,0,1-.262.124C326.7,193.8,326.658,193.811,326.629,193.818Z" transform="translate(-283.086 -163.132)" fill="#b8b8b8"/>
</svg>
