<svg xmlns="http://www.w3.org/2000/svg" width="16.36" height="9.907" viewBox="0 0 16.36 9.907">
  <path id="Trazado_26" data-name="Trazado 26" d="M316.2,305.025a3.352,3.352,0,0,0-.364.072,1.544,1.544,0,0,1-.467.19,1.614,1.614,0,0,1-.667-.011c-.526.353-1.178-.085-1.588-.362a3.686,3.686,0,0,0-.424-.261,1.265,1.265,0,0,0-.254.455c-.015.067-.03.133-.046.216a1.713,1.713,0,0,1-.721,1.323,1.859,1.859,0,0,1-1.513-.2c-.116-.04-.232-.083-.347-.128a3.544,3.544,0,0,0-.657-.208,1.356,1.356,0,0,1-.3-.071,1.056,1.056,0,0,0-.14.1c-.09.068-.194.146-.331.232a2.4,2.4,0,0,1-.5.229,1.2,1.2,0,0,1-.112.064,2.287,2.287,0,0,1-.869.132,3.893,3.893,0,0,0-.589.11c-.011,0-.023,0-.034.005a3.465,3.465,0,0,1,.684,1.007c.039.045.079.089.119.132,0,.006.011.008.016.013l.031.041c.051.053.1.115.149.165.042.008.092.014.14.02.107.011.214.021.333.029a2.825,2.825,0,0,1,1.757.5,1.04,1.04,0,0,1,.355.8.578.578,0,0,0,.029.194.7.7,0,0,0,.306.418,4,4,0,0,1,.35.3,5.231,5.231,0,0,1,.821,1.154c.068.118.136.229.2.341.048.071.094.149.144.216l0,0a2.879,2.879,0,0,0,.45.491c.1.079.187.161.3.238l.05.036a4.626,4.626,0,0,1,.639.506,1.894,1.894,0,0,1,.18.219c.055.058.112.1.166.167a2.974,2.974,0,0,1,.216.308,1.636,1.636,0,0,0,.182.249c.015.011.036.033.049.041a.4.4,0,0,0,.081.027.233.233,0,0,0,.127.023,1.4,1.4,0,0,0,.394-.186l.166-.1a2.588,2.588,0,0,1,.389-.173l.019-.008c.122-.12.248-.25.4-.411a5.406,5.406,0,0,1,.846-.8c.029-.02.046-.046.078-.065l.108-.058.035-.018a1.925,1.925,0,0,1,.2-.085,1.363,1.363,0,0,1,.208-.058,1.231,1.231,0,0,1,.15-.024c.042,0,.084-.006.126-.005a1.268,1.268,0,0,1,.291.039l.049.016a1.425,1.425,0,0,1,.35.157h0l.008,0c.007.005.01.012.017.017a1.8,1.8,0,0,1,.487.5c.021.029.049.068.074.1a1.108,1.108,0,0,0,.1-.066,1.183,1.183,0,0,0,.152-.394c0-.038-.005-.07-.01-.12a1.721,1.721,0,0,1,.128-1.021c.489-.947,1.481-.811,2.207-.711.8.109,1.183.118,1.418-.268a1.418,1.418,0,0,0,.092-.175c-.092-.03-.228-.059-.32-.079a3.458,3.458,0,0,1-.475-.125,1.968,1.968,0,0,1-.926-.847c-.193-.284-.311-.448-.49-.48a1.85,1.85,0,0,0-.189.073,1.207,1.207,0,0,1-.91.1.676.676,0,0,1-.288-.228,3.671,3.671,0,0,1-.437-.5,1.59,1.59,0,0,1-.253-.41.711.711,0,0,1-.064-.207v-.007h0a.819.819,0,0,1,.238-.744.553.553,0,0,1,.143-.077l-.065-.043a2.688,2.688,0,0,1-.226-.162c-.065-.053-.14-.118-.221-.189l-.085-.075c-.313-.269-.845-.713-1.061-.518a.5.5,0,0,1-.833-.436h0A2.38,2.38,0,0,0,316.2,305.025Z" transform="translate(-306.277 -304.653)" fill="#b8b8b8"/>
</svg>
