<svg xmlns="http://www.w3.org/2000/svg" width="81.378" height="93.136" viewBox="0 0 81.378 93.136">
  <path id="Trazado_27" data-name="Trazado 27" d="M318.235,259.449a1.131,1.131,0,0,1-.342-.05,1.176,1.176,0,0,1-.74-.7.813.813,0,0,1,.1-.757l.023-.045a.254.254,0,0,0-.015-.057c-.015-.03-.056-.052-.082-.079-.077-.043-.171-.093-.236-.128a2.514,2.514,0,0,0-.42-.166c-.173-.042-.35-.079-.51-.109a5.227,5.227,0,0,1-.76-.179,3.1,3.1,0,0,1-.5-.232c-.086-.037-.173-.058-.258-.1a3.655,3.655,0,0,1-.923-.8c-.088-.1-.174-.187-.26-.273a2.807,2.807,0,0,0-.274-.2,1.94,1.94,0,0,0-.682-.146,1.463,1.463,0,0,0-.434.117c0,.045,0,.105,0,.187a.918.918,0,0,1-.252.793.723.723,0,0,1-.261.141c-.026.009-.053.01-.079.017a1.2,1.2,0,0,1-.145.028,1.593,1.593,0,0,1-.422-.027l-.056-.008,0,0h0a.946.946,0,0,1-.257-.1c-.042-.018-.074-.023-.122-.045a.477.477,0,0,1-.185-.071.527.527,0,0,1-.481.127h-.016l-.008,0a3.66,3.66,0,0,1-.681-.253l-.024-.011a.469.469,0,0,1-.139-.021,1.091,1.091,0,0,1-.212-.114,1.087,1.087,0,0,0-.373-.025,3.99,3.99,0,0,0-.488.073l.222.169.212.157.082.052c.171.107.364.214.562.327.318.179.679.388,1.025.631a2.7,2.7,0,0,1,1.259,1.25c.521,1.3-.5,2.645-1.241,3.625-.1.132-.193.254-.277.37a2.581,2.581,0,0,1-.691.932.923.923,0,0,1-.374.141c-.039.018-.07.04-.112.056a.67.67,0,0,1,.072.623.635.635,0,0,1-.271.306.513.513,0,0,1-.017.246,1.159,1.159,0,0,1-.2.361l.03.065c.009.015.026.04.044.065a.588.588,0,0,1,.5-.039,1.65,1.65,0,0,1,.927,1.227c.008.053,0,.1,0,.157a1.1,1.1,0,0,1,.029.35,1.057,1.057,0,0,1-.263.569,1.719,1.719,0,0,1-.285.352,2.864,2.864,0,0,1-.837.592.685.685,0,0,1-.168.044.594.594,0,0,1-.222.355.889.889,0,0,1-.427.173l-.005,0a2.848,2.848,0,0,1-.379.083,1.664,1.664,0,0,1,.061.5.764.764,0,0,1-.146.388.87.87,0,0,1-.119.228.259.259,0,0,0,.022.027l.005.005a1.688,1.688,0,0,0,.54.224,1.968,1.968,0,0,1,1.106.638,1.659,1.659,0,0,1,.3.963,3.4,3.4,0,0,1,.016,1.061l-.018.112c0,.02-.006.034-.01.053a.877.877,0,0,0,.033.187l.008.012a1.705,1.705,0,0,1,.477,1.987,3.816,3.816,0,0,0-.078.489,2.578,2.578,0,0,0,.764,1.382c.314.3.514.366.651.354a2.33,2.33,0,0,0,.36-.559c.01-.02.02-.031.03-.05.125-.42.293-.9.783-1.006a.816.816,0,0,1,.847.226.833.833,0,0,1,.178.593c.009.042.022.077.028.123a1.288,1.288,0,0,1-.176.748.958.958,0,0,1,.39-.1h.01a11.651,11.651,0,0,0,.534.111.5.5,0,0,1,.233.186l.115.139a5.792,5.792,0,0,1,.594.564,1.188,1.188,0,0,1,.521.962,1.013,1.013,0,0,1-.312.758h0a.661.661,0,0,1-.124.111,1.857,1.857,0,0,1-.474.286l-.132.061a.626.626,0,0,0-.123.084.821.821,0,0,0-.143.188,1.839,1.839,0,0,0-.124.479c0,.029-.005.055-.006.085a4,4,0,0,0,.038.553,2.225,2.225,0,0,1-.269,1.8c-.6.631-1.324.211-1.758-.04-.1-.06-.214-.119-.314-.165a.836.836,0,0,0-.495-.035h0c-.013,0-.022.016-.035.021a.943.943,0,0,0-.2.322c-.023.048-.058.105-.084.158a1.266,1.266,0,0,1-.151.285,1.2,1.2,0,0,1-.156.163,1.582,1.582,0,0,1-.142.17,2.15,2.15,0,0,1-.725.359c-.109.039-.272.1-.4.159a2.318,2.318,0,0,0,.761-.105.5.5,0,0,1,.588.726c-.14.242-.277.487-.413.731-.282.506-.565,1.012-.882,1.494-.063.1-.152.207-.238.316-.053.085-.1.172-.155.257-.417.657-.317.86.054,1.616l.253.542a2.639,2.639,0,0,0,.376.679.471.471,0,0,1,.044-.037.681.681,0,0,1,.042-.113l.023-.093a1.468,1.468,0,0,1,.247-.58c.01-.012.019-.017.029-.029.18-.378.454-.517,1.1-.551l.278-.011h.006a1.659,1.659,0,0,0,.274-.167l.067-.063a3.924,3.924,0,0,0,.427-.5l.064-.083c.187-.243.36-.5.532-.755.036-.053.075-.106.111-.159a3.972,3.972,0,0,1,2.515-2.2,2.258,2.258,0,0,1,.277-.014,1.463,1.463,0,0,1,.162-.009,1.376,1.376,0,0,1,.313.034l.017.006a1.171,1.171,0,0,1,.733.444,1.384,1.384,0,0,1,.23.652c.007.027.02.044.026.072a3.078,3.078,0,0,1-.109,1.716,1.951,1.951,0,0,0,.277-.4,3.023,3.023,0,0,0,.024-.87,2.846,2.846,0,0,1,.173-1.449.524.524,0,0,1,.151-.227,1.675,1.675,0,0,1,.1-.159,2.015,2.015,0,0,1,.6-.437,1,1,0,0,0,.1-.054.618.618,0,0,0,.036-.059,2.178,2.178,0,0,0,0-.515,2.08,2.08,0,0,1,.084-.936.79.79,0,0,1,.255-.389c.447-.358,1.206-.187,1.939-.022.157.036.325.073.455.1a1.317,1.317,0,0,0,.16.02.5.5,0,0,1,.483.588c-.023.128-.052.266-.082.409a2.8,2.8,0,0,0-.069,1.53c.154.334.489.445,1.022.6.045.014.087.031.132.045a3.314,3.314,0,0,1,.591.161,1.8,1.8,0,0,1,1.134,1.119,1.621,1.621,0,0,1,.074.23c.009.049.023.1.028.145a2.241,2.241,0,0,1-.044.834,4.336,4.336,0,0,1-.333.886c-.263.566-.681,1.143-1.3,1.107a.863.863,0,0,1-.438-.147c-.024-.009-.049-.013-.073-.024a.937.937,0,0,1-.465-.478l-.009.007c-.023.014-.042.023-.064.037-.1.068-.188.126-.253.163a.748.748,0,0,1-.176.119.509.509,0,0,0-.118.239l0,.018a4.034,4.034,0,0,0-.024.634,3.8,3.8,0,0,0,.3,1.749,1.944,1.944,0,0,0,1.386,1.182.909.909,0,0,0,.2.033.97.97,0,0,1,.712.379,1.158,1.158,0,0,1,.154.2c.019.023.04.035.059.059a1.327,1.327,0,0,0,.329.329,2.112,2.112,0,0,0,.392-.831c.006-.043.013-.085.019-.129a1.671,1.671,0,0,1,1.18-1.62,1.82,1.82,0,0,1,1.656.166,8.1,8.1,0,0,1,1.4.78c.142.092.275.175.41.259l.084.025c.818.231,2.187.618,1.915,1.966a3.948,3.948,0,0,1-1.259,1.792l-.07.069c-.146.156-.29.31-.412.455s-.216.272-.313.4c-.038.054-.086.113-.119.165s-.063.111-.1.166a2.294,2.294,0,0,0-.223,1.758c.049.234.084.459.11.677a2.909,2.909,0,0,1,.015,1.451,4.982,4.982,0,0,1-.191.572,2.978,2.978,0,0,1-.25.521,2.815,2.815,0,0,1-.84.986,1.635,1.635,0,0,1-.444.186,1.369,1.369,0,0,1,.427.357,1.4,1.4,0,0,1,.3.795,2.173,2.173,0,0,1,.1.359c.029.222.038.428.046.617a2.776,2.776,0,0,0,.049.463,2.256,2.256,0,0,0,.756.549l.149.082a2.126,2.126,0,0,1,.7.314,2.417,2.417,0,0,1,.425.41,1.326,1.326,0,0,0,.273.268,1.58,1.58,0,0,0,.916.119,4.817,4.817,0,0,1,.74,0c.026,0,.044.01.069.013a1.343,1.343,0,0,1,1.238,2.135c-.009.014-.023.026-.032.039a2.363,2.363,0,0,1-1.786,1.155,1.525,1.525,0,0,1-.587-.066c-.046,0-.093,0-.138-.006a5.359,5.359,0,0,0-.572-.014,3.316,3.316,0,0,0-.61.319c-.127.092-.193.153-.216.262l0,.016a1.927,1.927,0,0,0,.054.564l.047.279c.033.207.073.416.112.625a6.8,6.8,0,0,1,.17,2.192.244.244,0,0,0-.007.029v.021c-.013.085-.039.156-.058.235a4.559,4.559,0,0,1-.838,1.674c-.128.179-.259.364-.383.565a1.11,1.11,0,0,0-.056.637,4.01,4.01,0,0,0,.216.486l.1.2c.248.5.355.652.582.655a1.482,1.482,0,0,0,.384-.087,2.153,2.153,0,0,1,.67-.146,1.52,1.52,0,0,1,.173.017,1.194,1.194,0,0,1,.216.027,1.706,1.706,0,0,1,.243.1,1.522,1.522,0,0,1,.194.084c.008,0,.012.011.02.016l.01.005a1.622,1.622,0,0,1,.132.115,1.738,1.738,0,0,1,.234.207,3.9,3.9,0,0,1,.666,1.3c.293.821.452,1.122.946,1.107a3.953,3.953,0,0,0,.8-.4,3.985,3.985,0,0,1,1.658-.668c.061-.006.106,0,.161,0h.006a1.162,1.162,0,0,1,.276.024.86.86,0,0,1,.63.389,1.655,1.655,0,0,1,.283.6,2.86,2.86,0,0,1,.07.523c0,.028.005.066.007.1a1.335,1.335,0,0,0,.126.209c.037.047.081.094.123.14.149-.13.343-.332.433-.428.071-.073.132-.138.18-.185a2.159,2.159,0,0,0,.456-.594,2.726,2.726,0,0,0-.115-2c-.057-.206-.116-.423-.172-.648-.005-.021-.011-.039-.016-.06a.5.5,0,0,1,.756-.539l.117.076a23.966,23.966,0,0,0,2.276,1.346,5.276,5.276,0,0,0,.533.214c.166.061.34.129.513.2a2.574,2.574,0,0,1,.739.458,3.373,3.373,0,0,1,.86,1.873,6.581,6.581,0,0,0,.2.758,2,2,0,0,0,.215.435c.009.012.016.026.024.038s.031.054.05.078c.04.049.094.09.137.136.1.105.2.208.309.308.033.03.059.062.092.092.126.112.251.231.375.355.079.078.149.173.224.262.055.067.11.134.161.208.031.044.067.075.1.122s.05.115.077.17a4.8,4.8,0,0,1,.2.447,1.847,1.847,0,0,0,.329.606c.015.015.025.039.04.052l.008.011a1.447,1.447,0,0,0,.259.084l.123.032a1.507,1.507,0,0,1,.937.5.637.637,0,0,1,.051.065,1.761,1.761,0,0,1,1.061-.212,2.843,2.843,0,0,1,.361.09l.048.017c.027.011.054.019.081.03a7.739,7.739,0,0,1,.949.437c.226.117.446.232.659.318l.013.006.352.136c.971.367,1.975.746,2.155,2.3a2.812,2.812,0,0,1,.015.327,3.4,3.4,0,0,1-.024.444,3.442,3.442,0,0,1-.293,1.033,8.425,8.425,0,0,1-.92,1.443l-.1.131-.014.021c-.582.806-.436,1.441.025,2.406.072.151.151.31.238.48l.061.121.161.322c.075.153.146.3.215.454a4.49,4.49,0,0,0,.62,1.085.754.754,0,0,0,.4.243,1.219,1.219,0,0,0,.588-.041l.018,0a2.883,2.883,0,0,1,1.039-.066l.109,0a1.648,1.648,0,0,0,.479-.021c.01,0,.022,0,.032,0,.219-.061.314-.169.508-.4l.017-.019c.058-.071.118-.144.185-.218a6.167,6.167,0,0,1,1.814-1.234,2.785,2.785,0,0,1,.58-.171,1.785,1.785,0,0,0,.355-.1.686.686,0,0,1,.324-.3,6.367,6.367,0,0,0,.792-.51l.1-.069.08-.058a.533.533,0,0,1,.064-.1c.014-.021.027-.032.04-.049a.9.9,0,0,1,.116-.139.554.554,0,0,1,.333-.15.629.629,0,0,1,.341-.248,1.209,1.209,0,0,1,.421-.07l.251.033.06.008a.631.631,0,0,1,.27.108,1.113,1.113,0,0,1,.42.642,2.131,2.131,0,0,1,.048.433,1.926,1.926,0,0,1-.438,1.264.75.75,0,0,0-.055,1.066,5.6,5.6,0,0,0,.4.529c.12.147.235.287.331.424s.2.312.29.47c.086.142.178.279.261.422.143.248.285.5.446.734l.093.142a1.868,1.868,0,0,0,.39.485.659.659,0,0,0,.264.055c.063.006.136.017.209.029a1.35,1.35,0,0,1,.142.037,1,1,0,0,1,.238.088,1.625,1.625,0,0,1,.857,1.32c.022.114.046.239.081.377l0,.01c.017.066.049.187.08.283a.571.571,0,0,0,.045.116c0-.012.033-.016.089-.016l.076,0c.053,0,.1,0,.16.007l.118.007c.512.035,1.025.074,1.537.113l.344.025.483.036c.046,0,.094.005.14.009,1.6.114,3.222.188,4.8.257,1.96.086,3.97.193,5.963.365.411.035.824.054,1.233.1.215.022.44.058.668.1a4.16,4.16,0,0,0,1.623.054c.022-.007.047-.024.069-.032a2.96,2.96,0,0,0,.387-.176,5.89,5.89,0,0,0,.752-.574c.117-.1.232-.2.349-.3.231-.186.468-.362.7-.538a6.071,6.071,0,0,0,1.771-1.722c-.025-.016-.044-.039-.068-.056a1.3,1.3,0,0,1-.316-.2,1.7,1.7,0,0,1-.62-1.455c-.012-.084-.035-.161-.04-.25l-.015-.267a2.186,2.186,0,0,0-.407-1.377c-.039-.07-.065-.137-.1-.206a3.754,3.754,0,0,1-.168-.349c-.02-.045-.046-.091-.066-.136a2.5,2.5,0,0,0-.666-1.035,1.535,1.535,0,0,0-.147-.087c-.1-.046-.2-.091-.331-.146l-.168-.071a1.649,1.649,0,0,1-.208-.12c-.044-.015-.083-.032-.127-.047-.18-.062-.359-.124-.535-.2a.5.5,0,0,1-.248-.228l-.1-.009a1.682,1.682,0,0,1-1.127-.383,1.1,1.1,0,0,1-.292-.608c-.017-.058-.032-.115-.044-.164a1.063,1.063,0,0,0-.075-.233,1.086,1.086,0,0,0-.549-.445c-.082-.043-.17-.091-.258-.141a1.858,1.858,0,0,1-1.139-1.18,1.385,1.385,0,0,1-.035-.665,3.387,3.387,0,0,1,.079-.62,1.213,1.213,0,0,0-.025-.773c-.035-.132-.077-.286-.118-.486a2.247,2.247,0,0,1-.134-.365.616.616,0,0,1,.049-.415,2.267,2.267,0,0,0-.139-.746c-.043-.1-.085-.2-.127-.3l-.019-.015a2.377,2.377,0,0,1-.329-.279.875.875,0,0,1-.231-.423,4.405,4.405,0,0,0-1.146.409,5.733,5.733,0,0,1-.687.282,7.027,7.027,0,0,1-4.057.3,2.608,2.608,0,0,1-1.592-1.769,4.781,4.781,0,0,0-.392-.811,5.1,5.1,0,0,0-.829-.911,4.552,4.552,0,0,1-1.23-1.58l-.166-.417c-.329-.846-.453-1.161-1.334-1.255-.218-.024-.426-.035-.625-.048a3.262,3.262,0,0,1-2.543-.988,6.676,6.676,0,0,0-2.274-1.794,4.975,4.975,0,0,0-2.434-.115,13,13,0,0,1-1.338.1,13.542,13.542,0,0,1-1.709-.094.721.721,0,0,1-.311.787c-.383.212-.735-.088-.9-.231a7.653,7.653,0,0,1-.978-.531,3.081,3.081,0,0,0-1.433-.57,1.19,1.19,0,0,0-.535.184,1.187,1.187,0,0,1-1.547-.09c-.134-.15-.494-.551-.245-.963a.569.569,0,0,1,.378-.272,2.86,2.86,0,0,0-.292-.211,2.564,2.564,0,0,0-.294-.108c-.432-.142-1.025-.336-1.131-.869a.675.675,0,0,1,.265-.753.652.652,0,0,1,.285-.1,4.631,4.631,0,0,1-.271-.536,3.363,3.363,0,0,1-.192-1.036,2.277,2.277,0,0,0-.127-.738c-.074-.124-.068-.129-.336-.121a1.9,1.9,0,0,1-.778-.121,1.757,1.757,0,0,1-.973-1.382c-.025-.1-.05-.2-.081-.3-.293-.919-.35-1.033-1.059-1.445a4.674,4.674,0,0,1-2.46-2.927,5.02,5.02,0,0,1-.1-.741,2.617,2.617,0,0,0-.129-.769,3.213,3.213,0,0,0-.349-.593,4.119,4.119,0,0,1-.472-.827,10.386,10.386,0,0,1-.534-2.5,11.773,11.773,0,0,0-.335-1.85,6.385,6.385,0,0,0-1.389-2.2,14.235,14.235,0,0,1-.9-1.15c-.817-1.2-1.727-2.458-2.631-3.624a16.928,16.928,0,0,0-1.38-1.507,18.167,18.167,0,0,1-1.415-1.54,22,22,0,0,0-1.643-1.78c-1.45-1.466-2.949-2.981-3.316-5.045a13.123,13.123,0,0,0-1.631-3.888,16.1,16.1,0,0,1-1.69-3.861,5.71,5.71,0,0,0-.737-1.567,9.639,9.639,0,0,1-.727-1.388,3.58,3.58,0,0,1-.3-1.4,2.806,2.806,0,0,1,.053-.345c.007-.037.017-.088.027-.144a1.277,1.277,0,0,1-.847-.012,2.758,2.758,0,0,1-1.107-1.388l-.051-.105a15.536,15.536,0,0,1-1.252-3.165,11.114,11.114,0,0,1-.235-1.964,7.944,7.944,0,0,0-.335-2.2,4.738,4.738,0,0,0-.346-.6c-.454-.717-.968-1.529-.632-2.145a.5.5,0,0,1,.183-.189,8.349,8.349,0,0,1-.087-1.244,7.835,7.835,0,0,0-.06-1,1.463,1.463,0,0,1-.182.143l-.008,0a1.277,1.277,0,0,1-1.031.364C318.275,259.44,318.254,259.449,318.235,259.449Z" transform="translate(-306.71 -255.419)" fill="#b8b8b8"/>
</svg>
