<svg xmlns="http://www.w3.org/2000/svg" width="44.968" height="33.689" viewBox="0 0 44.968 33.689">
  <path id="Trazado_24" data-name="Trazado 24" d="M443.348,287.3a.5.5,0,0,1,.067.454l-.069.2a3.44,3.44,0,0,0-.163.536c.009-.024.13.029.476.138l.382.127c.846.287,1,.341,1.37-.313a.5.5,0,0,1,.415-.254h.02a.505.505,0,0,1,.414.219l2.083,3.064c1.564,2.3,3.153,4.646,4.739,7.005.224.328.444.658.669.986.249.363.534.721.822,1.084a11.689,11.689,0,0,1,1.514,2.246,7.8,7.8,0,0,1,1.427-.99c.156-.092.3-.178.439-.263l1.1-.772c5.2-3.661,10.555-7.409,15.995-10.935,1.549-1.059,3.113-2.119,4.692-3.139l.416-.264a8.627,8.627,0,0,0,2.047-1.6,10.529,10.529,0,0,0,1.291-2.205c.145-.3.288-.594.438-.878.185-.354.4-.709.627-1.065l.134-.219c.179-.406.351-.806.512-1.19a9.675,9.675,0,0,0,.382-4.161l-.061-.781a24.756,24.756,0,0,1-.115-2.657c0-.388,0-.666.016-.882-.008,0-.018-.007-.026-.013a1.942,1.942,0,0,0-.232-.128.211.211,0,0,1-.02.022,1.546,1.546,0,0,1-1.21.339,6.988,6.988,0,0,1-3.629-1.216.5.5,0,0,1-.122-.282,6.474,6.474,0,0,1-.686-.1,14.652,14.652,0,0,0-2.653-.309,2.86,2.86,0,0,0-1.564.409c-.206.1-.427.208-.681.312a2.948,2.948,0,0,1-1.869.007,3.683,3.683,0,0,0-.916-.13,8.541,8.541,0,0,0-2.366.568,2.989,2.989,0,0,0-1,.71,6.31,6.31,0,0,1-.709.6,5.682,5.682,0,0,1-2.138.784c-.238.053-.474.105-.7.167a54.294,54.294,0,0,1-6.643,1.332c-1.159.168-2.318.327-3.477.484-1.108.15-2.217.3-3.323.462a11.3,11.3,0,0,0-3.041.753,6.832,6.832,0,0,0-.875.512,6.075,6.075,0,0,1-1.313.706,13.97,13.97,0,0,0-4.571,2.508,3.755,3.755,0,0,0-.6.664.447.447,0,0,1,.035.05c.388.627.083,1.451-.187,2.178a5.115,5.115,0,0,0-.231.744l-.015,4.24c.756-.036,1.513-.067,2.271-.074A.5.5,0,0,1,443.348,287.3Z" transform="translate(-440.667 -269.1)" fill="#b8b8b8"/>
</svg>
