<svg xmlns="http://www.w3.org/2000/svg" width="54.923" height="71.893" viewBox="0 0 54.923 71.893">
  <path id="Trazado_38" data-name="Trazado 38" d="M254.26,263.152c.074.029.144.042.216.064a2.1,2.1,0,0,1,1.129.349,3.255,3.255,0,0,1,.428.212c.44.265.856.566,1.272.867.315.228.633.453.961.663.074.047.144.1.219.144.118.071.235.14.354.207.292.148.364.071.6-.208l.01-.011c.18-.211.365-.422.552-.635.312-.357.623-.724.922-1.093.06-.075.117-.15.176-.225.1-.124.2-.247.291-.372.017-.024.024-.045.04-.069a2.475,2.475,0,0,0,.313-2.138c-.041-.268-.117-.587-.2-.929-.26-1.106-.584-2.481-.113-3.42a2.219,2.219,0,0,1,.621-.72l.039-.034c.226-.193.325-.3.345-.541a1.452,1.452,0,0,0-.553-1.117c-.047-.05-.113-.09-.166-.137a2.9,2.9,0,0,0-.505-.326,2.682,2.682,0,0,0-.268-.121,2.745,2.745,0,0,0-.275-.088,2.854,2.854,0,0,0-.5-.089,2.415,2.415,0,0,0-.269,0,2.714,2.714,0,0,0-.272.018,2.443,2.443,0,0,0-1.064.388c-.009.006-.019.009-.028.016a.171.171,0,0,0-.02.018c-.01.007-.017.016-.026.023a4.71,4.71,0,0,0-.912.95,2.435,2.435,0,0,1-2.745,1.235,2.729,2.729,0,0,1-2.145-1.707c-.116-.214-.246-.455-.419-.727a8.434,8.434,0,0,0-1.219-1.449c-.171-.171-.347-.341-.526-.513-.362-.349-.723-.714-1.069-1.1a8.339,8.339,0,0,1-.732-.9,8.926,8.926,0,0,1-.641-1.18c-.135-.28-.269-.562-.429-.831-.063-.107-.133-.209-.2-.31-.027-.038-.053-.082-.08-.122a1.9,1.9,0,0,1-.4-1.487,2.371,2.371,0,0,1,.453-.939,2.188,2.188,0,0,0,.182-.292.549.549,0,0,0,.013-.473,1.2,1.2,0,0,0-.353-.44,3.15,3.15,0,0,1-.383-.407,1.766,1.766,0,0,1-.122-1.9,6.908,6.908,0,0,1,.505-.9,6.394,6.394,0,0,0,.421-.729.459.459,0,0,0,.035-.166c.065-.733.712-.7.951-.686a1.091,1.091,0,0,1,.662.357,1.617,1.617,0,0,0,.153.129l0,0c.313.083.737-.09,1.229-.526a8.828,8.828,0,0,0,1.174-1.372,8.342,8.342,0,0,1,1.645-1.794,3.507,3.507,0,0,1,1.041-.48,2.145,2.145,0,0,0,.786-.37,2.023,2.023,0,0,0,.4-.672c.051-.116.108-.237.17-.36a2.369,2.369,0,0,1,.552-.742c.557-.489,1.13-.945,1.7-1.4.45-.357.887-.706,1.312-1.066.037-.03.072-.063.108-.094.421-.36.831-.73,1.225-1.136.374-.386.768-.767,1.166-1.151.663-.642,1.332-1.3,1.929-2a10.786,10.786,0,0,0,.913-1.2,18.361,18.361,0,0,0,.9-1.661,17.747,17.747,0,0,1,1.072-1.921,7.648,7.648,0,0,1,.6-.791l.037-.037c.119-.126.315-.3.56-.511.427-.367,1.515-1.308,1.573-1.768l-.022-.022c-.028-.032-.048-.052-.071-.077a.607.607,0,0,0-.226-.183.463.463,0,0,0-.1.007,1.394,1.394,0,0,0-.189.123,1.511,1.511,0,0,1-.645.323,2.472,2.472,0,0,1-1.98-.74l-.08-.069-.063-.054c-.213-.186-.411-.384-.588-.573a8.538,8.538,0,0,1-.662-.87l-.051-.072c-.718-1-1.261-1.656-1.919-1.564l-.015.018a1.07,1.07,0,0,1-.864.428.874.874,0,0,1-.617-.265.662.662,0,0,1-.216-.256,1.187,1.187,0,0,1-.16.182,3.586,3.586,0,0,1-1.276.691,2.708,2.708,0,0,1-2.36-.049,1.336,1.336,0,0,1-.395-1.667c.015-.046.033-.1.048-.157-.016-.147-.047-.186-.551-.317-.1-.025-.2-.052-.308-.083-.154-.046-.295-.091-.43-.138a2.182,2.182,0,0,1-1.09-.569,1.714,1.714,0,0,1-.166-.22,4.321,4.321,0,0,1-.476-.668c-.66-1.117-1.952-1.482-3.32-1.868-.409-.116-.816-.231-1.2-.365-.073-.026-.139-.046-.21-.07-.038-.013-.083-.024-.12-.037l-.122-.044a9.387,9.387,0,0,0-4.938-.442l-.03,0c-.254.044-.508.092-.763.122-.29.033-.6.045-.9.057a5.288,5.288,0,0,0-1.6.215l-.14.052-.106.038v.094c.076.121.164.246.245.369.16.242.319.482.491.73.4.577.806,1.165,1.147,1.776a10.46,10.46,0,0,1,.648,1.244,7.143,7.143,0,0,1,.237,3.484l-.054.579a6.661,6.661,0,0,0,.013.738,7.208,7.208,0,0,1-.071,1.863v.042a.745.745,0,0,1-.622.869c-.021.007-.034.015-.056.022l-.01,0a3.822,3.822,0,0,1-2.07.123,3.97,3.97,0,0,0-1.293-.029,6.275,6.275,0,0,1-1.462.25c-.057.005-.1.022-.161.023s-.1-.006-.147-.005a19.517,19.517,0,0,1-3.237-.284,18.384,18.384,0,0,0-2.9-.273,3.127,3.127,0,0,0-1.721.6l-.3.213c-.134.1-.274.187-.411.281l-.006,0-.439.318c-.6.428-1.225.84-1.853,1.234-.079.05-.227.125-.4.21-.088.044-.228.113-.366.186a.888.888,0,0,0-.341.542,1.026,1.026,0,0,0,.036.363,1.331,1.331,0,0,1-.2,1.194,3.8,3.8,0,0,1-1.981,1.088,4.059,4.059,0,0,0-1.36.607,1.679,1.679,0,0,0-.41,1.088,12.589,12.589,0,0,1-.115,1.515,8.373,8.373,0,0,0-.092,1.844,2.424,2.424,0,0,0,.28,1.1,1.593,1.593,0,0,0,.212.232,1.319,1.319,0,0,1,.508,1.416c-.179.542-.739.736-1.188.893a1.748,1.748,0,0,0-.67.331c-.02.05-.04.1-.062.157a1.907,1.907,0,0,1-.525.86,3.912,3.912,0,0,1-.748.492,1.969,1.969,0,0,0-.722.546,2.134,2.134,0,0,0-.274.527v0a5.764,5.764,0,0,0-.183,1.973l.006.458c0,.115-.007.215-.011.32a3.527,3.527,0,0,1-.306,2.014,2.641,2.641,0,0,1-.662.7c-.048.039-.091.077-.136.116-.049.063-.093.124-.145.19a3.262,3.262,0,0,0-.568,1.355c-.027.135-.049.273-.068.412-.063.457-.1.93-.117,1.4-.011.225-.021.448-.036.664-.055.808-.082,1.636-.108,2.472a36.744,36.744,0,0,1-.41,5.137c-.01.071-.01.143-.021.214a10.87,10.87,0,0,1-.536,2l-.007.021c-.061.173-.123.345-.184.515l-.056.155a10.36,10.36,0,0,1,3.794-.985c.079-.009.144-.021.212-.032a2.541,2.541,0,0,0,.373-.094.712.712,0,0,0,.325-.244l.008-.013a.9.9,0,0,0,.061-.115,3.944,3.944,0,0,0,.189-.706l0-.008c.014-.083.028-.165.044-.261l.044-.264a.406.406,0,0,1,.024-.061.522.522,0,0,1,.063-.14.525.525,0,0,0-.026-.321,1.078,1.078,0,0,0-.438-.283c-.064-.03-.133-.067-.2-.1a2.131,2.131,0,0,1-.221-.134,1.483,1.483,0,0,1-.191-.137,1.274,1.274,0,0,1-.357-1.623c.03-.089.065-.186.1-.295.019-.064.026-.124.038-.185a3.57,3.57,0,0,0-.022-1.251c-.026-.187-.052-.381-.072-.585v0l0-.013a.492.492,0,0,1,.031-.222v0a.507.507,0,0,1,.124-.185l.006,0a.461.461,0,0,1,.068-.039.471.471,0,0,1,.133-.07.406.406,0,0,1,.1-.008.524.524,0,0,1,.112-.009l.461.064a9.693,9.693,0,0,1,2.1.447,2.518,2.518,0,0,1,1.351,1.01,2.649,2.649,0,0,1,.263.568,1.19,1.19,0,0,1,.023.68,1,1,0,0,1-.05.1,1.068,1.068,0,0,1-.077.159c-.009.014-.017.03-.027.043a1.824,1.824,0,0,1-.683.5c-.277.139-.448.24-.522.4l-.012.014c-.016.044.082.2.147.307a1.329,1.329,0,0,1,.272,1,1.141,1.141,0,0,1-.532.728c-.024.015-.049.034-.07.048a.839.839,0,0,0-.17.136l0,.017a3.44,3.44,0,0,1,.085.65l.01.155c.02.285.042.571.065.856,0,.025.008.056.01.078.005.059.009.118.014.177.1-.412.19-.828.278-1.238l.161-.734c.027-.124.053-.275.081-.441a7.328,7.328,0,0,1,.345-1.4l.006-.018a2.846,2.846,0,0,1,.2-.408c.016-.026.037-.048.055-.073a1.367,1.367,0,0,1,.788-.6,1.187,1.187,0,0,1,1.105.208.5.5,0,0,1,.421.349.468.468,0,0,1,.021.1c.035.038.082.082.128.125a.633.633,0,0,1,.536.5c0,.007.008.01.01.017a4.4,4.4,0,0,1-.5,2.268c-.055.145-.106.283-.152.411-.125.594-.217,1.181-.286,1.757,0,.064-.01.126-.014.191-.023.381-.047.764-.1,1.15-.1.756-.008,1.346.244,1.538.219.166.621.056.9-.048l.178-.079a3.952,3.952,0,0,0,1.367-1.123c.032-.071.065-.137.1-.211.069-.166.138-.332.216-.487a7.14,7.14,0,0,1,.464-.749,4.626,4.626,0,0,0,.476-.806,2.3,2.3,0,0,0,.079-.266.331.331,0,0,0,.012-.042,1.009,1.009,0,0,0-.142-.721,5.984,5.984,0,0,1-.239-.588,1.713,1.713,0,0,1-.056-.268.955.955,0,0,1-.1-.551,1.837,1.837,0,0,1,.4-.882,2.077,2.077,0,0,0,.16-.248.5.5,0,0,1,.863-.063,1.815,1.815,0,0,0,.246.285c.017.016.036.029.053.044.076.068.155.135.24.2.213.155.453.3.7.443a7.59,7.59,0,0,1,.946.626c.09.074.151.137.226.2.059.052.124.107.173.157a2.206,2.206,0,0,1,.227.278c.017.027.045.053.061.08a1.23,1.23,0,0,1,.178.808,1.024,1.024,0,0,1,1.213.5l.066,0a.852.852,0,0,1,.983.735,1.881,1.881,0,0,1-.632,1.6,2.2,2.2,0,0,0-.337.464.787.787,0,0,0-.038.126l.024.057c.022.023.048.053.074.082a1.038,1.038,0,0,1,.3.665,1.056,1.056,0,0,1-.534,1.014.859.859,0,0,0-.2.177,1.4,1.4,0,0,0-.148.45,1.855,1.855,0,0,1-.445.955.982.982,0,0,1-.067.078.4.4,0,0,1-.036.026.128.128,0,0,1-.016.017c-.014.011-.028.017-.042.027a1.49,1.49,0,0,1-1.453.156,2.629,2.629,0,0,0-.3-.077,1.253,1.253,0,0,0-.77.093,1.774,1.774,0,0,0-.159.085c-.046.028-.093.054-.139.088l-.021.016a3.718,3.718,0,0,0-.7.764c-.025.042-.051.078-.077.122a4.527,4.527,0,0,1-.522.746,3.274,3.274,0,0,1-.83.612,2.577,2.577,0,0,0-.544.375l-.095.092a.329.329,0,0,0-.05.1c.013.045.025.089.037.144a.458.458,0,0,0,.086.144,1.478,1.478,0,0,1,.3.656,1.6,1.6,0,0,1,.019.22l0,.009a6.8,6.8,0,0,1,.043,1.166l0,.11a3.34,3.34,0,0,1-1.2,2.5c-.032.033-.058.063-.092.1l-.048.046c-.022.021-.041.042-.063.063-.053.05-.1.09-.152.136l-.063.056c-.686.6-1.131.709-1.666.486a4.869,4.869,0,0,1-.013,2.111,5.337,5.337,0,0,1-.307.846,4.313,4.313,0,0,0-.249.67l-.005.019.069-.032.111-.052a1.049,1.049,0,0,1,1.431-.155h0c.028.016.045.033.07.049a1.4,1.4,0,0,1,.566.646.314.314,0,0,0,.105.053,2.153,2.153,0,0,0,.52,0,3.1,3.1,0,0,1,.731.011,7.972,7.972,0,0,1,1.334.373l.106.035q1.178.4,2.344.791l.268.091q1.259.418,2.507.815c-.262-1.184-.617-2.9.086-3.776a1.427,1.427,0,0,1,1.164-.524h0a.924.924,0,0,1,.717.368.423.423,0,0,0,.052.012l.019-.008a1.843,1.843,0,0,1,.171-.167,1.186,1.186,0,0,1,.292-.268,1.62,1.62,0,0,1,.527-.244,2.138,2.138,0,0,1,.717-.119c.108,0,.206,0,.3,0,.053,0,.087,0,.131-.005a6.568,6.568,0,0,0,.966-.339c.2-.1.4-.216.59-.333a3.266,3.266,0,0,0,.9-1.224,5.114,5.114,0,0,0,.192-.888,1.007,1.007,0,0,0-.09-.413.728.728,0,0,0-.094-.121,1.821,1.821,0,0,0-.328-.145c-.135-.05-.281-.1-.436-.177a2.316,2.316,0,0,1-.973-.726,1.5,1.5,0,0,1-.149-1.712c.016-.039.038-.079.055-.119a.824.824,0,0,0,.02-.277,3.7,3.7,0,0,1-1.62-2.086,2.418,2.418,0,0,1-.023-1.061c0-.019,0-.037,0-.056.012-.064.041-.119.057-.181s.041-.143.067-.212a6.066,6.066,0,0,1,1.432-2.118c.1-.111.2-.221.3-.331a8.614,8.614,0,0,0,.869-1.26,5.486,5.486,0,0,0,.3-1.142,5.856,5.856,0,0,1,.362-1.364,1.829,1.829,0,0,1,1.383-1.053c.246-.077.484-.139.712-.194a3.031,3.031,0,0,0,1.388-.6c.074-.068.147-.13.22-.208.084-.1.181-.235.3-.4a7.034,7.034,0,0,1,.954-1.146,1.855,1.855,0,0,1,.3-.23l.026-.016a1.135,1.135,0,0,1,.413-.139l.011,0,.022,0a.758.758,0,0,1,.191-.013.875.875,0,0,1,.134.034.9.9,0,0,1,.468.205,1.4,1.4,0,0,1,.314,1.128c0,.092,0,.18.005.266.005.025.007.054.012.078a.5.5,0,0,1,.34-.063v.006h0v-.005l.02,0a.845.845,0,0,1,.1.013.564.564,0,0,1,.1,0,.77.77,0,0,1,.47.375c.012.016.02.023.035.041l.025.032.1.046c.415.189.449.2.531.3a.776.776,0,0,1,.125.218c.02.018.052.042.067.058a.656.656,0,0,1,.162.308.772.772,0,0,1,.64.044,1.344,1.344,0,0,1,.483.5.933.933,0,0,0,.124.168.6.6,0,0,1,.585.071.955.955,0,0,1,.285.791,1.107,1.107,0,0,1-.134.536,2.845,2.845,0,0,1-.211.4,1.677,1.677,0,0,0-.132.254,1.7,1.7,0,0,0,.588.141,2.459,2.459,0,0,1,.988.267,6.514,6.514,0,0,1,1.522,1.652Z" transform="translate(-214.659 -208.402)" fill="#b8b8b8"/>
</svg>
