<?xml version="1.0" encoding="utf-8"?>
<!-- Generator: Adobe Illustrator 24.0.2, SVG Export Plug-In . SVG Version: 6.00 Build 0)  -->
<svg version="1.1" id="Capa_1" xmlns="http://www.w3.org/2000/svg" xmlns:xlink="http://www.w3.org/1999/xlink" x="0px" y="0px"
	 viewBox="0 0 512 512" style="enable-background:new 0 0 512 512;" xml:space="preserve">
<style type="text/css">
	.st0{fill:#EF7100;}
	.st1{fill:#FFFFFF;}
	.st2{fill:none;}
</style>
<path class="st0" d="M256,512c-3.8,0-7.6-1.4-10.6-4C238,501.4,64,344.9,64,193.4C64,86.7,150.1,0,256,0s192,86.7,192,193.4
	c0,151.5-174,308-181.4,314.6C263.6,510.6,259.8,512,256,512L256,512z"/>
<path class="st1" d="M256,298.7c-58.8,0-106.7-47.9-106.7-106.7S197.2,85.3,256,85.3S362.7,133.2,362.7,192S314.8,298.7,256,298.7z"
	/>
<path class="st0" d="M256,0C150.1,0,64,86.7,64,193.4c0,151.5,174,308,181.4,314.6c3.1,2.7,6.8,4.1,10.6,4.1V298.7
	c-58.8,0-106.7-47.9-106.7-106.7S197.2,85.3,256,85.3V0z"/>
<path class="st2" d="M256,85.3c-58.8,0-106.7,47.9-106.7,106.7S197.2,298.7,256,298.7V85.3z"/>
</svg>
